<svg width="32" height="40" viewBox="0 0 32 40" fill="none" xmlns="http://www.w3.org/2000/svg">
<path d="M16 21.833C19.0376 21.833 21.5 19.3706 21.5 16.333C21.5 13.2954 19.0376 10.833 16 10.833C12.9624 10.833 10.5 13.2954 10.5 16.333C10.5 19.3706 12.9624 21.833 16 21.833Z" stroke="#101110" stroke-width="2" stroke-linecap="round" stroke-linejoin="round"/>
<path d="M15.9999 1.6665C12.1101 1.6665 8.37955 3.21174 5.62902 5.96227C2.87849 8.7128 1.33325 12.4433 1.33325 16.3332C1.33325 19.8018 2.07025 22.0715 4.08325 24.5832L15.9999 38.3332L27.9166 24.5832C29.9296 22.0715 30.6666 19.8018 30.6666 16.3332C30.6666 12.4433 29.1214 8.7128 26.3708 5.96227C23.6203 3.21174 19.8898 1.6665 15.9999 1.6665Z" stroke="#101110" stroke-width="2" stroke-linecap="round" stroke-linejoin="round"/>
</svg>
