<svg width="44" height="44" viewBox="0 0 44 44" fill="none" xmlns="http://www.w3.org/2000/svg">
<path d="M23.9251 12.8333C25.7159 13.1827 27.3615 14.0585 28.6516 15.3486C29.9417 16.6386 30.8175 18.2843 31.1668 20.075M23.9251 5.5C27.6455 5.91331 31.1147 7.57931 33.7633 10.2245C36.4117 12.8697 38.0823 16.3369 38.5001 20.0567M32.0834 40.3333C16.3893 40.3333 3.66675 27.6107 3.66675 11.9167C3.66675 11.2086 3.69265 10.5066 3.74355 9.81151C3.80196 9.0138 3.83116 8.61496 4.0402 8.25189C4.21334 7.95119 4.52016 7.66601 4.83271 7.51529C5.21007 7.33333 5.65019 7.33333 6.53043 7.33333H11.6955C12.4357 7.33333 12.8058 7.33333 13.1231 7.45516C13.4034 7.56278 13.6529 7.73757 13.8499 7.96418C14.0728 8.22072 14.1992 8.56856 14.4522 9.26422L16.5901 15.1434C16.8843 15.9528 17.0316 16.3575 17.0066 16.7415C16.9846 17.08 16.8689 17.4058 16.6728 17.6826C16.4503 17.9965 16.0811 18.2181 15.3426 18.6612L12.8334 20.1667C15.0369 25.023 18.9753 28.9665 23.8334 31.1667L25.339 28.6576C25.7821 27.9189 26.0035 27.5497 26.3174 27.3273C26.5942 27.1311 26.92 27.0155 27.2586 26.9935C27.6425 26.9685 28.0473 27.1157 28.8567 27.41L34.7359 29.5478C35.4315 29.8008 35.7794 29.9273 36.0359 30.1503C36.2625 30.3472 36.4374 30.5967 36.5448 30.877C36.6668 31.1942 36.6668 31.5643 36.6668 32.3046V37.4697C36.6668 38.3499 36.6668 38.79 36.4847 39.1673C36.334 39.4799 36.0489 39.7868 35.7483 39.9599C35.3851 40.1689 34.9863 40.198 34.1886 40.2565C33.4934 40.3075 32.7915 40.3333 32.0834 40.3333Z" stroke="#101110" stroke-width="2" stroke-linecap="round" stroke-linejoin="round"/>
</svg>
