<svg width="44" height="44" viewBox="0 0 44 44" fill="none" xmlns="http://www.w3.org/2000/svg">
<path d="M23.9244 12.8333C25.7152 13.1827 27.3607 14.0585 28.6509 15.3486C29.941 16.6386 30.8168 18.2843 31.166 20.075M23.9244 5.5C27.6447 5.91331 31.114 7.57931 33.7626 10.2245C36.411 12.8697 38.0815 16.3369 38.4994 20.0567M32.0827 40.3333C16.3886 40.3333 3.66602 27.6107 3.66602 11.9167C3.66602 11.2086 3.69192 10.5066 3.74281 9.81151C3.80122 9.0138 3.83043 8.61496 4.03947 8.25189C4.21261 7.95119 4.51943 7.66601 4.83198 7.51529C5.20933 7.33333 5.64946 7.33333 6.5297 7.33333H11.6948C12.435 7.33333 12.8051 7.33333 13.1224 7.45516C13.4026 7.56278 13.6522 7.73757 13.8491 7.96418C14.072 8.22072 14.1985 8.56856 14.4515 9.26422L16.5894 15.1434C16.8836 15.9528 17.0308 16.3575 17.0059 16.7415C16.9839 17.08 16.8682 17.4058 16.6721 17.6826C16.4496 17.9965 16.0803 18.2181 15.3418 18.6612L12.8327 20.1667C15.0362 25.023 18.9745 28.9665 23.8327 31.1667L25.3382 28.6576C25.7813 27.9189 26.0028 27.5497 26.3167 27.3273C26.5935 27.1311 26.9193 27.0155 27.2579 26.9935C27.6418 26.9685 28.0466 27.1157 28.856 27.41L34.7352 29.5478C35.4307 29.8008 35.7787 29.9273 36.0352 30.1503C36.2618 30.3472 36.4367 30.5967 36.5441 30.877C36.666 31.1942 36.666 31.5643 36.666 32.3046V37.4697C36.666 38.3499 36.666 38.79 36.484 39.1673C36.3333 39.4799 36.0482 39.7868 35.7475 39.9599C35.3843 40.1689 34.9856 40.198 34.1879 40.2565C33.4927 40.3075 32.7907 40.3333 32.0827 40.3333Z" stroke="#101110" stroke-width="2" stroke-linecap="round" stroke-linejoin="round"/>
</svg>
