<svg width="20" height="21" viewBox="0 0 20 21" fill="none" xmlns="http://www.w3.org/2000/svg">
<path d="M11.2417 8.9209C10.7925 8.9209 10.4444 9.3684 10.4444 9.9209C10.4444 10.4734 10.7925 10.9209 11.2417 10.9209C11.6519 10.9209 12 10.4734 12 9.9209C12 9.3684 11.6519 8.9209 11.2417 8.9209ZM5.79722 8.9209C5.34806 8.9209 5 9.3684 5 9.9209C5 10.4734 5.34806 10.9209 5.79722 10.9209C6.2075 10.9209 6.55556 10.4734 6.55556 9.9209C6.55556 9.3684 6.2075 8.9209 5.79722 8.9209Z" fill="#545754"/>
<path d="M17.6728 7.80286C16.7066 6.52448 15.3567 5.67028 13.8762 5.28483V5.28677C13.5327 4.91875 13.145 4.57979 12.7111 4.27762C9.42265 1.97266 4.80642 2.67577 2.4059 5.84655C0.471416 8.42268 0.553777 11.8879 2.52642 14.3497L2.54249 16.9181C2.54249 16.9801 2.55254 17.0421 2.57263 17.1002C2.67909 17.4275 3.04068 17.6077 3.37816 17.505L5.92131 16.7322C6.59425 16.9627 7.2893 17.0944 7.98033 17.1312L7.97029 17.1389C9.76013 18.396 12.1064 18.7737 14.2578 18.088L16.811 18.8899C16.8753 18.9093 16.9416 18.9209 17.0099 18.9209C17.3655 18.9209 17.6527 18.6439 17.6527 18.3011V15.7056C19.4225 13.389 19.4687 10.1872 17.6728 7.80286ZM6.20254 15.3569L5.96148 15.2601L3.97276 15.8605L3.95268 13.8461L3.79197 13.6718C2.09252 11.6729 1.98003 8.79263 3.571 6.67943C5.50749 4.11879 9.21976 3.55321 11.8674 5.40105C14.523 7.26245 15.1116 10.8361 13.1932 13.3812C11.5841 15.5099 8.7035 16.2963 6.20254 15.3569ZM16.347 15.0276L16.1863 15.2213L16.2064 17.2358L14.2378 16.5966L13.9967 16.6934C12.8718 17.0963 11.6725 17.1292 10.5616 16.829L10.5576 16.8271C12.0421 16.3874 13.388 15.4964 14.3583 14.2141C15.893 12.1745 16.1421 9.61196 15.2502 7.42709L15.2622 7.43484C15.7243 7.75443 16.1481 8.15344 16.5077 8.63574C17.9661 10.5649 17.8837 13.1914 16.347 15.0276Z" fill="#545754"/>
<path d="M9.025 8.9209C8.4475 8.9209 8 9.3684 8 9.9209C8 10.4734 8.4475 10.9209 9.025 10.9209C9.5525 10.9209 10 10.4734 10 9.9209C10 9.3684 9.5525 8.9209 9.025 8.9209Z" fill="#545754"/>
</svg>
