<svg width="44" height="44" viewBox="0 0 44 44" fill="none" xmlns="http://www.w3.org/2000/svg">
<path d="M7.33333 33L16.5 22M36.6667 33L27.5 22M5.5 14.6667L18.7458 23.4971C19.9219 24.2812 20.5099 24.6734 21.1455 24.8256C21.7072 24.9603 22.2928 24.9603 22.8545 24.8256C23.4901 24.6734 24.0781 24.2812 25.2542 23.4971L38.5 14.6667M11.3667 34.8334H32.6333C34.6868 34.8334 35.7137 34.8334 36.498 34.4337C37.1879 34.0822 37.7489 33.5212 38.1003 32.8314C38.5 32.0471 38.5 31.0202 38.5 28.9667V15.0334C38.5 12.9798 38.5 11.9531 38.1003 11.1687C37.7489 10.4788 37.1879 9.91786 36.498 9.56634C35.7137 9.16669 34.6868 9.16669 32.6333 9.16669H11.3667C9.31315 9.16669 8.28637 9.16669 7.50204 9.56634C6.8121 9.91786 6.25117 10.4788 5.89965 11.1687C5.5 11.9531 5.5 12.9798 5.5 15.0334V28.9667C5.5 31.0202 5.5 32.0471 5.89965 32.8314C6.25117 33.5212 6.8121 34.0822 7.50204 34.4337C8.28637 34.8334 9.31313 34.8334 11.3667 34.8334Z" stroke="#101110" stroke-width="1.6" stroke-linecap="round" stroke-linejoin="round"/>
</svg>
