<svg width="20" height="20" viewBox="0 0 20 20" fill="none" xmlns="http://www.w3.org/2000/svg">
<path fill-rule="evenodd" clip-rule="evenodd" d="M7.91634 3.125C5.09717 3.125 2.70801 5.21583 2.70801 7.91667C2.71037 8.91569 3.04388 9.88574 3.65634 10.675L3.14634 12.5442C3.01301 13.0358 3.51967 13.4817 3.98967 13.2858L6.32301 12.3133C6.47606 12.2496 6.59751 12.1276 6.66065 11.9743C6.72379 11.821 6.72344 11.6489 6.65967 11.4958C6.59591 11.3428 6.47396 11.2213 6.32065 11.1582C6.16734 11.0951 5.99523 11.0954 5.84217 11.1592L4.68884 11.64L4.94717 10.6925C4.97455 10.5923 4.97654 10.4869 4.95297 10.3858C4.9294 10.2847 4.88101 10.1911 4.81217 10.1133C4.27217 9.50417 3.95801 8.74167 3.95801 7.91667C3.95801 6.015 5.67301 4.375 7.91634 4.375C9.64967 4.375 11.0755 5.36083 11.628 6.685C9.01134 6.89583 6.87467 8.90417 6.87467 11.4583C6.87467 14.1592 9.26384 16.25 12.083 16.25C12.7213 16.25 13.3355 16.1442 13.903 15.95L16.0097 16.8267C16.4797 17.0233 16.9863 16.5767 16.853 16.085L16.343 14.2167C16.9555 13.4274 17.289 12.4574 17.2913 11.4583C17.2913 9.04417 15.383 7.11833 12.9655 6.73583C12.3872 4.6275 10.3122 3.125 7.91634 3.125ZM8.12467 11.4583C8.12467 9.5575 9.83967 7.91667 12.083 7.91667C14.3263 7.91667 16.0413 9.5575 16.0413 11.4583C16.0413 12.2825 15.7272 13.0458 15.1872 13.655C15.1183 13.7327 15.0699 13.8264 15.0464 13.9275C15.0228 14.0286 15.0248 14.134 15.0522 14.2342L15.3105 15.1817L14.1572 14.7008C14.0067 14.6384 13.8377 14.6372 13.6863 14.6975C13.1759 14.8989 12.6318 15.0016 12.083 15C9.83967 15 8.12467 13.36 8.12467 11.4583Z" fill="#101110"/>
</svg>
