<svg width="36" height="38" viewBox="0 0 36 38" fill="none" xmlns="http://www.w3.org/2000/svg">
<path d="M3.22894 26.8808C4.1746 26.8808 4.91786 27.624 4.91786 28.5704C4.91786 29.5167 4.1746 30.2593 3.22894 30.2593C2.28329 30.2593 1.53937 29.5167 1.53937 28.5704C1.53937 27.624 2.28329 26.8808 3.22894 26.8808Z" fill="#FDE8F9"/>
<path d="M33.6354 28.5702C34.5811 28.5702 35.325 29.3135 35.325 30.2592C35.325 31.2055 34.5811 31.9487 33.6354 31.9487C32.6891 31.9487 31.9459 31.2055 31.9459 30.2592C31.9459 29.3135 32.6891 28.5702 33.6354 28.5702Z" fill="#FDE8F9"/>
<path d="M28.568 1.54143C29.5143 1.54143 30.2576 2.28468 30.2576 3.231C30.2576 4.17666 29.5143 4.91992 28.568 4.91992C27.6217 4.91992 26.8791 4.17666 26.8791 3.231C26.8791 2.28468 27.6217 1.54143 28.568 1.54143Z" fill="#FDE8F9"/>
<path d="M25.3913 27.0161L23.2969 36.7461L22.5536 35.395C21.9458 34.3139 21.608 33.1652 21.4726 31.9488L21.4049 31.5433L25.3913 27.0161Z" fill="#6E9137"/>
<path d="M28.432 12.7586L26.6084 21.3398L23.7695 22.691C22.8915 23.2318 21.9458 24.0428 21.1349 24.9214C21.3373 23.4342 21.8781 21.9477 22.5537 20.8667L28.432 12.7586Z" fill="#6E9137"/>
<path d="M14.3107 23.029C16.202 25.2595 17.1484 28.0971 16.946 31.0701L16.7429 33.6376V37.0161L14.8516 35.8681C13.162 34.8541 11.8779 33.3676 11.2023 31.5433L0.728455 4.85249L14.3107 23.029Z" fill="#6E9137"/>
<path d="M32.8251 18.4338L25.3919 27.0157L21.4733 31.5429L16.8113 36.9487V33.5703L19.3789 27.6235C19.716 26.6779 20.3916 25.6639 21.2025 24.7859C22.0134 23.9073 22.9598 23.0963 23.8384 22.5562L26.676 21.2044L32.8251 18.4338Z" fill="#8EC155"/>
<path d="M21.1349 25.5291C21.0672 25.5291 21.0672 25.5291 20.9995 25.5291C20.6617 25.4614 20.3909 25.1236 20.4593 24.7858C20.7294 23.2316 21.2703 21.6774 21.9458 20.461C21.9458 20.461 21.9458 20.3933 22.0128 20.3933L27.8918 12.3529C28.0942 12.0822 28.432 12.0144 28.7028 12.1498C28.9729 12.2852 29.176 12.623 29.1083 12.8931L27.2833 21.475C27.2163 21.8128 26.8785 22.0829 26.473 22.0152C26.1352 21.9475 25.8645 21.6097 25.9322 21.2043L27.0809 15.7314L23.0939 21.1372C22.486 22.2176 22.0128 23.5694 21.8104 24.9212C21.7427 25.3267 21.405 25.5291 21.1349 25.5291Z" fill="#101110"/>
<path d="M23.2975 37.4214C23.0274 37.4214 22.8244 37.2867 22.6896 37.0843L21.9464 35.7325C21.3379 34.5837 20.9324 33.3673 20.7977 32.0839L20.73 31.6784C20.6623 31.3406 20.9324 31.0022 21.3379 30.9352C21.6756 30.8675 22.0134 31.1376 22.0811 31.5431L22.1488 31.9485C22.2165 32.9619 22.5543 33.9752 23.0274 34.8538L24.7163 26.8804C24.784 26.5427 25.1218 26.2726 25.5273 26.3403C25.865 26.4073 26.1358 26.7457 26.0681 27.1512L23.9731 36.8812C23.9054 37.1513 23.703 37.3544 23.4322 37.4214C23.3652 37.4214 23.2975 37.4214 23.2975 37.4214Z" fill="#101110"/>
<path d="M16.7423 37.6924C16.6076 37.6924 16.4045 37.6247 16.2698 37.557C15.9997 37.2869 15.9314 36.8814 16.2014 36.6107L30.1885 20.3938L24.1078 23.2321C23.2968 23.7053 22.4189 24.4485 21.675 25.3272C20.864 26.2051 20.3238 27.0837 19.9861 27.9617L17.4185 33.9084C17.2831 34.2462 16.8777 34.3809 16.5399 34.2462C16.2014 34.1108 16.0667 33.706 16.2014 33.3676L18.702 27.4892C19.1074 26.4752 19.783 25.4619 20.6616 24.4485C21.5403 23.5022 22.4859 22.6235 23.4999 22.0834H23.5676L32.5544 17.8262C32.8245 17.6915 33.1622 17.7586 33.3653 18.0286C33.5677 18.2994 33.5677 18.6372 33.3653 18.9073L17.2831 37.4216C17.1477 37.6247 16.9454 37.6924 16.7423 37.6924Z" fill="#101110"/>
<path d="M3.16114 9.24469L11.8108 31.2729C12.4857 32.9618 13.6344 34.3806 15.1892 35.2592L16.0672 35.8001V33.6374V33.5704L16.2703 31.0021C16.4727 28.2322 15.5941 25.5969 13.7698 23.5019C13.7698 23.5019 13.7698 23.5019 13.7698 23.4342L3.16114 9.24469ZM16.7428 37.6921C16.6081 37.6921 16.4727 37.6921 16.405 37.6244L14.513 36.4756C12.7564 35.3946 11.3376 33.7727 10.5266 31.8131L0.0534089 5.12295C-0.082642 4.78517 0.0534272 4.44674 0.323518 4.31203C0.59361 4.17665 0.999055 4.24434 1.20146 4.51443L14.7831 22.691C16.8111 25.0561 17.8238 28.0968 17.6214 31.2052L17.419 33.7727V37.1512C17.419 37.4213 17.2836 37.6244 17.0812 37.7598C17.0129 37.6244 16.8781 37.6921 16.7428 37.6921Z" fill="#101110"/>
<path d="M20.8639 18.2991C20.5939 18.2991 20.3238 18.1637 20.2561 17.8936L13.5668 0.933491C13.4314 0.662729 13.5668 0.324942 13.8369 0.122541C14.107 -0.0805302 14.4448 -0.0128231 14.6478 0.190248C14.6478 0.190248 17.0807 2.41998 19.4451 5.1229C22.6889 8.83917 24.3785 11.6091 24.3785 13.4341C24.3785 13.8396 24.1077 14.1097 23.7023 14.1097C23.2968 14.1097 23.0267 13.8396 23.0267 13.4341C23.0267 11.0689 18.972 6.40636 15.9313 3.36565L21.4725 17.4204C21.6079 17.7582 21.4048 18.1637 21.067 18.2991C21.067 18.2991 20.9316 18.2991 20.8639 18.2991Z" fill="#101110"/>
<path d="M33.6355 29.2458C33.0947 29.2458 32.6215 29.7189 32.6215 30.2591C32.6215 30.8 33.0947 31.2731 33.6355 31.2731C34.1764 31.2731 34.6489 30.8 34.6489 30.2591C34.6489 29.7189 34.2434 29.2458 33.6355 29.2458ZM33.6355 32.6243C32.3514 32.6243 31.2704 31.5432 31.2704 30.2591C31.2704 28.9757 32.3514 27.8946 33.6355 27.8946C34.919 27.8946 36 28.9757 36 30.2591C36 31.5432 34.9873 32.6243 33.6355 32.6243Z" fill="#101110"/>
<path d="M28.5678 2.21728C28.0276 2.21728 27.5544 2.69044 27.5544 3.23129C27.5544 3.77147 28.0276 4.24464 28.5678 4.24464C29.1086 4.24464 29.5811 3.77147 29.5811 3.23129C29.5811 2.62275 29.1763 2.21728 28.5678 2.21728ZM28.5678 5.59644C27.2837 5.59644 26.2026 4.51473 26.2026 3.23129C26.2026 1.94719 27.2837 0.866148 28.5678 0.866148C29.8519 0.866148 30.9329 1.94719 30.9329 3.23129C30.9329 4.51473 29.9196 5.59644 28.5678 5.59644Z" fill="#101110"/>
<path d="M3.22841 27.5566C2.68756 27.5566 2.2144 28.0291 2.2144 28.5699C2.2144 29.1108 2.68756 29.5833 3.22841 29.5833C3.76926 29.5833 4.24245 29.1108 4.24245 28.5699C4.24245 28.0291 3.83628 27.5566 3.22841 27.5566ZM3.22841 30.9351C1.9443 30.9351 0.863953 29.8534 0.863953 28.5699C0.863953 27.2858 1.9443 26.2048 3.22841 26.2048C4.51252 26.2048 5.5929 27.2858 5.5929 28.5699C5.5929 29.8534 4.57954 30.9351 3.22841 30.9351Z" fill="#101110"/>
<path d="M26.8789 37.6924H8.29619C7.89139 37.6924 7.62128 37.4216 7.62128 37.0161C7.62128 36.6107 7.89139 36.3412 8.29619 36.3412H26.8789C27.2837 36.3412 27.5544 36.6107 27.5544 37.0161C27.5544 37.3546 27.2837 37.6924 26.8789 37.6924Z" fill="#101110"/>
<path d="M9.17509 16.5427C9.1074 16.5427 8.9727 16.5427 8.90501 16.475C8.56723 16.3397 8.43252 15.9342 8.56723 15.5964C11.1348 10.4606 9.51286 6.33957 9.37815 6.00112C9.24344 5.73103 9.31047 5.46095 9.51287 5.25788C9.78364 4.98779 10.1891 4.98779 10.4592 5.25788C10.5269 5.32557 10.5939 5.39326 10.5939 5.46028C10.6623 5.66335 11.1347 6.87976 11.2701 8.70405C11.4725 11.2046 10.9323 13.7721 9.71593 16.1373C9.64824 16.4074 9.37816 16.5427 9.17509 16.5427Z" fill="#101110"/>
<path d="M15.0534 18.2314C14.7163 18.2314 14.3785 17.9613 14.3785 17.5559C14.2425 12.0147 9.51284 6.20399 9.44515 6.1363C9.17506 5.86621 9.24343 5.39306 9.51285 5.19066C9.78362 4.9199 10.2561 4.98759 10.4592 5.25768C10.6623 5.52844 15.5266 11.4745 15.6626 17.4882C15.7296 17.9613 15.4595 18.2314 15.0534 18.2314Z" fill="#101110"/>
</svg>
