<svg width="44" height="44" viewBox="0 0 44 44" fill="none" xmlns="http://www.w3.org/2000/svg">
<path d="M7.33333 32.9998L16.5 21.9998M36.6667 32.9998L27.5 21.9998M5.5 14.6665L18.7458 23.4969C19.9219 24.2811 20.5099 24.6732 21.1455 24.8254C21.7072 24.9601 22.2928 24.9601 22.8545 24.8254C23.4901 24.6732 24.0781 24.2811 25.2542 23.4969L38.5 14.6665M11.3667 34.8332H32.6333C34.6868 34.8332 35.7137 34.8332 36.498 34.4335C37.1879 34.0821 37.7489 33.5211 38.1003 32.8312C38.5 32.0469 38.5 31.02 38.5 28.9665V15.0332C38.5 12.9797 38.5 11.9529 38.1003 11.1685C37.7489 10.4786 37.1879 9.91768 36.498 9.56615C35.7137 9.1665 34.6868 9.1665 32.6333 9.1665H11.3667C9.31315 9.1665 8.28637 9.1665 7.50204 9.56615C6.8121 9.91768 6.25117 10.4786 5.89965 11.1685C5.5 11.9529 5.5 12.9796 5.5 15.0332V28.9665C5.5 31.02 5.5 32.0469 5.89965 32.8312C6.25117 33.5211 6.8121 34.0821 7.50204 34.4335C8.28637 34.8332 9.31313 34.8332 11.3667 34.8332Z" stroke="#101110" stroke-width="1.6" stroke-linecap="round" stroke-linejoin="round"/>
</svg>
