<svg width="44" height="44" viewBox="0 0 44 44" fill="none" xmlns="http://www.w3.org/2000/svg">
<path d="M22 23.8334C25.0376 23.8334 27.5 21.3709 27.5 18.3334C27.5 15.2958 25.0376 12.8334 22 12.8334C18.9624 12.8334 16.5 15.2958 16.5 18.3334C16.5 21.3709 18.9624 23.8334 22 23.8334Z" stroke="#101110" stroke-width="2" stroke-linecap="round" stroke-linejoin="round"/>
<path d="M22.0007 3.66669C18.1108 3.66669 14.3803 5.21192 11.6298 7.96245C8.87922 10.713 7.33398 14.4435 7.33398 18.3334C7.33398 21.802 8.07098 24.0717 10.084 26.5834L22.0007 40.3334L33.9173 26.5834C35.9303 24.0717 36.6673 21.802 36.6673 18.3334C36.6673 14.4435 35.1221 10.713 32.3716 7.96245C29.621 5.21192 25.8905 3.66669 22.0007 3.66669Z" stroke="#101110" stroke-width="2" stroke-linecap="round" stroke-linejoin="round"/>
</svg>
