<svg width="25" height="24" viewBox="0 0 25 24" fill="none" xmlns="http://www.w3.org/2000/svg">
<path d="M12.8335 19V22" stroke="#020108" stroke-width="1.5" stroke-linejoin="round"/>
<path d="M10.3335 22H15.3335" stroke="#020108" stroke-width="1.5" stroke-linejoin="round"/>
<path d="M13.8335 16C9.9675 16 6.8335 12.866 6.8335 9C6.8335 5.13401 9.9675 2 13.8335 2C17.6995 2 20.8335 5.13401 20.8335 9C20.8335 12.866 17.6995 16 13.8335 16Z" stroke="#020108" stroke-width="1.5" stroke-linejoin="round"/>
<path d="M8.8335 4C9.48781 4.0385 9.82586 4.35899 10.407 4.97301C11.4566 6.08206 12.5062 6.1746 13.2059 5.80492C14.2555 5.2504 13.3735 4.35221 14.6054 3.86409C15.4083 3.54595 15.5203 2.68026 15.0734 2" stroke="#020108" stroke-width="1.5" stroke-linejoin="round"/>
<path d="M20.3335 10C18.8335 10 18.5673 11.2468 17.3335 11C14.8335 10.5 14.1251 11.0589 14.1251 12.2511C14.1251 13.4432 14.1251 13.4432 13.6052 14.3373C13.267 14.9189 13.1488 15.5004 13.8229 16" stroke="#020108" stroke-width="1.5" stroke-linejoin="round"/>
<path d="M6.8335 2C4.98214 3.79995 3.8335 6.3082 3.8335 9.08251C3.8335 14.5598 8.31065 19 13.8335 19C16.559 19 19.0297 17.9187 20.8335 16.165" stroke="#020108" stroke-width="1.5" stroke-linejoin="round"/>
</svg>
