<svg width="16" height="16" viewBox="0 0 16 16" fill="none" xmlns="http://www.w3.org/2000/svg">
<g clip-path="url(#clip0_214_30780)">
<path d="M14.6722 9.90625C14.8953 9.65716 15.0313 9.32843 15.0313 8.96872C15.0313 8.19345 14.4003 7.56247 13.625 7.56247H10.8956C11.166 6.74219 11.2812 5.65375 11.2812 5.18718V4.71875C11.2812 3.68499 10.44 2.84375 9.40626 2.84375H8.93753C8.72247 2.84375 8.53498 2.99 8.48284 3.19875L8.22749 4.22031C7.86967 5.65094 6.73375 7.22937 5.55812 7.51622C5.35219 6.99499 4.84375 6.625 4.25 6.625H1.4375C1.17875 6.625 0.96875 6.835 0.96875 7.09375V15.5313C0.96875 15.79 1.17875 16 1.4375 16H4.25C4.80906 16 5.29282 15.6722 5.51938 15.1985L7.13 15.7353C7.65658 15.9109 8.20531 16 8.76066 16H12.6875C13.4628 16 14.0937 15.3691 14.0937 14.5937C14.0937 14.4109 14.0588 14.2359 13.995 14.0756C14.5913 13.9128 15.0313 13.3663 15.0313 12.7188C15.0313 12.3591 14.8953 12.0303 14.6722 11.7812C14.8953 11.5322 15.0313 11.2034 15.0313 10.8438C15.0313 10.4841 14.8953 10.1553 14.6722 9.90625ZM4.71875 14.5937C4.71875 14.8522 4.50844 15.0625 4.25 15.0625H1.90625V7.56247H4.25C4.50844 7.56247 4.71875 7.7728 4.71875 8.03127V14.5937ZM12.6875 10.375H13.625C13.8834 10.375 14.0937 10.5853 14.0937 10.8438C14.0937 11.1022 13.8834 11.3125 13.625 11.3125H12.6875C12.4287 11.3125 12.2188 11.5225 12.2188 11.7812C12.2188 12.04 12.4287 12.25 12.6875 12.25H13.625C13.8834 12.25 14.0937 12.4603 14.0937 12.7188C14.0937 12.9772 13.8834 13.1875 13.625 13.1875H12.6875C12.4287 13.1875 12.2188 13.3975 12.2188 13.6562C12.2188 13.915 12.4287 14.125 12.6875 14.125C12.946 14.125 13.1562 14.3353 13.1562 14.5937C13.1562 14.8522 12.946 15.0625 12.6875 15.0625H8.76066C8.30626 15.0625 7.85716 14.9897 7.42626 14.846L5.65625 14.2559V8.45563C6.39156 8.31592 7.11125 7.85032 7.76095 7.08812C8.39535 6.34375 8.90967 5.35687 9.13687 4.44781L9.30342 3.78125H9.40626C9.92313 3.78125 10.3438 4.20187 10.3438 4.71875V5.18718C10.3438 5.81656 10.1469 7.02375 9.89498 7.56247H8.93753C8.67876 7.56247 8.46873 7.77251 8.46873 8.03127C8.46873 8.28996 8.67876 8.5 8.93753 8.5H13.625C13.8834 8.5 14.0937 8.71032 14.0937 8.96872C14.0937 9.2272 13.8834 9.43752 13.625 9.43752H12.6875C12.4287 9.43752 12.2188 9.64749 12.2188 9.90625C12.2188 10.165 12.4287 10.375 12.6875 10.375Z" fill="white"/>
<path d="M3.3125 14.125C3.57138 14.125 3.78125 13.9151 3.78125 13.6562C3.78125 13.3974 3.57138 13.1875 3.3125 13.1875C3.05361 13.1875 2.84375 13.3974 2.84375 13.6562C2.84375 13.9151 3.05361 14.125 3.3125 14.125Z" fill="white"/>
<path d="M9.87498 0C9.61614 0 9.40625 0.209875 9.40625 0.46875V1.4375C9.40625 1.69638 9.61614 1.90625 9.87498 1.90625C10.1339 1.90625 10.3438 1.69638 10.3438 1.4375V0.46875C10.3438 0.209875 10.1339 0 9.87498 0Z" fill="white"/>
<path d="M7.88696 2.06778L7.22403 1.40487C7.041 1.22181 6.74419 1.22181 6.56112 1.40487C6.37806 1.58794 6.37806 1.88471 6.56112 2.06778L7.22403 2.73069C7.40704 2.91372 7.70391 2.91375 7.88696 2.73069C8.07002 2.54762 8.07002 2.25084 7.88696 2.06778Z" fill="white"/>
<path d="M13.1897 1.40487C13.0066 1.22181 12.7098 1.22181 12.5268 1.40487L11.8639 2.06775C11.6808 2.25081 11.6808 2.54759 11.8639 2.73066C12.0468 2.91372 12.3436 2.91375 12.5268 2.73069L13.1897 2.06778C13.3727 1.88471 13.3727 1.58794 13.1897 1.40487Z" fill="white"/>
</g>
<defs>
<clipPath id="clip0_214_30780">
<rect width="16" height="16" fill="white"/>
</clipPath>
</defs>
</svg>
