<svg width="36" height="48" viewBox="0 0 36 48" fill="none" xmlns="http://www.w3.org/2000/svg">
<path d="M15.7512 27.0002C15.7512 27.1612 15.6707 27.2409 15.6707 27.4019C13.0987 26.8392 9.56311 27.1612 8.03601 25.6341C6.42921 24.0273 6.34871 21.2951 8.03601 19.6875C9.64361 18.0807 12.3758 18.0807 13.9826 19.6875C15.5097 21.1341 15.269 24.5095 15.7512 27.0002Z" fill="#F2D8C2"/>
<path d="M26.1965 16.9558C28.4465 19.205 28.4465 22.821 26.1965 24.9913C24.188 26.9998 19.366 26.5981 15.8304 27.321C15.8304 27.2405 15.7507 27.0804 15.7507 26.9999C16.4736 23.5448 16.1524 18.8838 18.0804 16.9558C20.3304 14.705 23.9465 14.705 26.1965 16.9558Z" fill="#F2D8C2"/>
<path d="M15.2688 27.4022H35.0366C35.1163 28.2056 35.1163 29.0098 35.1163 29.6522C35.1163 33.992 33.5095 38.0098 30.7773 41.0632H5.06289C2.33069 38.0098 0.723877 33.992 0.723877 29.6522C0.723877 29.0098 0.723878 28.2056 0.804377 27.4022H0.88408H15.2688Z" fill="#FF99A7"/>
<path d="M5.14404 41.0628H30.8584C27.7245 44.5984 23.144 46.8484 18.0008 46.8484C12.8584 46.8484 8.27794 44.6789 5.14404 41.0628Z" fill="#F2D8C2"/>
<path d="M8.11654 25.6341C9.56234 27.1612 13.0979 26.8392 15.7504 27.4019H15.3479H0.964045H0.883545C1.76744 18.2409 7.31234 0.803562 17.9199 0.803562C28.5267 0.803562 34.1521 18.2409 34.9555 27.4019H34.875H15.8301C19.3657 26.5985 24.1877 27.0807 26.1962 25.0714C28.4462 22.8214 28.4462 19.2053 26.1962 17.0358C23.9462 14.7858 20.3301 14.7858 18.1606 17.0358C16.2326 18.9646 16.4733 23.7053 15.8301 27.0807C15.3479 24.59 15.5089 21.1341 14.1428 19.768C12.5353 18.1612 9.80384 18.0807 8.19624 19.768C6.42844 21.3756 6.42844 24.0273 8.11654 25.6341Z" fill="#F2D8C2"/>
<path d="M18 1.68722C12.5356 1.68722 8.7593 6.83041 6.5093 11.0889C3.6169 16.7948 2.08901 23.4643 1.7678 27.4821C1.6881 28.2855 1.6881 29.0092 1.6881 29.6516C1.6881 33.6694 3.13469 37.527 5.8661 40.5007C9 43.9558 13.4203 45.9643 18.0805 45.9643C22.7415 45.9643 27.2415 43.9558 30.3754 40.4194C33.0271 37.4465 34.4737 33.5897 34.4737 29.5719C34.4737 28.9287 34.4737 28.205 34.3932 27.4016C33.9915 23.3838 32.5449 16.7143 29.6525 11.0092C27.2415 6.83041 23.4644 1.68722 18 1.68722ZM18 47.6516C12.8576 47.6516 7.9559 45.4829 4.58051 41.6253C1.60761 38.3304 0 34.0711 0 29.6516C0 28.9287 7.79104e-07 28.205 0.0805002 27.3211C0.482201 22.9821 2.00931 16.2321 5.06271 10.2855C8.51781 3.53551 13.0178 -7.62939e-05 18 -7.62939e-05C22.9822 -7.62939e-05 27.4822 3.53551 30.9381 10.2855C33.9915 16.1516 35.5178 22.9016 35.9203 27.3211C36 28.1253 36 28.9287 36 29.6516C36 34.0711 34.3932 38.3304 31.5 41.6253C28.0449 45.4829 23.1432 47.6516 18 47.6516Z" fill="#101110"/>
<path d="M35.0363 28.2046H0.964347C0.482147 28.2046 0.16095 27.8834 0.16095 27.4012C0.16095 26.919 0.482147 26.5978 0.964347 26.5978H35.0363C35.5177 26.5978 35.8397 26.919 35.8397 27.4012C35.8397 27.8834 35.438 28.2046 35.0363 28.2046Z" fill="#101110"/>
<path d="M22.1799 16.071C20.8943 16.071 19.6087 16.5532 18.7248 17.5176C17.5994 18.643 17.2782 21.2142 17.0367 23.7049C16.957 24.5896 16.8765 25.5532 16.7155 26.4379C17.5994 26.2769 18.5638 26.1964 19.5282 26.1159C21.9392 25.8752 24.5104 25.6337 25.6358 24.5091C27.5638 22.5803 27.5638 19.4464 25.6358 17.5981C24.6714 16.6337 23.4655 16.071 22.1799 16.071ZM15.6714 28.2049C15.4299 28.2049 15.2697 28.1252 15.1087 27.9642C14.9477 27.8032 14.8672 27.482 14.8672 27.2405C14.8672 27.1608 14.9477 26.9998 14.9477 26.9193C15.1892 25.8752 15.2697 24.7498 15.3494 23.6252C15.6714 20.893 15.9121 17.9998 17.4392 16.4735C18.6443 15.2676 20.3316 14.5447 22.0189 14.5447C23.7875 14.5447 25.3943 15.1871 26.5994 16.4735C29.1714 19.0447 29.1714 23.143 26.5994 25.7142C25.0731 27.2405 22.1799 27.5625 19.4477 27.8032C18.2426 27.8837 16.957 28.0447 15.8316 28.2854H15.7511C15.7511 28.2854 15.7511 28.2854 15.6714 28.2854C15.8316 28.2049 15.7519 28.2049 15.6714 28.2049Z" fill="#101110"/>
<path d="M11.0905 19.2851C10.2066 19.2851 9.32274 19.6063 8.67954 20.2495C8.03634 20.8927 7.71515 21.7766 7.71515 22.6605C7.71515 23.5444 8.03634 24.4283 8.67954 25.0707C9.48294 25.8749 11.3312 26.0351 13.099 26.1961C13.6617 26.2766 14.3049 26.2766 14.8668 26.3571C14.7871 25.7944 14.7066 25.2317 14.7066 24.669C14.5456 22.9012 14.3049 20.9732 13.5007 20.2495C12.8583 19.6063 11.9744 19.2851 11.0905 19.2851ZM15.8312 28.2046C15.7515 28.2046 15.671 28.2046 15.671 28.2046C15.671 28.2046 15.671 28.2046 15.5905 28.2046C15.5905 28.2046 15.5905 28.2046 15.51 28.2046C14.7066 28.0444 13.8227 27.9639 12.9388 27.8834C10.849 27.7224 8.76005 27.4817 7.55415 26.2766C6.59055 25.3122 6.10834 24.0266 6.10834 22.7402C6.10834 21.3749 6.59055 20.169 7.55415 19.2046C8.51855 18.2402 9.72444 17.758 11.0905 17.758C12.4566 17.758 13.6617 18.3207 14.6261 19.2046C15.8312 20.4105 16.0719 22.58 16.2337 24.669C16.3134 25.4732 16.3939 26.2766 16.5541 26.9995C16.5541 27.08 16.6354 27.2402 16.6354 27.3207C16.6354 27.4012 16.6354 27.4817 16.6354 27.5622C16.7151 27.8834 16.3134 28.2046 15.8312 28.2046C15.9117 28.2046 15.9117 28.2046 15.8312 28.2046Z" fill="#101110"/>
<path d="M20.4926 35.5986C20.0909 35.5986 19.6892 35.2774 19.6892 34.8757C19.3672 29.7325 15.4299 28.2859 15.4299 28.2054C15.0282 28.0452 14.7875 27.563 14.9477 27.1613C15.1087 26.7596 15.5909 26.5181 15.9926 26.6791C16.2341 26.7596 20.9748 28.5274 21.3765 34.7147C21.3765 35.1969 20.9748 35.5986 20.4926 35.5986C20.5731 35.5986 20.5731 35.5986 20.4926 35.5986Z" fill="#101110"/>
<path d="M10.4471 35.5986C9.96486 35.5986 9.64368 35.1969 9.64368 34.7147C9.96488 28.4469 14.7869 26.6791 15.0276 26.6791C15.4293 26.5181 15.9115 26.7596 16.0717 27.1613C16.2335 27.563 15.992 28.0452 15.5903 28.2054C15.4293 28.2859 11.5717 29.7325 11.331 34.8757C11.2505 35.2774 10.8488 35.5986 10.4471 35.5986Z" fill="#101110"/>
<path d="M30.8584 41.8665H5.14404C4.66184 41.8665 4.34064 41.5445 4.34064 41.0623C4.34064 40.5801 4.66184 40.2589 5.14404 40.2589H30.8584C31.3406 40.2589 31.6618 40.5801 31.6618 41.0623C31.6618 41.5445 31.3406 41.8665 30.8584 41.8665Z" fill="#101110"/>
</svg>
