<svg width="36" height="44" viewBox="0 0 36 44" fill="none" xmlns="http://www.w3.org/2000/svg">
<path d="M13.5292 0.786651C18.406 0.786651 22.4176 5.11284 22.8109 10.6189H18.5634C18.3274 7.31526 16.2036 4.71955 13.4506 4.71955C10.6976 4.71955 8.57379 7.31526 8.33782 10.6189H4.16895C4.64089 5.11284 8.65245 0.786651 13.5292 0.786651Z" fill="#FEBE76"/>
<path d="M35.1597 19.5073V23.4402L23.9902 33.3511L24.7768 26.0359L35.1597 19.5073Z" fill="#FEBE76"/>
<path d="M17.8546 28.1594C17.8546 30.9911 15.8882 33.2722 13.4498 33.2722C11.0114 33.2722 9.04492 30.9911 9.04492 28.1594C9.04492 25.5637 11.9553 22.6534 13.3711 19.979C14.9443 22.6534 17.8546 25.4851 17.8546 28.1594Z" fill="#D1E7F8"/>
<path d="M13.5287 33.2725C15.9671 33.2725 17.9336 30.9914 17.9336 28.1597C17.9336 25.564 15.0232 22.7323 13.5287 19.9793C12.1129 22.6537 9.12388 25.564 9.12388 28.1597C9.12388 30.9914 11.0903 33.2725 13.5287 33.2725ZM26.2713 10.619L24.6982 26.0359L23.9902 33.3511L23.6756 36.6548C23.5183 38.6212 21.8665 40.1157 19.9 40.1157H16.5177H7.15743C5.19098 40.1157 3.53916 38.6212 3.38185 36.6548L0.786133 10.619H4.16843H8.41596H18.5628H22.8104H26.2713Z" fill="#545754"/>
<path d="M13.5293 21.4738C13.136 22.0244 12.8214 22.575 12.4281 23.1256C11.2482 24.8561 9.98971 26.6652 9.98971 28.0811C9.98971 30.4408 11.6415 32.4073 13.608 32.4073C15.5744 32.4073 17.2262 30.4408 17.2262 28.0811C17.2262 26.5866 15.9677 24.8561 14.7878 23.1256C14.2372 22.6537 13.8439 22.0244 13.5293 21.4738ZM13.5293 34.0591C10.6976 34.0591 8.33789 31.3847 8.33789 28.1597C8.33789 26.1933 9.75373 24.2268 11.0909 22.2604C11.7202 21.3952 12.3494 20.4513 12.8214 19.586C12.9787 19.35 13.2147 19.1927 13.5293 19.1927C13.8439 19.1927 14.0799 19.35 14.2372 19.586C14.7092 20.4513 15.3384 21.3952 15.9677 22.2604C17.3049 24.1482 18.7207 26.1146 18.7207 28.0811C18.6421 31.3847 16.361 34.0591 13.5293 34.0591Z" fill="#101110"/>
<path d="M22.8101 11.4054C22.4169 11.4054 22.0236 11.0908 22.0236 10.6975C21.6303 5.58474 17.8547 1.57319 13.5285 1.57319C9.12366 1.57319 5.42674 5.58474 5.03345 10.6975C5.03345 11.1695 4.64016 11.4841 4.16821 11.4054C3.69626 11.4054 3.38163 11.0121 3.46029 10.5402C3.69626 7.70851 4.79747 5.03414 6.68527 3.06769C8.57306 1.10124 11.0115 2.95639e-05 13.6072 2.95639e-05C16.2029 2.95639e-05 18.6413 1.10124 20.5291 3.06769C22.3382 5.03414 23.5181 7.70851 23.754 10.5402C23.5967 11.0121 23.2821 11.4054 22.8101 11.4054Z" fill="#101110"/>
<path d="M18.5632 11.4054C18.1699 11.4054 17.7766 11.0908 17.7766 10.6975C17.6193 7.78717 15.7315 5.50609 13.4505 5.50609C11.248 5.50609 9.36024 7.78717 9.12427 10.6975C9.12427 11.1695 8.73098 11.4841 8.25903 11.4054C7.78708 11.4054 7.47245 11.0121 7.55111 10.5402C7.62977 8.73106 8.25903 7.07925 9.36024 5.89938C10.4615 4.64085 11.8773 3.93293 13.4505 3.93293C15.0236 3.93293 16.4395 4.64085 17.5407 5.89938C18.5632 7.1579 19.1925 8.80972 19.3498 10.5402C19.4285 11.0121 19.0352 11.4054 18.5632 11.4054C18.6419 11.4054 18.6419 11.4054 18.5632 11.4054Z" fill="#101110"/>
<path d="M23.9902 34.1375C23.7542 34.1375 23.5969 34.0588 23.4396 33.9015C23.1249 33.5868 23.2036 33.1149 23.5182 32.8003L34.609 22.8107C34.9236 22.4961 35.3956 22.5747 35.7102 22.8894C36.0248 23.204 35.9462 23.6759 35.6315 23.9906L24.5408 33.9801C24.3834 34.0588 24.2261 34.1375 23.9902 34.1375Z" fill="#101110"/>
<path d="M24.7766 26.8225C24.5407 26.8225 24.226 26.6652 24.1474 26.4292C23.9114 26.0359 23.9901 25.564 24.3834 25.328L34.7662 18.7994C35.1595 18.5634 35.6314 18.6421 35.8674 19.0354C36.1034 19.4287 36.0247 19.9006 35.6314 20.1366L25.2486 26.6652C25.0126 26.8225 24.8553 26.8225 24.7766 26.8225Z" fill="#101110"/>
<path d="M1.57316 11.4054L4.09021 36.5759C4.24753 38.1491 5.58472 39.3289 7.07922 39.3289H19.9005C21.4736 39.3289 22.7322 38.1491 22.8895 36.5759L25.4065 11.4054H1.57316ZM19.9005 40.9021H7.15788C4.79814 40.9021 2.83169 39.093 2.59571 36.7332L0 10.6974C0 10.4615 0.078658 10.2255 0.235974 10.0682C0.39329 9.91086 0.629264 9.8322 0.78658 9.8322H26.3504C26.5864 9.8322 26.8224 9.91086 26.901 10.0682C27.0583 10.2255 27.137 10.4615 27.137 10.6974L24.5413 36.7332C24.2267 39.1716 22.2602 40.9021 19.9005 40.9021Z" fill="#101110"/>
<path d="M26.2712 43.8909H1.72994C1.25799 43.8909 0.943359 43.5762 0.943359 43.1043C0.943359 42.6323 1.25799 42.3177 1.72994 42.3177H26.3499C26.8218 42.3177 27.1365 42.6323 27.1365 43.1043C27.0578 43.4976 26.7432 43.8909 26.2712 43.8909Z" fill="#101110"/>
<path d="M35.1596 26.1929C34.6877 26.1929 34.373 25.8782 34.373 25.4063V18.4844C34.373 18.0124 34.6877 17.6978 35.1596 17.6978C35.6316 17.6978 35.9462 18.0124 35.9462 18.4844V25.4063C35.9462 25.7996 35.5529 26.1929 35.1596 26.1929Z" fill="#101110"/>
<path d="M19.428 15.3384H1.72994C1.25799 15.3384 0.943359 15.0237 0.943359 14.5518C0.943359 14.0799 1.25799 13.7652 1.72994 13.7652H19.428C19.8999 13.7652 20.2146 14.0799 20.2146 14.5518C20.2146 15.0237 19.8213 15.3384 19.428 15.3384Z" fill="#101110"/>
</svg>
