<svg width="120" height="120" viewBox="0 0 120 120" fill="none" xmlns="http://www.w3.org/2000/svg">
<rect x="1.5" y="1.5" width="117" height="117" rx="18.5" stroke="#1FA12E" stroke-opacity="0.1" stroke-width="3"/>
<rect x="10" y="10" width="100" height="100" rx="20" fill="#1FA12E" fill-opacity="0.1"/>
<rect x="10.5" y="10.5" width="99" height="99" rx="19.5" stroke="#1FA12E" stroke-opacity="0.1"/>
<path d="M79.4995 39C80.9 39 82 40.099 82 41.4995C82 42.899 80.9 44 79.4995 44C78.099 44 77 42.899 77 41.4995C77 40.099 78.099 39 79.4995 39Z" fill="#A88D68"/>
<path d="M79.4995 39C80.9 39 82 40.099 82 41.4995C82 42.899 80.9 44 79.4995 44C78.099 44 77 42.899 77 41.4995C77 40.099 78.099 39 79.4995 39Z" stroke="#F5F5F5"/>
<path d="M45.4995 74C46.901 74 48 75.1012 48 76.5006C48 77.9012 46.901 79 45.4995 79C44.1 79 43 77.9012 43 76.5006C43 75.1012 44.1 74 45.4995 74Z" fill="#A88D68"/>
<path d="M45.4995 74C46.901 74 48 75.1012 48 76.5006C48 77.9012 46.901 79 45.4995 79C44.1 79 43 77.9012 43 76.5006C43 75.1012 44.1 74 45.4995 74Z" stroke="#F5F5F5"/>
<path d="M41.4995 43C42.9 43 44 44.099 44 45.4995C44 46.899 42.9 48 41.4995 48C40.1 48 39 46.899 39 45.4995C39 44.099 40.1 43 41.4995 43Z" fill="#A88D68"/>
<path d="M41.4995 43C42.9 43 44 44.099 44 45.4995C44 46.899 42.9 48 41.4995 48C40.1 48 39 46.899 39 45.4995C39 44.099 40.1 43 41.4995 43Z" stroke="#F5F5F5"/>
<path d="M61.4996 81C52.7995 74.6922 47 66.2793 47 57.0458C47 47.8114 52.7995 39.308 61.4996 33C70.2006 39.308 76 47.8114 76 57.0458C76 66.2793 70.2006 74.6922 61.4996 81Z" fill="#8EC155"/>
<path d="M61.4996 81C52.7995 74.6922 47 66.2793 47 57.0458C47 47.8114 52.7995 39.308 61.4996 33C70.2006 39.308 76 47.8114 76 57.0458C76 66.2793 70.2006 74.6922 61.4996 81Z" stroke="#F5F5F5"/>
<path d="M61.4995 34.1322C52.6565 40.7345 47.8239 48.8039 47.8239 57.057C47.8239 65.3101 52.6565 73.3794 61.4995 79.9817C70.3435 73.4713 75.1761 65.3101 75.1761 57.057C75.1761 48.8039 70.3435 40.6426 61.4995 34.1322ZM61.4995 82C61.3221 82 61.1447 81.9116 60.9664 81.8228L60.9533 81.8163C51.2892 74.8463 46 66.0441 46 57.057C46 47.978 51.2892 39.1755 60.9533 32.2067C61.2264 31.9311 61.6822 31.9311 62.0466 32.2067C71.7117 39.1755 77 47.978 77 57.057C77 66.0441 71.7117 74.8463 62.0466 81.8163C61.8639 82 61.6822 82 61.4995 82Z" fill="#101110"/>
<path d="M61.4995 34.1322C52.6565 40.7345 47.8239 48.8039 47.8239 57.057C47.8239 65.3101 52.6565 73.3794 61.4995 79.9817C70.3435 73.4713 75.1761 65.3101 75.1761 57.057C75.1761 48.8039 70.3435 40.6426 61.4995 34.1322ZM61.4995 82C61.3221 82 61.1447 81.9116 60.9664 81.8228L60.9533 81.8163C51.2892 74.8463 46 66.0441 46 57.057C46 47.978 51.2892 39.1755 60.9533 32.2067C61.2264 31.9311 61.6822 31.9311 62.0466 32.2067C71.7117 39.1755 77 47.978 77 57.057C77 66.0441 71.7117 74.8463 62.0466 81.8163C61.8639 82 61.6822 82 61.4995 82Z" stroke="#F5F5F5"/>
<path d="M61.9995 88C61.4006 88 61 87.6319 61 87.079V47.9221C61 47.3683 61.4006 47 61.9995 47C62.5994 47 63 47.3683 63 47.9221V87.079C63 87.5395 62.5003 88 61.9995 88Z" fill="#101110"/>
<path d="M61.9995 88C61.4006 88 61 87.6319 61 87.079V47.9221C61 47.3683 61.4006 47 61.9995 47C62.5994 47 63 47.3683 63 47.9221V87.079C63 87.5395 62.5003 88 61.9995 88Z" stroke="#F5F5F5"/>
<path d="M61.9184 59C61.7265 59 61.4371 58.9047 61.3416 58.8093C60.9558 58.4288 60.8604 57.8576 61.2452 57.4772L67.3099 50.3378C67.6957 49.9563 68.2725 49.8619 68.6583 50.2424C69.0431 50.6238 69.1405 51.195 68.7547 51.5746L62.689 58.7149C62.4006 58.9047 62.2078 59 61.9184 59Z" fill="#101110"/>
<path d="M61.9184 59C61.7265 59 61.4371 58.9047 61.3416 58.8093C60.9558 58.4288 60.8604 57.8576 61.2452 57.4772L67.3099 50.3378C67.6957 49.9563 68.2725 49.8619 68.6583 50.2424C69.0431 50.6238 69.1405 51.195 68.7547 51.5746L62.689 58.7149C62.4006 58.9047 62.2078 59 61.9184 59Z" stroke="#F5F5F5"/>
<path d="M61.9465 69C61.6627 69 61.4729 68.9049 61.284 68.7152C60.9053 68.3365 60.9053 67.7691 61.284 67.3886L68.3891 60.2847C68.7687 59.9051 69.3363 59.9051 69.716 60.2847C70.0947 60.6633 70.0947 61.2327 69.716 61.6113L62.6099 68.7152C62.4211 68.9049 62.1363 69 61.9465 69Z" fill="#101110"/>
<path d="M61.9465 69C61.6627 69 61.4729 68.9049 61.284 68.7152C60.9053 68.3365 60.9053 67.7691 61.284 67.3886L68.3891 60.2847C68.7687 59.9051 69.3363 59.9051 69.716 60.2847C70.0947 60.6633 70.0947 61.2327 69.716 61.6113L62.6099 68.7152C62.4211 68.9049 62.1363 69 61.9465 69Z" stroke="#F5F5F5"/>
<path d="M61.9844 65C61.696 65 61.4076 64.9057 61.2147 64.6235L55.2449 57.559C54.8601 57.1825 54.9565 56.5229 55.3414 56.2399C55.7262 55.8634 56.4004 55.9568 56.6889 56.3342L62.7551 63.3978C63.14 63.7753 63.0435 64.4348 62.6586 64.7169C62.3693 64.9057 62.1773 65 61.9844 65Z" fill="#101110"/>
<path d="M61.9844 65C61.696 65 61.4076 64.9057 61.2147 64.6235L55.2449 57.559C54.8601 57.1825 54.9565 56.5229 55.3414 56.2399C55.7262 55.8634 56.4004 55.9568 56.6889 56.3342L62.7551 63.3978C63.14 63.7753 63.0435 64.4348 62.6586 64.7169C62.3693 64.9057 62.1773 65 61.9844 65Z" stroke="#F5F5F5"/>
<path d="M62.0525 75C61.7687 75 61.5789 74.9053 61.3901 74.7152L54.284 67.6114C53.9053 67.2327 53.9053 66.6633 54.284 66.2847C54.6637 65.9051 55.2313 65.9051 55.6109 66.2847L62.716 73.3895C63.0947 73.7683 63.0947 74.3368 62.716 74.7152C62.5271 74.9053 62.2424 75 62.0525 75Z" fill="#101110"/>
<path d="M62.0525 75C61.7687 75 61.5789 74.9053 61.3901 74.7152L54.284 67.6114C53.9053 67.2327 53.9053 66.6633 54.284 66.2847C54.6637 65.9051 55.2313 65.9051 55.6109 66.2847L62.716 73.3895C63.0947 73.7683 63.0947 74.3368 62.716 74.7152C62.5271 74.9053 62.2424 75 62.0525 75Z" stroke="#F5F5F5"/>
<path d="M45.9992 74.714C45.314 74.714 44.7147 75.3135 44.7147 75.9997C44.7147 76.6849 45.314 77.286 45.9992 77.286C46.6852 77.286 47.2854 76.6849 47.2854 75.9997C47.2854 75.3135 46.6852 74.714 45.9992 74.714ZM45.9992 79C44.3712 79 43 77.6287 43 75.9997C43 74.3717 44.3712 73 45.9992 73C47.628 73 49 74.3717 49 75.9997C49 77.6287 47.628 79 45.9992 79Z" fill="#101110"/>
<path d="M45.9992 74.714C45.314 74.714 44.7147 75.3135 44.7147 75.9997C44.7147 76.6849 45.314 77.286 45.9992 77.286C46.6852 77.286 47.2854 76.6849 47.2854 75.9997C47.2854 75.3135 46.6852 74.714 45.9992 74.714ZM45.9992 79C44.3712 79 43 77.6287 43 75.9997C43 74.3717 44.3712 73 45.9992 73C47.628 73 49 74.3717 49 75.9997C49 77.6287 47.628 79 45.9992 79Z" stroke="#F5F5F5"/>
<path d="M79 40.7147C78.3148 40.7147 77.7146 41.3148 77.7146 42C77.7146 42.686 78.3148 43.2854 79 43.2854C79.686 43.2854 80.2854 42.686 80.2854 42C80.2854 41.3148 79.7719 40.7147 79 40.7147ZM79 45C77.3712 45 76 43.6279 76 42C76 40.3712 77.3712 39 79 39C80.6288 39 82 40.3712 82 42C82 43.6279 80.7146 45 79 45Z" fill="#101110"/>
<path d="M79 40.7147C78.3148 40.7147 77.7146 41.3148 77.7146 42C77.7146 42.686 78.3148 43.2854 79 43.2854C79.686 43.2854 80.2854 42.686 80.2854 42C80.2854 41.3148 79.7719 40.7147 79 40.7147ZM79 45C77.3712 45 76 43.6279 76 42C76 40.3712 77.3712 39 79 39C80.6288 39 82 40.3712 82 42C82 43.6279 80.7146 45 79 45Z" stroke="#F5F5F5"/>
<path d="M40.9991 44.7147C40.3139 44.7147 39.7146 45.3148 39.7146 46C39.7146 46.686 40.3139 47.2853 40.9991 47.2853C41.6852 47.2853 42.2853 46.686 42.2853 46C42.2853 45.3148 41.6852 44.7147 40.9991 44.7147ZM40.9991 49C39.3712 49 38 47.6279 38 46C38 44.3712 39.3712 43 40.9991 43C42.6279 43 44 44.3712 44 46C44 47.6279 42.6279 49 40.9991 49Z" fill="#101110"/>
<path d="M40.9991 44.7147C40.3139 44.7147 39.7146 45.3148 39.7146 46C39.7146 46.686 40.3139 47.2853 40.9991 47.2853C41.6852 47.2853 42.2853 46.686 42.2853 46C42.2853 45.3148 41.6852 44.7147 40.9991 44.7147ZM40.9991 49C39.3712 49 38 47.6279 38 46C38 44.3712 39.3712 43 40.9991 43C42.6279 43 44 44.3712 44 46C44 47.6279 42.6279 49 40.9991 49Z" stroke="#F5F5F5"/>
</svg>
