<svg width="37" height="33" viewBox="0 0 37 33" fill="none" xmlns="http://www.w3.org/2000/svg">
<path d="M19.0283 13.7365C21.4561 13.7365 23.4693 15.7497 23.4693 18.1775C23.4693 20.6053 21.4561 22.6178 19.0283 22.6178C16.6011 22.6178 14.5879 20.6053 14.5879 18.1775C14.5879 15.7497 16.6011 13.7365 19.0283 13.7365Z" fill="#545754"/>
<path d="M23.4695 18.1776C23.4695 15.7498 21.4563 13.7366 19.0285 13.7366C16.6013 13.7366 14.5881 15.7498 14.5881 18.1776C14.5881 20.6054 16.6013 22.6179 19.0285 22.6179C21.4563 22.6179 23.4695 20.6641 23.4695 18.1776ZM19.0285 9.29619C23.9434 9.29619 27.9099 13.2633 27.9099 18.1776C27.9099 23.0918 23.9434 27.059 19.0285 27.059C14.1142 27.059 10.1465 23.0918 10.1465 18.1776C10.1465 13.322 14.1142 9.29619 19.0285 9.29619Z" fill="#FF99A7"/>
<path d="M27.9089 18.1777C27.9089 13.2634 23.9424 9.2963 19.0275 9.2963C14.1131 9.2963 10.1455 13.2634 10.1455 18.1777C10.1455 23.0919 14.1131 27.0591 19.0275 27.0591C23.9424 27.0591 27.9089 23.0919 27.9089 18.1777ZM19.0275 4.8553C26.3697 4.8553 32.3499 10.8356 32.3499 18.1777C32.3499 25.52 26.3697 31.5001 19.0275 31.5001C11.6853 31.5001 5.70508 25.5785 5.70508 18.1777C5.70508 10.8356 11.6853 4.8553 19.0275 4.8553Z" fill="#FDE8F9"/>
<path d="M34.8965 2.66465V4.14459L30.0415 4.73656C29.4495 4.79646 28.9756 4.38185 28.9756 3.78987V2.66465V1.53942C28.9756 0.947443 29.4495 0.532824 30.0415 0.591552L34.8965 1.18411V2.66465Z" fill="#FF99A7"/>
<path d="M19.0277 5.44734C11.9815 5.44734 6.29785 11.1316 6.29785 18.1778C6.29785 25.2239 11.9815 30.9076 19.0277 30.9076C26.0733 30.9076 31.7581 25.2239 31.7581 18.1778C31.7581 11.1909 26.0733 5.44734 19.0277 5.44734ZM19.0277 32.092C11.3302 32.092 5.11328 25.8752 5.11328 18.1778C5.11328 10.4803 11.3302 4.26279 19.0277 4.26279C26.7251 4.26279 32.9427 10.4803 32.9427 18.1778C32.9427 25.8752 26.7251 32.092 19.0277 32.092Z" fill="#101110"/>
<path d="M19.0281 9.8873C14.469 9.8873 10.7387 13.6183 10.7387 18.1773C10.7387 22.7364 14.469 26.4668 19.0281 26.4668C23.5871 26.4668 27.3181 22.7364 27.3181 18.1773C27.3181 13.6183 23.5871 9.8873 19.0281 9.8873ZM19.0281 27.6512C13.8172 27.6512 9.55469 23.3882 9.55469 18.1773C9.55469 12.967 13.8172 8.70394 19.0281 8.70394C24.2384 8.70394 28.5015 12.967 28.5015 18.1773C28.5015 23.4469 24.2384 27.6512 19.0281 27.6512Z" fill="#101110"/>
<path d="M19.0281 14.329C16.8969 14.329 15.1797 16.0457 15.1797 18.1775C15.1797 20.3093 16.8969 22.0259 19.0281 22.0259C21.1593 22.0259 22.8765 20.3093 22.8765 18.1775C22.8765 16.105 21.1593 14.329 19.0281 14.329ZM19.0281 23.2106C16.245 23.2106 13.9951 20.9606 13.9951 18.1775C13.9951 15.3944 16.245 13.1445 19.0281 13.1445C21.8112 13.1445 24.0611 15.3944 24.0611 18.1775C24.0611 20.9606 21.8112 23.2106 19.0281 23.2106Z" fill="#101110"/>
<path d="M29.923 1.18396C29.7451 1.18396 29.5684 1.36191 29.5684 1.53927V3.84845C29.5684 4.08571 29.7451 4.20375 29.9824 4.20375L34.3047 3.67109V1.77594L29.923 1.18396ZM29.923 5.32898C29.0944 5.32898 28.3838 4.61837 28.3838 3.78972V1.53927C28.3838 0.710619 29.0944 1.4782e-05 29.923 1.4782e-05C29.9824 1.4782e-05 30.0417 1.4782e-05 30.101 1.4782e-05L34.956 0.591401C35.252 0.651303 35.4893 0.887975 35.4893 1.18396V4.14444C35.4893 4.44042 35.252 4.6771 34.956 4.73641L30.101 5.32898C30.0417 5.32898 29.9824 5.32898 29.923 5.32898Z" fill="#101110"/>
<path d="M17.845 5.44727C17.549 5.44727 17.3124 5.2699 17.2525 4.97333C17.1931 4.67734 17.3711 4.32262 17.7264 4.26272L28.7989 2.01286C29.0949 1.95413 29.4502 2.13149 29.509 2.48679C29.5689 2.78278 29.3909 3.13808 29.0356 3.1974L17.9037 5.44727C17.9631 5.44727 17.9037 5.44727 17.845 5.44727Z" fill="#101110"/>
<path d="M36.3772 3.2561H34.8967C34.5414 3.2561 34.3047 3.01943 34.3047 2.66472C34.3047 2.30941 34.5414 2.07274 34.8967 2.07274H36.3772C36.7325 2.07274 36.9692 2.30941 36.9692 2.66472C36.9692 2.96071 36.6732 3.2561 36.3772 3.2561Z" fill="#101110"/>
<path d="M19.3241 32.092H1.5607C1.20599 32.092 0.96875 31.8555 0.96875 31.5002C0.96875 31.1448 1.20599 30.9076 1.5607 30.9076H19.3241C19.6794 30.9076 19.9161 31.1448 19.9161 31.5002C19.9161 31.8555 19.6794 32.092 19.3241 32.092Z" fill="#101110"/>
</svg>
