<svg width="44" height="50" viewBox="0 0 44 50" fill="none" xmlns="http://www.w3.org/2000/svg">
<path d="M41.0381 10.2717C42.2223 10.2717 43.1531 11.2025 43.1531 12.3867C43.1531 13.5717 42.2223 14.5024 41.0381 14.5024C39.8531 14.5024 38.9224 13.5717 38.9224 12.3867C38.9224 11.2025 39.8531 10.2717 41.0381 10.2717Z" fill="#B79C79"/>
<path d="M2.96122 5.02589C4.14567 5.02589 5.07675 5.95662 5.07675 7.14082C5.07675 8.32586 4.14567 9.25659 2.96122 9.25659C1.77669 9.25659 0.845703 8.32586 0.845703 7.14082C0.845703 5.95662 1.77669 5.02589 2.96122 5.02589Z" fill="#B79C79"/>
<path d="M21.6617 43.0181L10.9998 48.0101C10.4927 48.2644 9.9845 48.3491 9.47734 48.3491C8.03851 48.3491 6.68487 47.5031 6.09219 45.9791C5.24605 44.0336 6.09219 41.6644 7.95392 40.8176L11.8463 38.9561L21.6617 43.0181Z" fill="#B79C79"/>
<path d="M37.0613 31.595C37.9073 33.5413 37.0613 35.9097 35.1998 36.7565L31.2226 38.5332L21.4922 34.5568L32.1533 29.564C34.0156 28.718 36.2153 29.564 37.0613 31.595Z" fill="#B79C79"/>
<path d="M37.5696 43.8641C37.5696 44.3718 37.4849 44.7948 37.3162 45.3026C36.5541 47.3336 34.4392 48.3491 32.4929 47.5031L21.5773 43.0181L11.8465 39.0409L7.86981 37.4337C6.43098 36.8412 5.50024 35.3179 5.50024 33.7947C5.50024 33.2869 5.58484 32.8647 5.75395 32.3561C6.51583 30.3251 8.6311 29.3105 10.5774 30.1565L21.4928 34.6415L31.2231 38.5331L35.2004 40.1411C36.7236 40.8176 37.5696 42.2569 37.5696 43.8641Z" fill="#A88D68"/>
<path d="M28.8537 5.87158C31.1381 7.31007 44.4236 19.9183 26.7387 28.2949C30.0387 22.8792 27.5847 15.518 21.8308 12.1333C22.2537 13.5718 21.7466 17.3795 19.2078 19.7487C19.8001 17.2947 18.3617 15.6876 18.3617 15.6876C18.3617 15.6876 17.8542 17.8873 16.0769 20.1717C14.3847 22.2019 13.2002 24.4033 15.4 28.211C8.46166 24.9102 6.59985 21.7797 7.69978 17.549C8.46166 14.4178 11.3384 11.8798 11.5925 8.74856C12.6924 10.4414 12.7773 11.6255 12.9462 13.3175C16.4152 9.76406 19.9693 5.0256 19.2078 0.710127C19.2078 0.710127 25.7232 2.40291 28.3459 10.7796C29.7852 9.68014 29.6157 7.31007 28.8537 5.87158Z" fill="#FEBE76"/>
<path d="M9.47724 49.1951C7.69977 49.1951 6.00782 48.0948 5.33079 46.3181C4.31554 43.9489 5.33079 41.1558 7.61551 40.0564L11.5076 38.1949C11.9312 38.0254 12.4387 38.1949 12.6078 38.6179C12.7773 39.0409 12.6078 39.5486 12.1845 39.7181L8.29245 41.5796C6.85396 42.2569 6.17694 44.1184 6.85397 45.6408C7.27687 46.7411 8.37672 47.4175 9.47724 47.4175C9.90023 47.4175 10.2385 47.3336 10.5772 47.1649L21.2387 42.1713C21.6616 42.0026 22.1689 42.1713 22.3385 42.5951C22.508 43.0181 22.3385 43.5259 21.9157 43.6954L11.2538 48.6873C10.7464 49.1103 10.1543 49.1951 9.47724 49.1951Z" fill="black"/>
<path d="M31.2228 39.3789C30.8846 39.3789 30.6311 39.2102 30.4616 38.872C30.2929 38.449 30.4616 37.9404 30.8846 37.7717L34.7771 35.9094C36.2156 35.2338 36.892 33.3715 36.2156 31.8491C35.8765 31.087 35.2848 30.4945 34.6076 30.241C33.9311 29.9876 33.1691 29.9876 32.4926 30.325L21.8308 35.3177C21.4078 35.4872 20.9 35.3177 20.7308 34.8947C20.5617 34.4717 20.7308 33.964 21.1537 33.7945L31.8153 28.8026C32.9156 28.2948 34.0998 28.2109 35.2848 28.7178C36.469 29.1408 37.3998 30.0715 37.9075 31.2565C38.923 33.6258 37.8228 36.418 35.6231 37.5174L31.7306 39.3789C31.4771 39.3789 31.3924 39.3789 31.2228 39.3789Z" fill="black"/>
<path d="M9.22212 30.6634C8.03767 30.6634 7.02233 31.4262 6.5991 32.6104C6.42998 32.9487 6.42998 33.3717 6.42998 33.7099C6.42998 34.9797 7.19186 36.1639 8.29171 36.5869L32.9149 46.7411C33.2532 46.9106 33.5922 46.9106 33.9304 46.9106C35.1146 46.9106 36.1301 46.1494 36.5531 44.9643C36.7227 44.6253 36.7227 44.2023 36.7227 43.8641C36.7227 42.5951 35.9606 41.4101 34.8612 40.9871L10.2378 30.8337C9.89949 30.749 9.56076 30.6634 9.22212 30.6634ZM33.9304 48.6025C33.3379 48.6025 32.8302 48.5178 32.2377 48.2643L7.61477 38.1109C5.83789 37.3489 4.73804 35.657 4.73804 33.7099C4.73804 33.1174 4.82222 32.5257 5.07634 32.0179C5.75295 30.1564 7.44524 28.9723 9.30705 28.9723C9.89948 28.9723 10.4069 29.0562 10.999 29.3105L35.6224 39.4647C37.3991 40.2259 38.4994 41.9187 38.4994 43.8641C38.4994 44.4566 38.4146 45.0483 38.1611 45.5569C37.4839 47.4175 35.7919 48.6025 33.9304 48.6025Z" fill="black"/>
<path d="M11.6763 11.2873C11.2533 12.218 10.7459 13.1479 10.238 14.0795C9.47675 15.3484 8.79947 16.5335 8.46117 17.8872C7.69929 20.8481 8.37623 23.5564 13.6226 26.5182C12.6919 23.4717 13.9609 21.4406 15.3995 19.7487C17.0918 17.7177 17.5154 15.6019 17.5154 15.6019C17.5996 15.2637 17.8537 15.0102 18.1074 14.9255C18.4458 14.8407 18.6995 14.9255 18.9535 15.1789C19.0378 15.2637 19.7151 16.0257 20.0534 17.2947C21.069 15.4332 21.3225 13.2335 21.069 12.3028C20.9842 11.9637 21.069 11.6255 21.4074 11.3712C21.6611 11.2025 22.0845 11.1177 22.338 11.2873C25.554 13.1479 27.9224 16.2792 28.7692 19.8334C29.3609 22.0331 29.277 24.2329 28.5997 26.2639C32.6609 23.8946 34.7767 21.1024 34.9462 17.8872C35.1149 13.9947 32.3227 10.187 30.2925 8.15599C30.2925 9.42579 29.7847 10.6947 28.7692 11.5407C28.5149 11.7094 28.2615 11.7094 28.0072 11.6255C27.7537 11.5407 27.5842 11.3712 27.4994 11.033C26.4839 7.73301 24.7072 5.19509 22.338 3.33277C21.492 2.74109 20.7304 2.23249 20.1384 1.97987C20.1384 5.44853 17.9383 9.42578 13.538 13.9108C13.284 14.1634 12.9457 14.249 12.6073 14.0795C12.269 13.9947 12.0998 13.6565 12.0149 13.3174C11.9307 12.641 11.8457 11.9637 11.6763 11.2873ZM26.7382 29.1409C26.4839 29.1409 26.3152 29.0561 26.1457 28.8866C25.8923 28.6339 25.8923 28.2109 26.0609 27.871C27.4147 25.6713 27.7537 23.0487 27.0765 20.3412C26.3992 17.8024 24.8768 15.4332 22.761 13.8252C22.6762 15.7714 21.8303 18.4797 19.7151 20.4251C19.4613 20.6794 19.0378 20.7642 18.6995 20.5099C18.3612 20.3412 18.192 19.9182 18.2766 19.5791C18.4458 18.9866 18.4458 18.3941 18.3612 17.9711C17.9383 18.8179 17.4304 19.7487 16.5843 20.7642C15.0612 22.6257 14.0459 24.4032 15.9918 27.871C16.1614 28.2109 16.1614 28.6339 15.9073 28.8866C15.6535 29.1409 15.2306 29.2256 14.892 29.0561C11.2533 27.3641 8.969 25.6714 7.69929 23.8099C6.43024 21.9492 6.09159 19.9182 6.68428 17.4642C7.02259 15.9401 7.86907 14.5872 8.63036 13.2335C9.56102 11.7094 10.4072 10.2718 10.4921 8.74851C10.4921 8.41029 10.7459 8.07207 11.0842 7.9873C11.4228 7.9017 11.8457 8.07207 12.0149 8.32552C12.7768 9.42579 13.1148 10.4413 13.284 11.4568C16.9226 7.31 18.5303 3.84136 18.0225 0.964378C17.9383 0.710083 18.1074 0.371855 18.2766 0.202324C18.5303 0.032793 18.7844 -0.0511341 19.0378 0.0327911C19.1227 0.0327911 20.8146 0.540539 22.9305 2.0638C24.6225 3.33276 26.7382 5.53329 28.2615 9.08672C28.515 8.15598 28.3454 7.05655 27.9224 6.37926C27.7537 6.04104 27.8385 5.61807 28.092 5.36377C28.3454 5.11032 28.7692 5.02555 29.1075 5.27901C29.9534 5.78676 31.8149 7.39478 33.5077 9.68008C34.9462 11.6255 36.6381 14.7559 36.4686 18.1415C36.2152 22.5409 33 26.2639 26.9917 29.1409C26.9917 29.0561 26.9069 29.1409 26.7382 29.1409Z" fill="black"/>
<path d="M2.96133 5.87184C2.28396 5.87184 1.69195 6.46434 1.69195 7.14079C1.69195 7.81807 2.28396 8.4106 2.96133 8.4106C3.63794 8.4106 4.23071 7.81807 4.23071 7.14079C4.23071 6.37958 3.63794 5.87184 2.96133 5.87184ZM2.96133 10.1025C1.35364 10.1025 0 8.74881 0 7.14079C0 5.5336 1.35364 4.17988 2.96133 4.17988C4.56935 4.17988 5.92266 5.5336 5.92266 7.14079C5.92266 8.74881 4.56935 10.1025 2.96133 10.1025Z" fill="black"/>
<path d="M41.0382 11.1182C40.3609 11.1182 39.7692 11.7098 39.7692 12.3871C39.7692 13.0644 40.3609 13.6569 41.0382 13.6569C41.7146 13.6569 42.3071 13.0644 42.3071 12.3871C42.3071 11.7098 41.7146 11.1182 41.0382 11.1182ZM41.0382 15.3489C39.4301 15.3489 38.0764 13.9951 38.0764 12.3871C38.0764 10.7799 39.4301 9.42621 41.0382 9.42621C42.6454 9.42621 43.9999 10.7799 43.9999 12.3871C43.9999 13.9951 42.6454 15.3489 41.0382 15.3489Z" fill="black"/>
<path d="M31.5621 2.65552C31.0543 2.65552 30.6313 2.31813 30.6313 1.81038C30.6313 1.30262 30.9696 0.964417 31.4773 0.964417H31.5621C32.0698 0.964417 32.4081 1.30262 32.4081 1.81038C32.4081 2.31813 31.9851 2.65552 31.5621 2.65552Z" fill="black"/>
<path d="M1.94646 22.7947C1.43862 22.7947 1.01538 22.4565 1.01538 21.9495C1.01538 21.4409 1.35411 21.1027 1.86153 21.1027H1.94646C2.45429 21.1027 2.7926 21.4409 2.7926 21.9495C2.7926 22.4565 2.36936 22.7947 1.94646 22.7947Z" fill="black"/>
<path d="M41.1231 25.9258C40.6162 25.9258 40.1924 25.5876 40.1924 25.0798C40.1924 24.572 40.5315 24.233 41.0392 24.233H41.1231C41.6309 24.233 41.9699 24.572 41.9699 25.0798C41.9699 25.5876 41.547 25.9258 41.1231 25.9258Z" fill="black"/>
<path d="M18.8684 27.0261C18.3609 27.0261 17.938 26.6871 17.938 26.1802C17.938 25.6716 18.2763 25.3333 18.7841 25.3333H18.8684C19.3762 25.3333 19.7149 25.6716 19.7149 26.1802C19.7149 26.6871 19.3762 27.0261 18.8684 27.0261Z" fill="black"/>
<path d="M24.1146 22.7947C23.6068 22.7947 23.1838 22.4565 23.1838 21.9495C23.1838 21.4409 23.5229 21.1027 24.0307 21.1027H24.1146C24.6223 21.1027 24.9614 21.4409 24.9614 21.9495C24.9614 22.4565 24.6223 22.7947 24.1146 22.7947Z" fill="black"/>
</svg>
