<svg width="44" height="48" viewBox="0 0 44 48" fill="none" xmlns="http://www.w3.org/2000/svg">
<path d="M41.0381 38.3318C42.2223 38.3318 43.1531 39.2619 43.1531 40.4466C43.1531 41.6308 42.2223 42.5625 41.0381 42.5625C39.8531 42.5625 38.9224 41.6308 38.9224 40.4466C38.9224 39.2619 39.8531 38.3318 41.0381 38.3318Z" fill="#F9CCD1"/>
<path d="M3.46872 21.1544C4.90755 21.1544 6.09175 22.3386 6.09175 23.8619C6.09175 25.3851 4.99215 26.5693 3.46872 26.5693C1.94589 26.5693 0.845703 25.3851 0.845703 23.8619C0.845703 22.3386 2.03048 21.1544 3.46872 21.1544Z" fill="#F9CCD1"/>
<path d="M37.3155 21.1549C38.1615 21.1549 38.9227 21.8314 38.9227 22.7621C38.9227 23.6081 38.2463 24.3701 37.3155 24.3701C36.384 24.3701 35.7075 23.6928 35.7075 22.7621C35.7923 21.9161 36.4687 21.1549 37.3155 21.1549Z" fill="#F9CCD1"/>
<path d="M21.3232 41.2925C21.831 42.6462 22.0001 44.0847 22.0001 45.6928C20.562 46.2006 19.1234 46.454 17.7694 46.3691C15.908 46.2845 14.1311 45.7777 12.6926 44.6772C11.254 43.5779 10.2387 42.1384 9.56171 40.4464C9.13881 39.0072 8.88477 37.5696 8.88477 35.9623C10.4079 35.4538 11.8464 35.2004 13.2847 35.2849C15.0619 35.3689 16.7542 35.8777 18.1927 36.977C19.7158 38.0771 20.7311 39.5157 21.3232 41.2925Z" fill="#6E9137"/>
<path d="M22.254 44.4236C22.3388 43.3234 22.5083 42.2232 22.9313 41.2924C23.5238 39.5156 24.6232 38.0771 26.0617 36.9769C27.5002 35.9622 29.193 35.3688 30.9697 35.2848C32.4082 35.2003 33.9315 35.4537 35.37 35.9622C35.37 37.5695 35.1157 39.0071 34.6927 40.3618C34.1002 42.0537 33.0007 43.5778 31.5622 44.5925C30.039 45.6927 28.3462 46.2005 26.4847 46.2844C25.131 46.2844 23.6925 46.1156 22.254 45.6077C22.1692 45.2688 22.1692 44.8458 22.254 44.4236Z" fill="#8EC155"/>
<path d="M22.2528 27.585H20.138C18.6145 27.585 17.5992 26.0625 18.1916 24.6232C18.3608 24.1155 18.6991 23.6925 19.0374 23.2695C19.1223 23.1847 19.1223 23.1847 19.2069 23.0999C20.8992 21.408 23.6913 21.4928 25.2994 23.2695C25.6376 23.6925 25.9766 24.1155 26.1453 24.5384C26.7378 25.9769 25.7223 27.501 24.1991 27.501H22.2528V27.585Z" fill="#A88D68"/>
<path d="M26.0614 9.39204C24.3694 10.5762 22.9309 11.7621 21.9999 13.7075C21.1537 11.7621 19.8847 10.5762 18.1924 9.39204C18.6999 6.17684 19.9693 3.21509 21.9999 0.84586C24.0312 3.21509 25.5545 6.17684 26.0614 9.39204Z" fill="#F25A7B"/>
<path d="M18.1925 9.39207C19.8848 10.5763 21.1538 11.7621 21.9999 13.7076C22.8463 11.7621 24.3695 10.5763 26.0615 9.39207C26.8235 8.88432 27.5847 8.46134 28.5155 8.12311C29.8692 7.61536 31.2229 7.27714 32.7462 7.27714C31.562 10.5763 32.2384 14.1305 32.5775 15.4003C32.7462 15.9081 32.7462 16.415 32.6614 16.9228C32.1536 20.477 29.1927 23.2692 25.4698 23.2692H25.3003C23.6075 21.4925 20.9001 21.4925 19.2078 23.0997C19.0383 23.1845 19.0383 23.2692 18.954 23.354H18.7C15.1462 23.354 12.2695 20.8161 11.5925 17.4305C11.4233 16.7541 11.5076 15.9929 11.7616 15.3156C12.2695 13.7923 13.0307 10.1541 11.4233 7.27714H11.5076C13.0307 7.27714 14.4693 7.53144 15.7383 8.12311C16.6694 8.46134 17.4309 8.88432 18.1925 9.39207Z" fill="#FF99A7"/>
<path d="M22.253 46.2844C21.7459 46.2844 21.4072 45.9461 21.4072 45.4393V25.4698C21.4072 24.9613 21.7459 24.623 22.253 24.623C22.7608 24.623 23.099 24.9613 23.099 25.4698V45.4393C23.099 45.9461 22.676 46.2844 22.253 46.2844Z" fill="black"/>
<path d="M23.0153 45.0161C24.1995 45.3541 25.2998 45.523 26.3992 45.439C28.1767 45.3541 29.7 44.8456 30.969 43.9148C32.2379 42.9848 33.1687 41.6302 33.7612 40.0222C34.1842 38.9229 34.3537 37.7388 34.4385 36.5537C33.2534 36.2153 32.0692 36.0459 30.8842 36.1307C29.1923 36.2153 27.7538 36.7231 26.484 37.6539C25.215 38.5846 24.1995 39.9386 23.607 41.5466C23.2688 42.4764 23.0992 43.408 23.0153 44.5073C23.0153 44.6768 23.0153 44.8456 23.0153 45.0161ZM26.1457 47.2156C24.792 47.2156 23.3535 46.9614 21.9153 46.4536C21.5766 46.3688 21.3225 46.0314 21.3225 45.6924C21.3225 45.2685 21.3225 44.8456 21.3225 44.4234C21.4074 43.2382 21.6611 42.138 21.9995 41.0378C22.6762 39.0925 23.8613 37.4844 25.4693 36.3002C26.9917 35.2001 28.7693 34.5237 30.7994 34.4378C32.3227 34.3539 33.9307 34.6073 35.5387 35.2001C35.8761 35.2846 36.1304 35.623 36.1304 35.9619C36.1304 37.6539 35.8761 39.2612 35.3692 40.6995C34.6919 42.6458 33.5077 44.2539 31.9845 45.3541C30.3764 46.5382 28.515 47.131 26.3992 47.2156C26.3153 47.2156 26.2305 47.2156 26.1457 47.2156Z" fill="black"/>
<path d="M9.72988 36.5537C9.72988 37.8227 9.98359 39.0069 10.4068 40.0222C10.9989 41.6302 11.9303 42.9848 13.1994 43.9148C14.4684 44.8456 16.0761 45.3541 17.7684 45.439C18.8683 45.439 19.9685 45.3541 21.153 45.0161C21.153 43.7461 20.8993 42.6458 20.561 41.5466C19.9685 39.9386 19.0374 38.5846 17.6835 37.6539C16.4144 36.7231 14.8917 36.2153 13.2836 36.1307C13.1144 36.1307 13.0299 36.1307 12.8607 36.1307C11.8454 36.1307 10.8301 36.3002 9.72988 36.5537ZM18.107 47.2156C18.0222 47.2156 17.8533 47.2156 17.7684 47.2156C15.7375 47.131 13.7915 46.5382 12.1837 45.3541C10.6606 44.2539 9.47642 42.6458 8.79914 40.6995C8.29164 39.2612 8.0376 37.6539 8.0376 35.9619C8.0376 35.623 8.29164 35.2846 8.63003 35.2001C10.2377 34.6922 11.8454 34.4378 13.3685 34.4378C15.3992 34.5237 17.1764 35.1151 18.6991 36.3002C20.2223 37.4844 21.4071 39.0925 22.1681 41.0378C22.6759 42.4764 22.9302 44.0005 22.9302 45.6924C22.9302 46.0314 22.6759 46.3688 22.3377 46.4536C20.8993 46.9614 19.461 47.2156 18.107 47.2156Z" fill="black"/>
<path d="M22.6764 45.9463C22.423 45.9463 22.1687 45.8614 21.9997 45.6079C21.7463 45.2689 21.8306 44.6772 22.1687 44.4238L29.5307 39.0929C29.8689 38.8384 30.4614 38.9234 30.7157 39.2617C30.9692 39.5997 30.8844 40.1931 30.5462 40.4465L23.0994 45.7778C23.0155 45.9463 22.846 45.9463 22.6764 45.9463Z" fill="black"/>
<path d="M21.5765 45.3545C21.4074 45.3545 21.3225 45.3545 21.1533 45.2689L13.7075 40.9542C13.284 40.6999 13.1997 40.193 13.3688 39.7701C13.6226 39.3462 14.1304 39.2616 14.5537 39.4312L21.9994 43.7465C22.4227 44.0008 22.5075 44.5077 22.338 44.9306C22.1685 45.2689 21.8303 45.3545 21.5765 45.3545Z" fill="black"/>
<path d="M26.0616 10.2384C25.6386 10.2384 25.3004 9.90018 25.2156 9.56196C24.7926 6.93927 23.6923 4.40051 22 2.19997C20.4773 4.23098 19.462 6.7689 19.0384 9.56196C18.9541 9.98494 18.5309 10.324 18.108 10.2384C17.6845 10.1545 17.3464 9.73149 17.431 9.3085C17.9389 5.839 19.3771 2.79248 21.408 0.338486C21.5771 0.169795 21.8309 0.0850277 22.0851 0.0850277C22.3386 0.0850277 22.5929 0.169795 22.7616 0.338486C25.0469 2.96201 26.4845 6.09329 26.9923 9.3085C27.0771 9.73149 26.7388 10.2384 26.3159 10.2384C26.1463 10.2384 26.0616 10.2384 26.0616 10.2384Z" fill="black"/>
<path d="M25.4697 24.2004H25.3001C24.7924 24.2004 24.4542 23.8622 24.4542 23.3545C24.4542 22.8467 24.7924 22.5077 25.3001 22.5077H25.4697C28.6849 22.5077 31.3923 20.1393 31.8153 16.9232C31.9001 16.5002 31.8153 16.0772 31.7306 15.6543C31.3923 14.3853 30.7998 11.3396 31.5619 8.20835C30.6311 8.29311 29.7004 8.54656 28.7696 8.88478C28.0076 9.22301 27.2464 9.64683 26.5691 10.0698C25.0467 11.1701 23.6074 12.2695 22.8461 14.0462C22.6766 14.3853 22.4232 14.5548 22.0849 14.5548C21.7465 14.5548 21.4924 14.3853 21.3229 14.0462C20.4771 12.2695 19.2926 11.1701 17.7691 10.0698C17.0922 9.56207 16.331 9.13908 15.569 8.88478C14.7232 8.54656 13.7922 8.29311 12.8615 8.20835C13.9613 11.254 13.0306 14.5548 12.6923 15.5703C12.5231 16.0772 12.4386 16.6698 12.6077 17.2614C13.2001 20.308 15.8231 22.5077 18.8691 22.5077H19.1231C19.6309 22.5077 19.9692 22.8467 19.9692 23.3545C19.9692 23.8622 19.6309 24.2004 19.1231 24.2004H18.8691C14.977 24.2004 11.6767 21.4082 10.9154 17.6005C10.7463 16.7545 10.8308 15.9086 11.0846 15.0617C11.3383 14.3005 12.4386 10.5767 10.7463 7.78452C10.5771 7.5319 10.5771 7.19284 10.7463 6.93939C10.9154 6.68509 11.1692 6.5164 11.5075 6.5164H11.5924C13.2001 6.5164 14.7232 6.76902 16.1618 7.36154C17.0922 7.7006 17.9387 8.20834 18.7848 8.80002C19.9692 9.64683 21.1537 10.5767 22.0849 12.1008C23.0996 10.7471 24.3694 9.7316 25.6384 8.80002C26.4843 8.20834 27.3312 7.78452 28.2619 7.36154C29.7004 6.76902 31.2228 6.5164 32.8308 6.5164C33.0843 6.5164 33.3386 6.68509 33.5081 6.85462C33.6768 7.02331 33.6768 7.36153 33.5929 7.61582C32.4926 10.6623 33.169 13.9623 33.4233 15.316C33.5929 15.9086 33.5929 16.585 33.5081 17.1775C32.9156 21.1548 29.4461 24.2004 25.4697 24.2004Z" fill="black"/>
<path d="M22.0846 22.8462C21.1533 22.8462 20.3075 23.1845 19.7152 23.8617C19.6306 23.8617 19.6306 23.9457 19.5456 24.0313C19.2923 24.3695 19.0378 24.7077 18.8687 25.0468C18.6995 25.4698 18.7844 25.8919 18.9535 26.231C19.2073 26.5692 19.6306 26.8235 20.0535 26.8235H24.1147C24.5386 26.8235 24.9615 26.5692 25.215 26.231C25.4693 25.8919 25.4693 25.385 25.2998 24.9612C25.1302 24.5382 24.8768 24.2 24.6225 23.9457C23.946 23.1845 23.0153 22.8462 22.0846 22.8462ZM24.1147 28.4307H20.1384C19.1227 28.4307 18.192 27.9229 17.6839 27.0769C17.0918 26.231 17.0075 25.2155 17.4304 24.2839C17.6839 23.6922 18.0225 23.1845 18.4458 22.6767C18.5303 22.5928 18.5303 22.5928 18.6149 22.5072C19.5456 21.5773 20.8147 21.0687 22.1685 21.0687C23.607 21.0687 24.9615 21.6612 25.8923 22.6767C26.3153 23.0997 26.6535 23.6922 26.907 24.2C27.3308 25.1307 27.1613 26.1462 26.6535 26.9922C26.061 27.9229 25.1302 28.4307 24.1147 28.4307Z" fill="black"/>
<path d="M5.07659 8.12305H4.99199C4.48415 8.12305 4.14551 7.78399 4.14551 7.27708C4.14551 6.76848 4.48415 6.43026 4.99199 6.43026H5.07659C5.58409 6.43026 5.92239 6.76848 5.92239 7.27708C5.92239 7.78399 5.58409 8.12305 5.07659 8.12305Z" fill="black"/>
<path d="M38.9224 12.439H38.8377C38.3308 12.439 37.9917 12.1007 37.9917 11.5921C37.9917 11.0852 38.3308 10.747 38.8377 10.747H38.9224C39.4302 10.747 39.7693 11.0852 39.7693 11.5921C39.7693 12.0151 39.4302 12.439 38.9224 12.439Z" fill="black"/>
<path d="M28.4307 3.89282H28.346C27.8391 3.89282 27.5 3.55376 27.5 3.04685C27.5 2.53826 27.8391 2.20004 28.346 2.20004H28.4307C28.9385 2.20004 29.2776 2.53826 29.2776 3.04685C29.2776 3.46984 28.9385 3.89282 28.4307 3.89282Z" fill="black"/>
<path d="M13.5382 1.69287H13.4532C12.9458 1.69287 12.6074 1.35381 12.6074 0.846061C12.6074 0.338308 12.9458 7.98702e-05 13.4532 7.98702e-05H13.5382C14.046 7.98702e-05 14.3843 0.338308 14.3843 0.846061C14.3843 1.35381 14.046 1.69287 13.5382 1.69287Z" fill="black"/>
<path d="M37.3156 22.0006C36.8918 22.0006 36.5535 22.3388 36.5535 22.7618C36.5535 23.1848 36.8918 23.523 37.3156 23.523C37.7386 23.523 38.0768 23.1848 38.0768 22.7618C38.0768 22.3388 37.7386 22.0006 37.3156 22.0006ZM37.3156 25.2158C35.961 25.2158 34.8616 24.1156 34.8616 22.7618C34.8616 21.4081 35.961 20.3078 37.3156 20.3078C38.6693 20.3078 39.7696 21.4081 39.7696 22.7618C39.7696 24.1156 38.6693 25.2158 37.3156 25.2158Z" fill="black"/>
<path d="M41.0382 39.1775C40.3609 39.1775 39.7692 39.7699 39.7692 40.4462C39.7692 41.1236 40.3609 41.7153 41.0382 41.7153C41.7146 41.7153 42.3071 41.1236 42.3071 40.4462C42.3071 39.7699 41.7146 39.1775 41.0382 39.1775ZM41.0382 43.4082C39.4301 43.4082 38.0764 42.0536 38.0764 40.4462C38.0764 38.8382 39.4301 37.4845 41.0382 37.4845C42.6454 37.4845 43.9999 38.8382 43.9999 40.4462C43.9999 42.0536 42.6454 43.4082 41.0382 43.4082Z" fill="black"/>
<path d="M3.46883 22.0004C2.45383 22.0004 1.69195 22.8464 1.69195 23.8619C1.69195 24.8774 2.53842 25.7233 3.46883 25.7233C4.39982 25.7233 5.24571 24.8774 5.24571 23.8619C5.24571 22.8464 4.48442 22.0004 3.46883 22.0004ZM3.46883 27.4153C1.52275 27.4153 0 25.8081 0 23.8619C0 21.9156 1.60768 20.3076 3.46883 20.3076C5.33056 20.3076 6.93824 21.9156 6.93824 23.8619C6.93824 25.8081 5.41549 27.4153 3.46883 27.4153Z" fill="black"/>
</svg>
