<svg width="36" height="29" viewBox="0 0 36 29" fill="none" xmlns="http://www.w3.org/2000/svg">
<path d="M4.44671 5.98904C5.31089 5.98904 5.99071 6.66886 5.99071 7.53303C5.99071 8.39781 5.31089 9.07642 4.44671 9.07642C3.58254 9.07642 2.90332 8.33596 2.90332 7.53303C2.90332 6.66886 3.58254 5.98904 4.44671 5.98904Z" fill="#FDE8F9"/>
<path d="M32.2328 9.07644C33.097 9.07644 33.7768 9.75626 33.7768 10.621C33.7768 11.4852 33.097 12.1644 32.2328 12.1644C31.368 12.1644 30.6895 11.4234 30.6895 10.621C30.6895 9.75626 31.368 9.07644 32.2328 9.07644Z" fill="#FDE8F9"/>
<path d="M9.51037 15.6224C9.13923 16.7958 8.95429 18.0924 8.83057 19.4508C11.4856 20.3149 14.6967 20.8711 18.0315 20.8711C21.4275 20.8711 24.6386 20.3774 27.3548 19.4508C27.2317 18.1542 27.0462 16.8571 26.6762 15.6836C31.9243 16.549 35.4441 18.1542 35.4441 20.0063C35.4441 22.7851 27.6641 25.8724 18.0315 25.8724C8.39818 25.8724 0.618164 22.7851 0.618164 20.0063C0.618164 18.1542 4.19979 16.4871 9.51037 15.6224Z" fill="#FF99A7"/>
<path d="M26.6767 15.6837C27.0466 16.8571 27.2322 18.1543 27.3553 19.4509C24.6391 20.3775 21.4899 20.8712 18.0319 20.8712C14.6359 20.8712 11.486 20.3775 8.83105 19.4509C8.95477 18.0925 9.13971 16.8571 9.51085 15.6224C10.9305 10.8061 14.2647 7.47129 18.0932 7.47129C21.9216 7.53314 25.2564 10.868 26.6767 15.6837Z" fill="#F25A7B"/>
<path d="M18.0312 26.4905C13.4617 26.4905 9.01594 25.8113 5.49617 24.5758C1.91454 23.3406 0 21.7353 0 20.0688C0 16.9809 6.5459 15.5606 9.38585 15.1282C9.69452 15.0669 10.0657 15.3138 10.0657 15.6224C10.1269 15.9311 9.88008 16.3016 9.57141 16.3016C3.82843 17.2277 1.23531 18.8954 1.23531 20.0688C1.23531 20.8712 2.47001 22.2296 5.92854 23.4648C9.32459 24.6378 13.5855 25.317 18.0312 25.317C22.4764 25.317 26.7373 24.6378 30.1333 23.4648C33.5919 22.2296 34.8272 20.8712 34.8272 20.0688C34.8272 18.8954 32.2334 17.2901 26.5523 16.3635C26.2436 16.3016 25.9968 15.993 26.0581 15.6837C26.1205 15.3756 26.4292 15.1282 26.7373 15.19C29.5166 15.6224 36 17.0427 36 20.1301C36 21.7971 34.0242 23.4031 30.5045 24.6378C27.0459 25.7493 22.6008 26.4905 18.0312 26.4905Z" fill="#101110"/>
<path d="M18.0312 28.96C12.9062 28.96 8.02803 28.3425 4.69322 27.169C4.38454 27.046 4.19959 26.7372 4.3227 26.3669C4.44641 26.058 4.75509 25.8726 5.12502 25.9963C8.39797 27.046 13.0912 27.7257 18.0925 27.7257C23.0332 27.7257 27.7258 27.1078 30.9987 26.058C31.3068 25.9343 31.6773 26.1193 31.801 26.4279C31.9241 26.7372 31.7392 27.1078 31.4311 27.2315C27.9726 28.3425 23.0944 28.96 18.0312 28.96Z" fill="#101110"/>
<path d="M18.0319 23.5878C13.7711 23.5878 9.75763 22.9703 6.97893 21.7968C6.67025 21.6739 6.48468 21.3026 6.60778 20.994C6.73149 20.6854 7.10205 20.5004 7.41073 20.6241C10.0663 21.6739 13.956 22.2911 18.0319 22.2911C22.1072 22.2911 25.9356 21.6739 28.5906 20.6241C28.8999 20.5004 29.2698 20.6241 29.3929 20.994C29.5172 21.3026 29.3929 21.6739 29.023 21.7968C26.2443 22.9086 22.2303 23.5878 18.0319 23.5878Z" fill="#101110"/>
<path d="M9.44698 19.0183C12.0407 19.8206 15.0044 20.2531 18.0305 20.2531C21.1179 20.2531 24.0822 19.8206 26.6753 19.0183C26.5516 17.9067 26.3666 16.8569 26.0573 15.869C24.6989 11.1764 21.5503 8.15092 18.0918 8.15092C14.6345 8.15092 11.4846 11.1764 10.1262 15.869C9.75626 16.8569 9.5707 17.9067 9.44698 19.0183ZM18.0305 21.4265C14.6957 21.4265 11.4233 20.9328 8.58279 20.0062C8.33597 19.9443 8.15039 19.6363 8.15039 19.3888C8.27411 18.0304 8.4597 16.7338 8.82962 15.4367C10.3736 10.2498 13.9546 6.85374 18.0305 6.85374C22.0439 6.85374 25.6874 10.2498 27.2308 15.4367C27.6013 16.672 27.8481 17.9685 27.9106 19.3276C27.9106 19.6363 27.7863 19.8831 27.4776 19.9443C24.6989 20.9328 21.4266 21.4265 18.0305 21.4265Z" fill="#101110"/>
<path d="M4.44651 6.6072C3.95226 6.6072 3.51987 7.03959 3.51987 7.53323C3.51987 8.02687 3.95226 8.45987 4.44651 8.45987C4.94076 8.45987 5.37254 8.02687 5.37254 7.53323C5.37254 7.03959 4.94076 6.6072 4.44651 6.6072ZM4.44651 9.69458C3.27305 9.69458 2.28516 8.70669 2.28516 7.53323C2.28516 6.36038 3.27305 5.3725 4.44651 5.3725C5.61935 5.3725 6.60723 6.36038 6.60723 7.53323C6.60723 8.70669 5.61935 9.69458 4.44651 9.69458Z" fill="#101110"/>
<path d="M32.2326 9.69424C31.7384 9.69424 31.306 10.1266 31.306 10.6209C31.306 11.1145 31.7384 11.5469 32.2326 11.5469C32.7269 11.5469 33.1586 11.1145 33.1586 10.6209C33.1586 10.1266 32.7269 9.69424 32.2326 9.69424ZM32.2326 12.7816C31.0591 12.7816 30.0713 11.7937 30.0713 10.6209C30.0713 9.44742 31.0591 8.45953 32.2326 8.45953C33.4055 8.45953 34.3934 9.44742 34.3934 10.6209C34.3934 11.7937 33.4055 12.7816 32.2326 12.7816Z" fill="#101110"/>
<path d="M21.7975 0.741119C21.6738 0.741119 21.5506 0.864224 21.5506 0.98794C21.5506 1.11104 21.6738 1.23537 21.7975 1.23537C21.9206 1.23537 22.0443 1.11104 22.0443 0.98794C22.0443 0.802979 21.9206 0.741119 21.7975 0.741119ZM21.7975 1.97644C21.242 1.97644 20.8096 1.54405 20.8096 0.98794C20.8096 0.432444 21.242 5.20945e-05 21.7975 5.20945e-05C22.353 5.20945e-05 22.7854 0.432444 22.7854 0.98794C22.8472 1.48219 22.353 1.97644 21.7975 1.97644Z" fill="#101110"/>
<path d="M11.7945 4.56924C11.6708 4.56924 11.5477 4.69235 11.5477 4.81606C11.5477 4.93917 11.6708 5.0635 11.7945 5.0635C11.9176 5.0635 12.0413 4.93917 12.0413 4.81606C12.0413 4.69235 11.9176 4.56924 11.7945 4.56924ZM11.7945 5.80457C11.2384 5.80457 10.8066 5.37217 10.8066 4.81606C10.8066 4.26057 11.2384 3.82818 11.7945 3.82818C12.35 3.82818 12.7818 4.26057 12.7818 4.81606C12.7818 5.37217 12.35 5.80457 11.7945 5.80457Z" fill="#101110"/>
</svg>
