<svg width="36" height="39" viewBox="0 0 36 39" fill="none" xmlns="http://www.w3.org/2000/svg">
<path d="M2.31137 3.10457C3.23629 3.10457 3.96288 3.83181 3.96288 4.75627C3.96288 5.68137 3.23629 6.40796 2.31137 6.40796C1.38673 6.40796 0.660141 5.68137 0.660141 4.75627C0.660141 3.83181 1.38673 3.10457 2.31137 3.10457Z" fill="#F9CCD1"/>
<path d="M27.8756 0.660647C28.8001 0.660647 29.5273 1.38723 29.5273 2.31234C29.5273 3.23679 28.8001 3.96338 27.8756 3.96338C26.9512 3.96338 26.2246 3.23679 26.2246 2.31234C26.2246 1.38723 26.9512 0.660647 27.8756 0.660647Z" fill="#F9CCD1"/>
<path d="M33.6875 15.5227C34.6127 15.5227 35.3392 16.2493 35.3392 17.1744C35.3392 18.0989 34.6127 18.8254 33.6875 18.8254C32.7631 18.8254 32.0365 18.0989 32.0365 17.1744C32.0365 16.2493 32.7631 15.5227 33.6875 15.5227Z" fill="#F9CCD1"/>
<path d="M14.0041 31.3112C15.1932 31.7737 15.7877 33.0939 15.3913 34.2837C14.929 35.4722 13.6077 36.0671 12.4189 35.6707C11.3619 35.2743 10.6353 33.3586 9.71069 32.2356C11.1636 31.9054 12.8814 30.9141 14.0041 31.3112Z" fill="#8EC155"/>
<path d="M25.1675 30.4518C24.3754 31.7064 23.8467 33.6221 22.7899 34.0847C21.6007 34.6134 20.2799 34.1509 19.7512 32.9617C19.2224 31.7732 19.7512 30.4517 20.8741 29.9237C21.8648 29.395 23.7143 30.2532 25.1675 30.4518Z" fill="#8EC155"/>
<path d="M17.5704 27.876C18.1647 27.876 18.6934 27.8099 19.2215 27.7437V36.1325C19.2215 36.5951 19.0236 36.9921 18.7596 37.3224C18.4949 37.6519 18.033 37.7849 17.5704 37.7849C16.6457 37.7849 15.9189 37.0577 15.9189 36.1325V27.7437C16.4474 27.8099 16.9758 27.876 17.5704 27.876Z" fill="#A88A69"/>
<path d="M23.7801 25.431L23.8463 25.5634C22.591 26.6863 21.0061 27.4791 19.2221 27.8093C18.694 27.8755 18.1653 27.9417 17.5711 27.9417C16.9765 27.9417 16.448 27.8755 15.9196 27.8093C14.5324 27.5453 13.2773 27.0165 12.2204 26.29C14.136 25.431 15.6551 24.4404 16.8445 23.3174C18.4955 24.4404 20.8076 25.2332 23.7801 25.431Z" fill="#F25A7B"/>
<path d="M22.9206 7.79485L16.9097 9.90845L12.8143 8.32293L19.2215 5.08637L21.2034 4.09574C21.9962 3.69936 22.9868 4.29361 22.9868 5.15254V7.79485H22.9206Z" fill="#F25A7B"/>
<path d="M27.0828 8.45484V13.8718L16.9102 9.90802L22.9211 7.86059L25.1009 7.13402C26.0922 6.73764 27.0828 7.46422 27.0828 8.45484Z" fill="#FD8493"/>
<path d="M19.1568 5.01962L12.7491 8.25684L9.71069 7.0677V3.10389C9.71069 1.58519 11.2956 0.66009 12.617 1.38668L19.1568 5.01962Z" fill="#FD8493"/>
<path d="M16.9101 9.90779L27.0827 13.8716V18.429C27.0827 21.2698 25.8281 23.7798 23.8462 25.5632L23.78 25.4309C20.8075 25.233 18.5615 24.4402 16.8443 23.3173C15.655 24.3741 14.1358 25.4309 12.2202 26.2898C9.71029 24.5726 8.05879 21.7317 8.05879 18.429V6.4072L9.71029 7.06762L12.7487 8.25676L16.9101 9.90779Z" fill="#FF99A7"/>
<path d="M17.5709 38.4443C16.3158 38.4443 15.2588 37.3875 15.2588 36.1322V27.7434C15.2588 27.347 15.5229 27.083 15.9194 27.083C16.3158 27.083 16.5799 27.347 16.5799 27.7434V36.1322C16.5799 36.6609 17.0421 37.1235 17.5709 37.1235C17.835 37.1235 18.099 36.9918 18.2975 36.8588C18.4953 36.661 18.5615 36.3963 18.5615 36.1322V27.7434C18.5615 27.347 18.8255 27.083 19.2219 27.083C19.6183 27.083 19.883 27.347 19.883 27.7434V36.1322C19.883 36.7271 19.6183 37.322 19.2219 37.7846C18.76 38.2465 18.1651 38.4443 17.5709 38.4443Z" fill="#101110"/>
<path d="M8.72001 7.39823V18.4294C8.72001 21.3364 10.1729 24.0443 12.551 25.6953C13.6077 26.4225 14.731 26.8851 15.986 27.083C16.9767 27.2808 18.0338 27.2808 19.0906 27.083C20.6762 26.8183 22.1949 26.0923 23.384 25.0355C25.2997 23.3838 26.3565 20.94 26.3565 18.4294V14.3339L16.6466 10.5024L8.72001 7.39823ZM17.5713 28.5361C16.9767 28.5361 16.3822 28.47 15.7877 28.4038C14.3345 28.1398 13.0134 27.611 11.8244 26.8183C9.05015 24.9025 7.39865 21.7983 7.39865 18.4294V6.4076C7.39865 6.20908 7.53073 6.01121 7.66275 5.87887C7.86087 5.74718 8.0592 5.74718 8.25726 5.81269L27.2155 13.2109C27.4795 13.3433 27.6119 13.5418 27.6119 13.8058V18.3632C27.6119 21.2702 26.3565 24.0442 24.1768 25.96C22.7898 27.2153 21.0725 28.0081 19.2223 28.3383C18.7604 28.47 18.1655 28.5361 17.5713 28.5361Z" fill="#101110"/>
<path d="M27.0828 14.5325C26.6864 14.5325 26.4223 14.2684 26.4223 13.872V8.45507C26.4223 8.19103 26.29 7.92699 26.0921 7.79464C25.8936 7.6623 25.6296 7.59614 25.3655 7.66231L16.9764 10.5693C16.6462 10.701 16.2498 10.5025 16.1178 10.1729C15.9857 9.84272 16.1838 9.44635 16.5142 9.31401L16.58 9.24783L24.903 6.47382C25.5634 6.2753 26.29 6.34147 26.8187 6.73785C27.413 7.13424 27.6777 7.79465 27.6777 8.45507V13.872C27.7438 14.2016 27.413 14.5325 27.0828 14.5325Z" fill="#101110"/>
<path d="M12.7487 8.91748C12.4846 8.91748 12.2865 8.78513 12.1545 8.58727C12.0221 8.25706 12.0882 7.86069 12.4186 7.72834L20.8075 3.43498C21.4018 3.17094 22.0628 3.17094 22.6571 3.5005C23.1858 3.83136 23.516 4.4256 23.516 5.08602V7.7945C23.516 8.19088 23.252 8.45492 22.8556 8.45492C22.4592 8.45492 22.1945 8.19088 22.1945 7.7945V5.08602C22.1945 4.82198 21.9967 4.68963 21.9305 4.62346C21.8643 4.55794 21.6664 4.49177 21.4018 4.62346L13.0131 8.85131C12.9468 8.91748 12.8811 8.91748 12.7487 8.91748Z" fill="#101110"/>
<path d="M9.71006 7.79443C9.31362 7.79443 9.04951 7.53041 9.04951 7.13403V3.10405C9.04951 2.17959 9.51174 1.32066 10.3043 0.85876C11.0972 0.396206 12.0879 0.396206 12.8808 0.792587L19.4864 4.35936C19.8166 4.55787 19.9489 4.95426 19.7504 5.28447C19.5526 5.61468 19.1562 5.74703 18.8253 5.54851L12.22 1.98172C11.8238 1.78321 11.3613 1.78321 10.9649 1.98172C10.5687 2.24576 10.3043 2.64215 10.3043 3.10405V7.13403C10.3706 7.46424 10.1065 7.79443 9.71006 7.79443Z" fill="#101110"/>
<path d="M2.31178 3.76537C1.78332 3.76537 1.32083 4.22727 1.32083 4.756C1.32083 5.28473 1.78332 5.74727 2.31178 5.74727C2.84005 5.74727 3.30248 5.28473 3.30248 4.756C3.30248 4.22727 2.84005 3.76537 2.31178 3.76537ZM2.31178 7.06812C1.05647 7.06812 0 6.01132 0 4.756C0 3.50068 1.05647 2.44388 2.31178 2.44388C3.56684 2.44388 4.62383 3.50068 4.62383 4.756C4.62383 6.01132 3.56684 7.06812 2.31178 7.06812Z" fill="#101110"/>
<path d="M27.8755 1.3208C27.3474 1.3208 26.8849 1.78335 26.8849 2.31208C26.8849 2.84015 27.3474 3.30271 27.8755 3.30271C28.4042 3.30271 28.8661 2.84015 28.8661 2.31208C28.8661 1.78335 28.4042 1.3208 27.8755 1.3208ZM27.8755 4.62354C26.6202 4.62354 25.5634 3.56674 25.5634 2.31208C25.5634 1.05676 26.6202 -4.00543e-05 27.8755 -4.00543e-05C29.1308 -4.00543e-05 30.1876 1.05676 30.1876 2.31208C30.1876 3.56674 29.1308 4.62354 27.8755 4.62354Z" fill="#101110"/>
<path d="M33.6878 16.1833C33.1597 16.1833 32.6972 16.6459 32.6972 17.1746C32.6972 17.7027 33.1597 18.1652 33.6878 18.1652C34.2165 18.1652 34.6791 17.7027 34.6791 17.1746C34.6791 16.6459 34.2165 16.1833 33.6878 16.1833ZM33.6878 19.4861C32.4332 19.4861 31.3764 18.4293 31.3764 17.1746C31.3764 15.9193 32.4332 14.8625 33.6878 14.8625C34.9431 14.8625 35.9999 15.9193 35.9999 17.1746C35.9999 18.4293 34.9431 19.4861 33.6878 19.4861Z" fill="#101110"/>
<path d="M3.96367 15.325H3.89736C3.50098 15.325 3.23708 15.0603 3.23708 14.6639C3.23708 14.2681 3.50098 14.0035 3.89736 14.0035H3.96367C4.36011 14.0035 4.62421 14.2681 4.62421 14.6639C4.62421 15.0603 4.29381 15.325 3.96367 15.325Z" fill="#101110"/>
<path d="M4.82194 38.4443H4.7559C4.35972 38.4443 4.09535 38.1803 4.09535 37.7846C4.09535 37.3876 4.35972 37.1235 4.7559 37.1235H4.82194C5.21806 37.1235 5.48249 37.3876 5.48249 37.7846C5.48249 38.1803 5.21806 38.4443 4.82194 38.4443Z" fill="#101110"/>
<path d="M2.37851 38.4443H2.31246C1.91602 38.4443 1.65192 38.1803 1.65192 37.7846C1.65192 37.3876 1.91602 37.1235 2.31246 37.1235H2.37851C2.77495 37.1235 3.03905 37.3876 3.03905 37.7846C3.03905 38.1803 2.70891 38.4443 2.37851 38.4443Z" fill="#101110"/>
<path d="M21.6004 30.386C21.4018 30.386 21.204 30.386 21.0723 30.4522C20.2795 30.8486 19.8831 31.8392 20.2795 32.632C20.5436 33.2269 21.1378 33.6226 21.7982 33.6226C22.0629 33.6226 22.2608 33.5564 22.4593 33.4909C22.9212 33.2924 23.3837 32.3679 23.7801 31.5752C23.9125 31.3767 23.9786 31.1788 24.1103 30.9141C23.9125 30.8486 23.6484 30.7824 23.4499 30.7824C22.7895 30.5839 22.1291 30.386 21.6004 30.386ZM21.7982 34.9441C20.6759 34.9441 19.5529 34.2837 19.0904 33.2269C18.43 31.7069 19.0242 29.9897 20.5436 29.2631C20.8738 29.1314 21.204 29.0652 21.6004 29.0652C22.2608 29.0652 23.0535 29.2631 23.7801 29.4609C24.3088 29.5933 24.7714 29.7256 25.2333 29.7911C25.4318 29.7911 25.6297 29.9897 25.762 30.1882C25.8282 30.386 25.8282 30.6501 25.6959 30.8486C25.4318 31.245 25.2333 31.7069 24.9693 32.1694C24.4412 33.2269 23.9125 34.2837 22.9874 34.7456C22.6571 34.8779 22.1946 34.9441 21.7982 34.9441Z" fill="#101110"/>
<path d="M10.7672 32.5653C10.8991 32.7631 11.0311 32.9616 11.0974 33.1602C11.5596 33.9523 12.0881 34.8112 12.6165 35.0091C12.8146 35.0759 13.013 35.1414 13.2111 35.1414C13.8716 35.1414 14.5322 34.6788 14.7305 34.0846C14.8623 33.6889 14.8623 33.2263 14.6642 32.8293C14.4664 32.4336 14.1357 32.1034 13.7396 31.971C13.6735 31.9048 13.5415 31.9048 13.4094 31.9048C12.881 31.9048 12.1544 32.1689 11.4275 32.4336C11.2294 32.4336 11.0311 32.4991 10.7672 32.5653ZM13.2111 36.4629C12.881 36.4629 12.5505 36.3961 12.2201 36.2644C11.2952 35.9342 10.6349 34.8774 10.0404 33.8206C9.77601 33.358 9.51191 32.9616 9.24775 32.5653C9.11547 32.3674 9.04969 32.1689 9.11547 31.9048C9.18177 31.7063 9.37957 31.5085 9.57789 31.5085C10.0404 31.4423 10.5029 31.2444 11.0311 31.0459C11.824 30.7819 12.6828 30.4517 13.4094 30.4517C13.6735 30.4517 14.0037 30.5178 14.202 30.5834C14.9286 30.848 15.5229 31.3761 15.8536 32.1034C16.1837 32.8293 16.2497 33.6221 15.9193 34.3486C15.5229 35.6701 14.4001 36.4629 13.2111 36.4629Z" fill="#101110"/>
<path d="M23.7799 26.092C23.7137 26.092 23.7137 26.092 23.7799 26.092C20.8736 25.8935 18.4298 25.1669 16.4478 23.8455C14.0037 22.1944 12.2201 19.6844 11.3615 16.5134C10.7009 14.1358 10.7009 12.2862 10.7009 12.1538C10.7009 11.7575 11.0311 11.4934 11.3615 11.4934C11.7579 11.4934 12.022 11.8236 12.022 12.1538C12.022 12.1538 11.956 13.9379 12.6165 16.1177C13.4752 19.024 14.9946 21.2038 17.1744 22.657C18.9578 23.8455 21.2038 24.5065 23.7799 24.705C24.1763 24.705 24.441 25.0353 24.3748 25.431C24.3748 25.828 24.1101 26.092 23.7799 26.092Z" fill="#101110"/>
<path d="M12.2202 26.8848C11.9561 26.8848 11.758 26.7524 11.6259 26.4877C11.4939 26.1575 11.6259 25.7618 11.9561 25.6295C13.6736 24.8367 15.1268 23.9122 16.3818 22.7886C20.1471 19.4204 20.609 15.4566 20.609 15.4566C20.6758 15.1263 20.9398 14.8623 21.3362 14.8623C21.6664 14.9285 21.9305 15.1925 21.9305 15.5889C21.9305 15.7868 21.4679 20.0146 17.2407 23.7799C15.8536 24.969 14.2679 26.0258 12.4846 26.8179C12.3523 26.8848 12.2865 26.8848 12.2202 26.8848Z" fill="#101110"/>
<path d="M32.0379 38.4443H7.26689C6.87051 38.4443 6.60608 38.1803 6.60608 37.7846C6.60608 37.3876 6.87051 37.1235 7.26689 37.1235H32.0379C32.4343 37.1235 32.6983 37.3876 32.6983 37.7846C32.6983 38.1803 32.3681 38.4443 32.0379 38.4443Z" fill="#101110"/>
</svg>
