<svg width="44" height="59" viewBox="0 0 44 59" fill="none" xmlns="http://www.w3.org/2000/svg">
<path d="M3.55646 46.8444C4.97856 46.8444 6.09628 47.9621 6.09628 49.3853C6.09628 50.8074 4.97856 51.925 3.55646 51.925C2.13335 51.925 1.01562 50.8074 1.01562 49.3853C1.01562 47.9621 2.13335 46.8444 3.55646 46.8444Z" fill="#FDE8F9"/>
<path d="M37.8008 43.0855C39.2229 43.0855 40.3407 44.2032 40.3407 45.6253C40.3407 47.0485 39.2229 48.1663 37.8008 48.1663C36.3777 48.1663 35.26 47.0485 35.26 45.6253C35.26 44.2032 36.3777 43.0855 37.8008 43.0855Z" fill="#FDE8F9"/>
<path d="M23.8793 39.2239C13.3118 39.2239 4.77612 30.6872 4.77612 20.1197C4.77612 9.55124 13.3118 1.1174 23.8793 1.1174C34.4478 1.1174 42.9834 9.65304 42.9834 20.2205C42.9834 30.79 34.346 39.2239 23.8793 39.2239Z" fill="#8EC155"/>
<path d="M23.8804 57.8193C23.2707 57.8193 22.8645 57.4131 22.8645 56.8032V18.6979C22.8645 18.0872 23.2707 17.681 23.8804 17.681C24.4902 17.681 24.8964 18.0872 24.8964 18.6979V56.8032C24.8964 57.3115 24.3884 57.8193 23.8804 57.8193Z" fill="black"/>
<path d="M23.8793 2.13355C13.9216 2.13355 5.79213 10.263 5.79213 20.2208C5.79213 30.1795 13.9216 38.31 23.8793 38.31C33.8381 38.31 41.9665 30.1795 41.9665 20.2208C41.9665 10.263 33.8381 2.13355 23.8793 2.13355ZM23.8793 40.2402C12.8039 40.2402 3.76025 31.1964 3.76025 20.12C3.76025 9.04451 12.8039 -9.53674e-05 23.8793 -9.53674e-05C34.9558 -9.53674e-05 43.9994 9.04451 43.9994 20.12C43.8976 31.1964 34.9558 40.2402 23.8793 40.2402Z" fill="black"/>
<path d="M26.5221 30.0784H23.8804C23.2707 30.0784 22.8645 29.6712 22.8645 29.0614C22.8645 28.4517 23.2707 28.0455 23.8804 28.0455H26.5221C27.3354 28.0455 27.9452 27.4367 27.9452 26.6234V25.3021C27.9452 24.6923 28.3513 24.2862 28.9611 24.2862C29.5709 24.2862 29.977 24.6923 29.977 25.3021V26.6234C29.977 28.5535 28.3513 30.0784 26.5221 30.0784Z" fill="black"/>
<path d="M23.8796 27.5376H21.238C18.5954 27.5376 16.5635 25.4039 16.5635 22.8631V20.2205C16.5635 19.6117 16.9697 19.2056 17.5794 19.2056C18.1892 19.2056 18.5953 19.6117 18.5953 20.2205V22.8631C18.5953 24.2862 19.8149 25.5057 21.238 25.5057H23.8796C24.4894 25.5057 24.8955 25.9119 24.8955 26.5217C24.8955 27.1314 24.3876 27.5376 23.8796 27.5376Z" fill="black"/>
<path d="M42.8822 58.0225H13.7186C13.1088 58.0225 12.7026 57.6161 12.7026 57.0063C12.7026 56.3965 13.1088 55.9913 13.7186 55.9913H42.984C43.5928 55.9913 44 56.3965 44 57.0063C43.8982 57.6161 43.492 58.0225 42.8822 58.0225Z" fill="black"/>
<path d="M3.55677 47.8607C2.74342 47.8607 2.03188 48.5722 2.03188 49.3855C2.03188 50.1989 2.74342 50.9104 3.55677 50.9104C4.36911 50.9104 5.08068 50.1989 5.08068 49.3855C5.08068 48.5722 4.36911 47.8607 3.55677 47.8607ZM3.55677 52.9414C1.62569 52.9414 0 51.3155 0 49.3855C0 47.4545 1.62569 45.8289 3.55677 45.8289C5.48684 45.8289 7.11354 47.4545 7.11354 49.3855C7.11354 51.3155 5.48684 52.9414 3.55677 52.9414Z" fill="black"/>
<path d="M37.8012 44.1011C36.9878 44.1011 36.2763 44.8126 36.2763 45.6248C36.2763 46.4382 36.9878 47.1499 37.8012 47.1499C38.6135 47.1499 39.3251 46.4382 39.3251 45.6248C39.3251 44.8126 38.7153 44.1011 37.8012 44.1011ZM37.8012 49.1819C35.8701 49.1819 34.2444 47.5551 34.2444 45.6248C34.2444 43.694 35.8701 42.0682 37.8012 42.0682C39.7312 42.0682 41.3579 43.694 41.3579 45.6248C41.3579 47.5551 39.833 49.1819 37.8012 49.1819Z" fill="black"/>
<path d="M35.4647 21.238C35.1593 21.238 34.9567 21.1372 34.7531 20.9327L32.0097 18.1902C31.6035 17.7831 31.6035 17.1733 32.0097 16.7671C32.4159 16.36 33.0256 16.36 33.4318 16.7671L36.1762 19.5106C36.5824 19.9177 36.5824 20.5265 36.1762 20.9327C35.9727 21.1372 35.6673 21.238 35.4647 21.238Z" fill="black"/>
<path d="M32.7203 21.238C32.4159 21.238 32.2123 21.1372 32.0097 20.9327C31.6035 20.5265 31.6035 19.9177 32.0097 19.5106L34.7531 16.7671C35.1593 16.36 35.7691 16.36 36.1762 16.7671C36.5824 17.1733 36.5824 17.7831 36.1762 18.1902L33.4318 20.9327C33.2292 21.1372 33.0256 21.238 32.7203 21.238Z" fill="black"/>
<path d="M27.8421 9.9585C27.5377 9.9585 27.3342 9.8567 27.1306 9.65311L24.3871 6.9097C23.981 6.50353 23.981 5.89377 24.3871 5.4876C24.7943 5.08143 25.4041 5.08143 25.8092 5.4876L28.5537 8.23101C28.9598 8.63718 28.9598 9.24694 28.5537 9.65311C28.3501 9.8567 28.0457 9.9585 27.8421 9.9585Z" fill="black"/>
<path d="M25.0987 9.9585C24.7943 9.9585 24.5907 9.8567 24.3871 9.65311C23.981 9.24694 23.981 8.63718 24.3871 8.23101L27.1306 5.4876C27.5377 5.08143 28.1475 5.08143 28.5537 5.4876C28.9598 5.89377 28.9598 6.50353 28.5537 6.9097L25.8092 9.65311C25.6067 9.8567 25.4041 9.9585 25.0987 9.9585Z" fill="black"/>
<path d="M12.6009 21.238C12.2955 21.238 12.093 21.1372 11.8894 20.9327L9.14596 18.1902C8.73878 17.7831 8.73878 17.1733 9.14596 16.7671C9.55213 16.36 10.1619 16.36 10.5681 16.7671L13.3125 19.4098C13.7187 19.8159 13.7187 20.4247 13.3125 20.8319C13.1089 21.1372 12.8045 21.238 12.6009 21.238Z" fill="black"/>
<path d="M9.85752 21.238C9.55214 21.238 9.34854 21.1372 9.14596 20.9327C8.73878 20.5265 8.73878 19.9177 9.14596 19.5106L11.8894 16.7671C12.2956 16.36 12.9053 16.36 13.3125 16.7671C13.7187 17.1733 13.7187 17.7831 13.3125 18.1902L10.5681 20.9327C10.3655 21.1372 10.1619 21.238 9.85752 21.238Z" fill="black"/>
</svg>
