<svg width="44" height="51" viewBox="0 0 44 51" fill="none" xmlns="http://www.w3.org/2000/svg">
<path d="M40.968 29.0158C42.1802 29.0158 43.1329 29.9685 43.1329 31.1815C43.1329 32.3937 42.1802 33.3464 40.968 33.3464C39.7558 33.3464 38.8022 32.3937 38.8022 31.1815C38.8022 29.9685 39.7558 29.0158 40.968 29.0158Z" fill="#FDE8F9"/>
<path d="M3.03148 37.6769C4.24365 37.6769 5.19639 38.6296 5.19639 39.8427C5.19639 41.0548 4.24365 42.0076 3.03148 42.0076C1.81845 42.0076 0.865723 41.0548 0.865723 39.8427C0.865723 38.6296 1.81845 37.6769 3.03148 37.6769Z" fill="#FDE8F9"/>
<path d="M24.6858 32.9998L25.8112 49.6292H14.9841L16.1104 34.212C17.149 35.0788 18.4488 35.5977 19.9213 35.5977C21.8276 35.5118 23.6463 34.4723 24.6858 32.9998Z" fill="#B79C79"/>
<path d="M38.8031 17.0625C38.8031 18.9688 37.5901 20.5272 35.9449 21.1337C36.3779 21.827 36.6382 22.6929 36.6382 23.5589C36.6382 25.9841 34.7319 27.8904 32.3076 27.8904C32.2208 27.8904 32.2208 27.8904 32.134 27.8904C31.6143 29.795 29.9682 31.1816 27.9769 31.1816C27.1101 31.1816 26.4168 30.9213 25.7244 30.575C25.5508 31.4401 25.2046 32.307 24.6857 33.0002C23.6462 34.5586 21.8276 35.5122 19.8345 35.5122C18.362 35.5122 17.063 34.9916 16.0235 34.1257C14.984 33.2606 14.204 32.0475 13.9454 30.6609C13.1645 31.6145 11.9523 32.2211 10.5666 32.2211C8.14142 32.2211 6.23599 30.3147 6.23599 27.8904C6.23599 26.5906 6.84248 25.3784 7.70843 24.5984C7.53576 24.5984 7.44817 24.5984 7.27549 24.5984C4.85029 24.5984 2.94482 22.6929 2.94482 20.2677C2.94482 18.7085 3.81076 17.3228 5.02379 16.5436C4.41727 15.7635 3.98433 14.8108 3.98433 13.7713C3.98433 11.3461 5.88975 9.44065 8.31495 9.44065C8.83384 9.44065 9.26771 9.52742 9.70069 9.70095C9.52716 9.09444 9.44125 8.48793 9.44125 7.88227C9.44125 4.59111 12.1259 1.9056 15.4179 1.9056C16.9763 1.9056 18.4487 2.51213 19.4882 3.55162C20.0948 1.99152 21.6531 0.866119 23.4727 0.866119C25.8979 0.866119 27.8033 2.77071 27.8033 5.19677C27.8033 5.28354 27.8033 5.3703 27.8033 5.45621C28.3231 5.28354 28.8429 5.19677 29.4494 5.19677C32.134 5.19677 34.2989 7.36166 34.2989 10.0472C34.2989 11.0867 33.9527 12.0385 33.433 12.8194C33.6933 12.7318 34.0394 12.7318 34.2989 12.7318C36.8109 12.7318 38.8031 14.724 38.8031 17.0625Z" fill="#8EC155"/>
<path d="M25.8114 50.4094H14.9844C14.7249 50.4094 14.5514 50.3227 14.3787 50.15C14.2043 49.9764 14.1184 49.7161 14.1184 49.4567L15.2438 34.0395C15.2438 33.5189 15.6768 33.1727 16.1974 33.2603C16.7163 33.2603 17.0634 33.6933 16.9766 34.2122L15.9371 48.7643H24.9446L23.9051 33.0859C23.9051 32.567 24.2522 32.2208 24.686 32.1332C25.2049 32.1332 25.5511 32.4794 25.6379 32.9133L26.7641 49.5435C26.7641 49.8029 26.6774 49.9764 26.5047 50.15C26.2444 50.3227 26.0709 50.4094 25.8114 50.4094Z" fill="black"/>
<path d="M13.9451 29.7948C14.031 29.7948 14.1178 29.7948 14.1178 29.7948C14.464 29.8815 14.7243 30.1418 14.7243 30.488C14.9838 31.6143 15.5903 32.7397 16.4571 33.433C17.3222 34.2122 18.5344 34.5584 19.6606 34.5584C21.3067 34.5584 22.865 33.7792 23.8186 32.3935C24.2516 31.787 24.5119 31.0937 24.6854 30.3145C24.7713 30.055 24.944 29.7948 25.2043 29.7089C25.4646 29.6212 25.8108 29.6212 25.9835 29.7948C26.5041 30.1418 27.1098 30.3145 27.803 30.3145C29.3623 30.3145 30.7471 29.275 31.181 27.7166C31.2677 27.2836 31.6139 27.0233 32.0469 27.0233H32.1337H32.2205C34.1259 27.0233 35.6843 25.4641 35.6843 23.5586C35.6843 22.8654 35.5116 22.1729 35.0778 21.6532C34.9051 21.3929 34.9051 21.1334 34.9919 20.874C35.0778 20.6137 35.2513 20.441 35.5116 20.3542C36.8973 19.8345 37.8501 18.5347 37.8501 17.0622C37.8501 15.1568 36.2908 13.5984 34.3862 13.5984C34.1259 13.5984 33.9524 13.5984 33.693 13.6843C33.3467 13.7711 32.9997 13.5984 32.8261 13.3381C32.6535 13.0778 32.6535 12.6457 32.8261 12.3854C33.2591 11.6921 33.5194 10.9129 33.5194 10.0469C33.5194 7.7944 31.7007 6.06249 29.535 6.06249C29.102 6.06249 28.5823 6.14926 28.1493 6.32194C27.889 6.40956 27.5427 6.40956 27.3701 6.23603C27.1098 6.06249 27.023 5.80304 27.023 5.45597C27.023 5.37006 27.023 5.28329 27.023 5.19653C27.023 3.29107 25.4646 1.73182 23.5583 1.73182C22.1726 1.73182 20.8737 2.59778 20.3539 3.89758C20.2671 4.15702 20.0069 4.33056 19.7483 4.41647C19.488 4.50324 19.1417 4.41647 18.9673 4.15702C18.0155 3.29107 16.8033 2.77047 15.5035 2.77047C12.7321 2.77047 10.3937 5.02299 10.3937 7.88203C10.3937 8.40092 10.4796 8.92152 10.6531 9.4404C10.7399 9.78662 10.6531 10.1337 10.4796 10.3064C10.2201 10.5667 9.87305 10.6526 9.61361 10.4799C9.2674 10.3931 8.9212 10.3064 8.48736 10.3064C6.5819 10.3064 5.02349 11.8656 5.02349 13.7711C5.02349 14.5503 5.28297 15.4171 5.80271 16.0227C5.97539 16.1963 6.063 16.4566 5.97537 16.716C5.97537 16.9763 5.80269 17.1498 5.54239 17.3225C4.50289 17.929 3.89641 19.0544 3.89641 20.2675C3.89641 22.1729 5.45649 23.7322 7.36195 23.7322C7.44786 23.7322 7.53546 23.7322 7.70814 23.7322C8.05435 23.7322 8.40145 23.9049 8.57499 24.2511C8.74766 24.5981 8.66087 25.032 8.31466 25.2046C7.53547 25.8971 7.10166 26.8507 7.10166 27.8025C7.10166 29.7088 8.66087 31.2672 10.5663 31.2672C11.6058 31.2672 12.5586 30.8343 13.2518 29.9683C13.5113 29.8815 13.7716 29.7948 13.9451 29.7948ZM19.8342 36.3779C18.2758 36.3779 16.7157 35.8582 15.5035 34.8187C14.6367 34.1254 14.031 33.2603 13.598 32.2208C12.7321 32.8265 11.6926 33.0859 10.6531 33.0859C7.79493 33.0859 5.45648 30.7483 5.45648 27.8902C5.45648 27.0233 5.71679 26.1574 6.14891 25.3782C3.89638 24.7717 2.25122 22.7786 2.25122 20.3542C2.25122 18.795 2.85777 17.4084 3.98403 16.4566C3.55105 15.6765 3.29072 14.8106 3.29072 13.8578C3.29072 10.9997 5.62918 8.66123 8.48736 8.66123C8.57499 8.66123 8.66088 8.66123 8.74764 8.66123C8.74764 8.40093 8.74764 8.14062 8.74764 7.88203C8.74764 4.15703 11.7785 1.03942 15.5903 1.03942C16.976 1.03942 18.2758 1.47238 19.4012 2.25158C20.3539 0.865868 21.9131 -8.7738e-05 23.7318 -8.7738e-05C26.3306 -8.7738e-05 28.4955 1.90536 28.8426 4.41647C29.102 4.41647 29.3623 4.33056 29.6217 4.33056C32.8261 4.33056 35.3381 6.92844 35.3381 10.0469C35.3381 10.6526 35.2513 11.3459 34.9919 11.9524C37.5898 12.2127 39.6688 14.4643 39.6688 17.1498C39.6688 19.0544 38.6292 20.7005 37.0709 21.6532C37.3303 22.2597 37.5038 22.953 37.5038 23.6454C37.5038 26.3301 35.4249 28.5817 32.8261 28.842C32.047 30.8342 30.1415 32.1332 27.9766 32.1332C27.3701 32.1332 26.8503 32.0473 26.3306 31.8737C26.1579 32.4794 25.8109 33.0859 25.4646 33.6057C24.1648 35.2517 22.0858 36.3779 19.8342 36.3779Z" fill="black"/>
<path d="M10.7397 18.448C10.4794 18.448 10.1332 18.2753 9.95967 18.0159C9.70023 17.5829 9.87288 17.0623 10.22 16.8029C11.2595 16.1963 11.866 15.0709 11.866 13.8579C11.866 13.6844 11.866 13.5108 11.866 13.3382C11.7784 12.9919 11.9519 12.7316 12.2122 12.4722C12.4716 12.2987 12.8178 12.2987 13.0781 12.3854C13.7714 12.7316 14.6365 12.9919 15.4174 12.9919C17.9285 12.9919 20.0067 11.1733 20.4405 8.7472C20.5273 8.31508 20.9602 7.968 21.48 8.05477C21.913 8.14068 22.2592 8.5745 22.1724 9.09425C21.6527 12.3854 18.7945 14.8106 15.4174 14.8106C14.8109 14.8106 14.1176 14.7238 13.5111 14.5503C13.3384 16.1104 12.4716 17.5829 10.9991 18.3621C10.9991 18.3621 10.8265 18.448 10.7397 18.448Z" fill="black"/>
<path d="M14.7242 27.3696H14.6365C14.2903 27.3696 14.0309 27.1093 13.945 26.7631C13.7714 26.2442 13.5111 25.8112 13.0782 25.4642C12.3849 24.8576 11.6057 24.5114 10.653 24.5114C10.5662 24.5114 10.4794 24.5114 10.3059 24.5114C9.8729 24.5114 9.44077 24.1652 9.354 23.7322C9.354 23.2125 9.7002 22.8654 10.1332 22.7787C10.3059 22.7787 10.4794 22.7787 10.653 22.7787C12.0387 22.7787 13.3385 23.2993 14.2912 24.2511C14.4639 24.4247 14.7242 24.685 14.8968 24.9444C16.1966 23.5587 18.0153 22.7787 19.9208 22.7787C21.6527 22.7787 23.3855 23.472 24.5976 24.685C24.9438 25.0321 24.9438 25.5509 24.5976 25.8971C24.2514 26.2442 23.7317 26.2442 23.3855 25.8971C22.4327 25.032 21.2197 24.5114 19.9208 24.5114C18.1021 24.5114 16.4569 25.4642 15.5901 27.0234C15.3298 27.1969 14.9836 27.3696 14.7242 27.3696Z" fill="black"/>
<path d="M29.6222 15.7637C28.063 15.7637 26.6773 15.1572 25.5511 14.1177C24.4256 12.9923 23.905 11.6065 23.905 10.0473C23.905 9.787 23.905 9.52755 23.9927 9.26811C24.0794 8.83427 24.5124 8.48807 24.9445 8.57484C25.3775 8.66161 25.7246 9.09457 25.6378 9.52755C25.6378 9.70109 25.6378 9.87377 25.6378 10.1341C25.6378 11.1736 26.0708 12.2131 26.8508 12.9923C27.63 13.7714 28.5827 14.2044 29.7081 14.2044C30.0552 14.2044 30.4014 14.2044 30.7476 14.1177C31.1815 14.0318 31.7012 14.292 31.7871 14.7242C31.8748 15.1571 31.6144 15.6769 31.1815 15.7637C30.575 15.7637 30.0552 15.7637 29.6222 15.7637Z" fill="black"/>
<path d="M28.0629 23.3855C27.977 23.3855 27.977 23.3855 27.8894 23.3855C27.3705 23.3855 27.0234 23.0393 27.0234 22.5204C27.0234 22.2601 27.1102 21.9998 27.2838 21.8271C27.8035 20.3546 28.9289 19.1416 30.489 18.6227C30.9211 18.4483 31.4409 18.7086 31.6144 19.1416C31.7871 19.5746 31.5276 20.0943 31.0947 20.2679C29.9684 20.6141 29.1892 21.5668 28.843 22.6931C28.843 23.126 28.4959 23.3855 28.0629 23.3855Z" fill="black"/>
<path d="M40.9691 29.8815C40.2758 29.8815 39.6693 30.488 39.6693 31.1813C39.6693 31.8737 40.2758 32.4794 40.9691 32.4794C41.6615 32.4794 42.268 31.8737 42.268 31.1813C42.268 30.488 41.6615 29.8815 40.9691 29.8815ZM40.9691 34.2122C39.3231 34.2122 37.9365 32.8264 37.9365 31.1813C37.9365 29.5353 39.3231 28.1487 40.9691 28.1487C42.6151 28.1487 44 29.5353 44 31.1813C44 32.8264 42.6151 34.2122 40.9691 34.2122Z" fill="black"/>
<path d="M3.03172 38.5434C2.33844 38.5434 1.73281 39.1499 1.73281 39.8432C1.73281 40.5356 2.33844 41.1421 3.03172 41.1421C3.72414 41.1421 4.33067 40.5356 4.33067 39.8432C4.33067 39.1499 3.81091 38.5434 3.03172 38.5434ZM3.03172 42.874C1.38571 42.874 0 41.4883 0 39.8432C0 38.1972 1.38571 36.8106 3.03172 36.8106C4.67773 36.8106 6.06344 38.1972 6.06344 39.8432C6.06344 41.4883 4.76364 42.874 3.03172 42.874Z" fill="black"/>
<path d="M24.6851 41.7483C24.5975 41.7483 24.5116 41.7483 24.5116 41.7483L20.1801 40.622C19.748 40.5353 19.4009 40.0155 19.5736 39.5825C19.6603 39.1496 20.1801 38.8033 20.6131 38.976L24.9438 40.1023C25.3767 40.1891 25.7238 40.7088 25.5503 41.1418C25.4644 41.488 25.1181 41.7483 24.6851 41.7483Z" fill="black"/>
</svg>
