<svg width="36" height="39" viewBox="0 0 36 39" fill="none" xmlns="http://www.w3.org/2000/svg">
<path d="M33.7416 14.9095C34.6449 14.9095 35.3555 15.6194 35.3555 16.5226C35.3555 17.4265 34.6449 18.1365 33.7416 18.1365C32.8384 18.1365 32.1284 17.4265 32.1284 16.5226C32.1284 15.6194 32.8384 14.9095 33.7416 14.9095Z" fill="#FDE8F9"/>
<path d="M32.9031 30.2056C33.8064 30.2056 34.5163 30.9149 34.5163 31.8188C34.5163 32.722 33.8064 33.4326 32.9031 33.4326C31.9999 33.4326 31.2893 32.722 31.2893 31.8188C31.2893 30.9149 31.9999 30.2056 32.9031 30.2056Z" fill="#FDE8F9"/>
<path d="M3.08432 28.5918C3.98822 28.5918 4.6975 29.3017 4.6975 30.2056C4.6975 31.1089 3.98822 31.8188 3.08432 31.8188C2.18106 31.8188 1.47046 31.1089 1.47046 30.2056C1.47046 29.3017 2.18106 28.5918 3.08432 28.5918Z" fill="#FDE8F9"/>
<path d="M7.92436 4.38893C8.82827 4.38893 9.5382 5.09887 9.5382 6.00213C9.5382 6.90604 8.82827 7.61597 7.92436 7.61597C7.0211 7.61597 6.31116 6.90604 6.31116 6.00213C6.31116 5.09887 7.0211 4.38893 7.92436 4.38893Z" fill="#FDE8F9"/>
<path d="M15.993 37.4987V38.3379L14.1852 37.2407C12.572 36.2721 11.3455 34.8529 10.7002 33.1104L0.631836 7.55148L13.6046 24.9132C15.4111 27.043 16.3157 29.754 16.1217 32.5938L15.9277 35.0462L15.993 37.4987Z" fill="#6E9137"/>
<path d="M31.289 20.5245L15.9931 38.2734V34.9824L18.4455 29.3023C19.1548 27.4305 21.0267 25.494 22.7052 24.4614L31.289 20.5245Z" fill="#8EC155"/>
<path d="M27.2872 9.03614C27.2872 6.64835 25.3514 4.77653 23.0276 4.77653C20.6392 4.77653 18.7681 6.71301 18.7681 9.03614C18.7681 11.4239 20.7039 13.2957 23.0276 13.2957C25.3514 13.2957 27.2872 11.3593 27.2872 9.03614ZM29.9983 7.16432C30.7729 7.42295 31.2889 8.19689 31.2889 9.03614C31.2889 9.87538 30.7082 10.65 29.9983 10.908C30.5143 11.5532 30.6429 12.4565 30.1916 13.1671C29.7397 13.9417 28.9011 14.2643 28.1265 14.135C28.2552 14.9096 27.9325 15.8128 27.1579 16.2001C26.3833 16.6521 25.4801 16.5228 24.8995 16.0068C24.6408 16.7814 23.8662 17.2974 23.0276 17.2974C22.1884 17.2974 21.4138 16.7167 21.1558 16.0068C20.5099 16.5228 19.6066 16.6521 18.8967 16.2001C18.1221 15.7482 17.7995 14.9096 17.9288 14.135C17.1542 14.2643 16.2503 13.9417 15.8637 13.1671C15.4111 12.3925 15.541 11.4886 16.057 10.908C15.2824 10.65 14.7664 9.87538 14.7664 9.03614C14.7664 8.19689 15.3471 7.42295 16.057 7.16432C15.541 6.51904 15.4111 5.61514 15.8637 4.90521C16.3156 4.13062 17.1542 3.80863 17.9288 3.9373C17.7995 3.16271 18.1221 2.25945 18.8967 1.87215C19.6713 1.4202 20.5752 1.54951 21.1558 2.06548C21.4138 1.29089 22.1884 0.774914 23.0276 0.774914C23.8662 0.774914 24.6408 1.35555 24.8995 2.06548C25.5447 1.54951 26.4486 1.4202 27.1579 1.87215C27.9325 2.3241 28.2552 3.16271 28.1265 3.9373C28.9011 3.80863 29.8043 4.13062 30.1916 4.90521C30.6429 5.61514 30.5143 6.51904 29.9983 7.16432Z" fill="#FF99A7"/>
<path d="M23.0281 4.7115C25.4159 4.7115 27.2877 6.64798 27.2877 8.97111C27.2877 11.3589 25.3519 13.2307 23.0281 13.2307C20.6397 13.2307 18.7685 11.2949 18.7685 8.97111C18.7039 6.64798 20.6397 4.7115 23.0281 4.7115Z" fill="#F25A7B"/>
<path d="M15.9931 38.9185C15.8638 38.9185 15.6698 38.8544 15.5411 38.7898C15.2825 38.5318 15.2185 38.1439 15.4764 37.8865L28.8365 22.396L22.9631 25.1717C21.2846 26.1397 19.6067 28.0761 19.0261 29.6893L16.5737 35.3048C16.4444 35.6274 16.0571 35.7561 15.7338 35.6274C15.4111 35.4975 15.2825 35.1108 15.4111 34.7882L17.7996 29.1734C18.5095 27.3015 20.3813 25.1717 22.3178 24.0092H22.3818L31.031 19.9436C31.2889 19.8143 31.6116 19.8789 31.8056 20.1369C31.9995 20.3955 31.9995 20.7182 31.8056 20.9761L16.4444 38.7251C16.3157 38.8544 16.1858 38.9185 15.9931 38.9185Z" fill="#101110"/>
<path d="M3.01977 11.8109L11.281 32.8522C11.9263 34.4654 13.0235 35.8206 14.508 36.6599L15.3473 37.1765V35.1107V35.046L15.5412 32.5936C15.7339 29.9478 14.8953 27.4301 13.1528 25.4296C13.1528 25.4296 13.1528 25.4296 13.1528 25.365L3.01977 11.8109ZM15.9932 38.9183C15.8639 38.9183 15.7339 38.9183 15.6699 38.8543L13.8634 37.7571C12.1843 36.7239 10.829 35.1754 10.0545 33.3035L0.0507291 7.8093C-0.0785825 7.48666 0.0507317 7.16401 0.309355 7.03534C0.567338 6.90603 0.953999 6.97069 1.14797 7.22867L14.1214 24.5904C16.0572 26.8495 17.0251 29.7539 16.8318 32.7223L16.6378 35.1754V38.4024C16.6378 38.6604 16.5085 38.8543 16.3158 38.9836C16.1859 38.9183 16.0572 38.9183 15.9932 38.9183Z" fill="#101110"/>
<path d="M32.9029 30.8513C32.3863 30.8513 31.9344 31.3033 31.9344 31.8193C31.9344 32.3359 32.3863 32.7872 32.9029 32.7872C33.4189 32.7872 33.8702 32.3359 33.8702 31.8193C33.8702 31.3033 33.4836 30.8513 32.9029 30.8513ZM32.9029 34.0784C31.6764 34.0784 30.6432 33.0452 30.6432 31.8193C30.6432 30.5927 31.6764 29.5602 32.9029 29.5602C34.1288 29.5602 35.1614 30.5927 35.1614 31.8193C35.1614 33.0452 34.1935 34.0784 32.9029 34.0784Z" fill="#101110"/>
<path d="M7.92408 5.03395C7.40811 5.03395 6.95615 5.4859 6.95615 6.00187C6.95615 6.51848 7.40811 6.97042 7.92408 6.97042C8.44068 6.97042 8.89263 6.51848 8.89263 6.00187C8.89263 5.4859 8.44068 5.03395 7.92408 5.03395ZM7.92408 8.26099C6.69818 8.26099 5.66559 7.22841 5.66559 6.00187C5.66559 4.77597 6.69818 3.74276 7.92408 3.74276C9.15062 3.74276 10.1832 4.77597 10.1832 6.00187C10.1832 7.22841 9.15062 8.26099 7.92408 8.26099Z" fill="#101110"/>
<path d="M33.7408 15.5545C33.2248 15.5545 32.7729 16.0064 32.7729 16.5224C32.7729 17.039 33.2248 17.4909 33.7408 17.4909C34.2574 17.4909 34.7093 17.039 34.7093 16.5224C34.7093 16.0064 34.2574 15.5545 33.7408 15.5545ZM33.7408 18.7815C32.5142 18.7815 31.4823 17.7489 31.4823 16.5224C31.4823 15.2965 32.5142 14.2639 33.7408 14.2639C34.9673 14.2639 35.9999 15.2965 35.9999 16.5224C35.9999 17.7489 34.9673 18.7815 33.7408 18.7815Z" fill="#101110"/>
<path d="M3.08449 29.2376C2.56789 29.2376 2.11657 29.6895 2.11657 30.2061C2.11657 30.7221 2.56789 31.174 3.08449 31.174C3.60046 31.174 4.05239 30.7221 4.05239 30.2061C4.05239 29.6895 3.60046 29.2376 3.08449 29.2376ZM3.08449 32.4646C1.85859 32.4646 0.825378 31.432 0.825378 30.2061C0.825378 28.9796 1.85859 27.947 3.08449 27.947C4.31103 27.947 5.34358 28.9796 5.34358 30.2061C5.34358 31.432 4.31103 32.4646 3.08449 32.4646Z" fill="#101110"/>
<path d="M25.6737 38.9185H7.92409C7.53744 38.9185 7.27881 38.6605 7.27881 38.2732C7.27881 37.8865 7.53744 37.6285 7.92409 37.6285H25.6737C26.0604 37.6285 26.319 37.8865 26.319 38.2732C26.319 38.6605 25.9964 38.9185 25.6737 38.9185Z" fill="#101110"/>
<path d="M23.0274 5.3569C21.0263 5.3569 19.4125 6.97073 19.4125 8.97122C19.4125 10.9717 21.0263 12.5855 23.0274 12.5855C25.0279 12.5855 26.6411 10.9717 26.6411 8.97122C26.6411 6.97073 25.0279 5.3569 23.0274 5.3569ZM23.0274 13.9414C20.317 13.9414 18.1219 11.7463 18.1219 9.03588C18.1219 6.32545 20.317 4.13037 23.0274 4.13037C25.7378 4.13037 27.9323 6.32545 27.9323 9.03588C27.9323 11.7463 25.7378 13.9414 23.0274 13.9414Z" fill="#101110"/>
<path d="M21.156 15.3605C21.2207 15.3605 21.2847 15.3605 21.35 15.3605C21.5433 15.4251 21.7367 15.5544 21.8013 15.7478C21.9953 16.2644 22.5112 16.6517 23.0925 16.6517C23.6731 16.6517 24.1891 16.2644 24.3831 15.7478C24.4477 15.5544 24.641 15.4251 24.835 15.3605C25.0283 15.2965 25.2863 15.3605 25.4156 15.4898C25.6743 15.6838 25.9969 15.8124 26.2549 15.8124C26.5129 15.8124 26.7068 15.7478 26.9002 15.6191C27.4161 15.3605 27.6747 14.7798 27.5461 14.1992C27.4808 14.0053 27.5461 13.7473 27.7388 13.618C27.8681 13.4893 28.1267 13.4246 28.3207 13.4246C28.3847 13.4246 28.4493 13.4246 28.5787 13.4246C29.03 13.4246 29.4819 13.1667 29.7399 12.7794C29.9985 12.2628 29.9985 11.6821 29.6112 11.2302C29.4819 11.0369 29.4173 10.8429 29.4819 10.6496C29.5466 10.4556 29.6759 10.2623 29.8686 10.1976C30.3852 10.0036 30.7731 9.48767 30.7731 8.90641C30.7731 8.32579 30.3852 7.80919 29.8686 7.61586C29.6759 7.5512 29.5466 7.35723 29.4819 7.16391C29.4173 6.96994 29.4819 6.71259 29.6112 6.58328C29.9985 6.13133 30.0625 5.55071 29.7399 5.0341C29.4819 4.64681 29.03 4.38882 28.5787 4.38882C28.5134 4.38882 28.3847 4.38882 28.3207 4.38882C28.1267 4.45348 27.8681 4.38883 27.7388 4.19487C27.6101 4.00154 27.5461 3.80821 27.5461 3.61424C27.6747 3.03362 27.4161 2.51702 26.9002 2.19438C26.7068 2.06507 26.4488 2.00041 26.2549 2.00041C25.9322 2.00041 25.6096 2.12972 25.4156 2.32369C25.2223 2.45236 25.0283 2.517 24.835 2.45235C24.641 2.38769 24.4477 2.25903 24.3831 2.06506C24.1891 1.5491 23.6731 1.1618 23.0925 1.1618C22.5112 1.1618 21.9953 1.5491 21.8013 2.06506C21.7367 2.25903 21.5433 2.38769 21.35 2.45235C21.156 2.517 20.8981 2.45236 20.7687 2.32369C20.5101 2.12972 20.1875 2.00041 19.9295 2.00041C19.6715 2.00041 19.4782 2.06507 19.2842 2.19438C18.7682 2.45236 18.5096 3.03362 18.6383 3.61424C18.7036 3.80821 18.6383 4.06619 18.4456 4.19487C18.3163 4.32418 18.0577 4.38882 17.865 4.38882C17.7997 4.38882 17.671 4.38882 17.6063 4.38882C17.1544 4.38882 16.7025 4.64681 16.4445 5.0341C16.1858 5.55071 16.2505 6.13133 16.5738 6.58328C16.7025 6.77661 16.7671 6.96994 16.7025 7.16391C16.6378 7.35723 16.5085 7.5512 16.3158 7.61586C15.7992 7.80919 15.4112 8.32579 15.4112 8.90641C15.4112 9.48767 15.7992 10.0036 16.3158 10.1976C16.5085 10.2623 16.6378 10.4556 16.7025 10.6496C16.7671 10.8429 16.7025 11.1009 16.5738 11.2302C16.1858 11.6821 16.1218 12.2628 16.4445 12.7794C16.7025 13.1667 17.1544 13.4246 17.6063 13.4246C17.671 13.4246 17.7997 13.4246 17.865 13.4246C18.0577 13.36 18.3163 13.4246 18.4456 13.618C18.5743 13.7473 18.6383 14.0053 18.6383 14.1992C18.5096 14.7798 18.7682 15.2965 19.2842 15.6191C19.4782 15.7478 19.7362 15.8124 19.9295 15.8124C20.2528 15.8124 20.5754 15.6838 20.7687 15.4898C20.8334 15.3605 20.9621 15.3605 21.156 15.3605ZM23.0278 17.9429C22.1886 17.9429 21.414 17.5556 20.898 16.9096C20.5754 17.039 20.1875 17.1036 19.8655 17.1036C19.4129 17.1036 18.9616 16.9743 18.5743 16.781C17.865 16.329 17.3484 15.6191 17.2831 14.7798C16.4445 14.7152 15.7339 14.1992 15.2826 13.4893C14.8306 12.7794 14.8306 11.8755 15.1533 11.1009C14.508 10.5849 14.1213 9.81031 14.1213 8.97107C14.1213 8.13182 14.508 7.35723 15.1533 6.84126C14.8306 6.06667 14.8953 5.22743 15.2826 4.45348C15.6699 3.7429 16.4445 3.22694 17.2831 3.16229C17.3484 2.32368 17.865 1.61311 18.5743 1.1618C18.9616 0.903173 19.4129 0.839155 19.8655 0.839155C20.2528 0.839155 20.5754 0.903172 20.898 1.03248C21.414 0.387205 22.1886 -8.2016e-05 23.0278 -8.2016e-05C23.8664 -8.2016e-05 24.641 0.387205 25.1576 1.03248C25.4803 0.903172 25.8676 0.839155 26.1902 0.839155C26.6415 0.839155 27.0935 0.967829 27.4808 1.1618C28.1907 1.61311 28.7073 2.32368 28.772 3.16229C29.6106 3.22694 30.3211 3.7429 30.7731 4.45348C31.225 5.16341 31.225 6.06667 30.9018 6.84126C31.5477 7.35723 31.9344 8.13182 31.9344 8.97107C31.9344 9.81031 31.5477 10.5849 30.9018 11.1009C31.225 11.8755 31.1598 12.7147 30.7731 13.4893C30.3852 14.1992 29.6106 14.7152 28.772 14.7798C28.7073 15.6191 28.1907 16.329 27.4808 16.781C27.0935 17.039 26.6415 17.1036 26.1902 17.1036C25.8029 17.1036 25.4803 17.039 25.1576 16.9096C24.641 17.5556 23.8664 17.9429 23.0278 17.9429Z" fill="#101110"/>
<path d="M16.7664 32.4646C16.4438 32.4646 16.1211 32.2066 16.1211 31.884C15.2819 18.2659 18.1216 15.8775 18.4449 15.6842L19.1542 16.7814C19.1542 16.7814 16.5078 19.0399 17.3477 31.884C17.4763 32.142 17.1537 32.4646 16.7664 32.4646Z" fill="#101110"/>
<path d="M15.9925 38.1438C15.7333 38.1438 15.4759 38.0151 15.4106 37.7571L11.345 28.0761C11.2163 27.7528 11.345 27.3655 11.6676 27.2368C11.9909 27.1075 12.3776 27.2368 12.5063 27.5595L16.5732 37.2405C16.7018 37.5632 16.5732 37.9505 16.2499 38.0798C16.1212 38.0798 16.0566 38.1438 15.9925 38.1438Z" fill="#101110"/>
</svg>
