<svg width="44" height="37" viewBox="0 0 44 37" fill="none" xmlns="http://www.w3.org/2000/svg">
<path d="M23.9932 0.789249C32.4381 0.789249 39.3042 4.02459 39.3042 8.68153C39.3042 13.3385 32.4381 17.6001 23.9932 17.6001C15.5474 17.6001 8.6814 13.3385 8.6814 8.68153C8.6814 4.02459 15.5474 0.789249 23.9932 0.789249Z" fill="#A28671"/>
<path d="M16.5734 35.3577H4.73496L6.55029 32.2006C7.49749 30.5426 8.12845 28.8071 8.44471 26.991L0.788818 17.5996V13.6535L8.6811 18.5468V8.68106C8.6811 13.338 15.5471 17.5996 23.9929 17.5996C32.4378 17.5996 39.3039 13.338 39.3039 8.68106V24.0711C39.3039 26.9127 40.0139 29.7543 41.4347 32.2006L43.25 35.3577H30.3853H21.5458H16.5734Z" fill="#A88D68"/>
<path d="M43.2503 36.1472H4.73522C4.41974 36.1472 4.18255 35.9891 4.0252 35.7527C3.86708 35.5155 3.86708 35.2008 4.0252 34.9636L5.84055 31.8065C6.62963 30.3857 7.26135 28.8076 7.57682 27.1496L0.157346 18.0737C0.0790646 17.9163 0 17.7574 0 17.6001V13.6539C0 13.3385 0.157348 13.1013 0.394539 12.9432C0.630948 12.7858 0.947209 12.7858 1.18362 12.9432L7.8923 17.0474V8.68153C7.8923 8.20793 8.20776 7.89247 8.68136 7.89247C9.15496 7.89247 9.47044 8.20793 9.47044 8.68153V18.4682C9.47044 18.7837 9.31309 19.0209 9.0759 19.1782C8.83949 19.3364 8.52324 19.3364 8.28684 19.1782L1.57814 15.0748V17.3629L8.99683 26.5187C9.15496 26.676 9.23402 26.9132 9.15496 27.1496C8.83949 29.1231 8.1287 30.9376 7.1815 32.6747L6.07696 34.6481H41.8295L40.7249 32.6747C39.225 30.0703 38.436 27.1496 38.436 24.1507V8.68153C38.436 8.20793 38.7515 7.89247 39.2251 7.89247C39.6987 7.89247 40.0141 8.20793 40.0141 8.68153V24.0716C40.0141 26.7551 40.7249 29.4385 42.0667 31.8065L43.882 34.9636C44.0393 35.2008 44.0393 35.5155 43.882 35.7527C43.8029 35.9891 43.4867 36.1472 43.2503 36.1472Z" fill="black"/>
<path d="M23.9934 1.57807C15.8639 1.57807 9.47072 4.73514 9.47072 8.68129C9.47072 10.654 10.9706 12.6274 13.575 14.2056C16.4166 15.8628 20.1263 16.81 23.9934 16.81C27.8605 16.81 31.5695 15.8628 34.4111 14.2056C37.0155 12.6274 38.5153 10.654 38.5153 8.68129C38.5153 4.73514 32.1221 1.57807 23.9934 1.57807ZM23.9934 18.3889C15.3113 18.3889 7.89258 13.9692 7.89258 8.68129C7.89258 6.15594 9.62885 3.86701 12.7859 2.28887C15.7058 0.789001 19.6527 -7.05719e-05 23.9934 -7.05719e-05C28.3341 -7.05719e-05 32.2012 0.789001 35.121 2.28887C38.2789 3.86701 40.0144 6.15594 40.0144 8.68129C40.0935 13.9692 32.6748 18.3889 23.9934 18.3889Z" fill="black"/>
<path d="M23.9932 14.9954C23.5196 14.9954 23.2033 14.6799 23.2033 14.2055C23.2033 13.7327 23.5196 13.4164 23.9932 13.4164C28.7284 13.4164 32.28 11.0492 32.28 8.91761C32.28 7.57588 30.8592 6.62946 30.0702 6.23492C28.492 5.44507 26.3604 4.97147 23.9932 4.97147C21.6252 4.97147 19.4944 5.44507 17.9155 6.23492C17.0473 6.62946 15.7056 7.57588 15.7056 8.91761C15.7056 9.39121 15.3901 9.70669 14.9165 9.70669C14.4429 9.70669 14.1274 9.39121 14.1274 8.91761C14.1274 7.2604 15.2328 5.84039 17.2055 4.81334C19.0208 3.94599 21.388 3.39332 23.9932 3.39332C26.5976 3.39332 28.9656 3.86693 30.7802 4.81334C32.7536 5.84039 33.859 7.2604 33.859 8.91761C33.859 10.4965 32.7536 12.1537 30.7802 13.2583C28.9656 14.3636 26.5185 14.9954 23.9932 14.9954Z" fill="black"/>
<path d="M23.9937 11.9956C21.5466 11.9956 19.4949 10.6539 19.4949 9.07572C19.4949 7.49757 21.3885 6.39224 23.9937 6.39224C24.4673 6.39224 24.7828 6.70772 24.7828 7.18211C24.7828 7.65492 24.4673 7.9704 23.9937 7.9704C22.2566 7.9704 21.073 8.60212 21.073 9.07572C21.073 9.62838 22.2566 10.4175 23.9937 10.4175C25.73 10.4175 26.9136 9.62838 26.9136 9.07572C26.9136 8.60212 27.229 8.28664 27.7026 8.28664C28.1762 8.28664 28.4925 8.60212 28.4925 9.07572C28.4925 10.6539 26.44 11.9956 23.9937 11.9956Z" fill="black"/>
<path d="M30.3866 36.1472C30.3075 36.1472 30.1502 36.1472 30.0711 36.0682C29.6766 35.9108 29.5184 35.4364 29.6766 35.0419C29.6766 35.0419 31.0974 31.8065 30.6238 28.5704C30.0711 24.8614 31.5702 21.3881 31.6493 21.2308C31.8074 20.8362 32.281 20.6781 32.6755 20.8362C33.07 20.9936 33.2282 21.468 33.07 21.8625C33.07 21.8625 31.6493 25.0978 32.1229 28.334C32.6755 32.0429 31.1756 35.5155 31.0974 35.6736C31.0183 35.9891 30.702 36.1472 30.3866 36.1472Z" fill="black"/>
<path d="M16.5736 36.1472C16.3372 36.1472 16.1008 36.0682 15.9426 35.8317C15.7845 35.6736 12.7065 31.412 13.8118 26.2815C14.759 22.0198 13.101 20.2045 13.022 20.1254L13.5746 19.5736L14.1273 19.0209C14.2064 19.0992 16.4945 21.468 15.3109 26.676C14.2854 31.0957 17.1262 34.8845 17.1262 34.8845C17.3634 35.2008 17.2844 35.7527 16.9681 35.9891C16.8898 36.0682 16.7317 36.1472 16.5736 36.1472Z" fill="black"/>
<path d="M21.5461 36.1472C21.388 36.1472 21.2306 36.1472 21.1516 36.0682C20.757 35.8317 20.678 35.3581 20.9144 34.9636C23.835 30.3067 20.9144 24.9397 20.9144 24.9397C20.678 24.5452 20.8361 24.0716 21.2306 23.8352C21.6252 23.598 22.0988 23.7553 22.3352 24.1507C22.4933 24.3871 25.6504 30.3067 22.3352 35.8317C22.0197 35.9891 21.7833 36.1472 21.5461 36.1472Z" fill="black"/>
</svg>
