<svg width="36" height="36" viewBox="0 0 36 36" fill="none" xmlns="http://www.w3.org/2000/svg">
<path d="M7.97735 4.31344C8.80488 4.31344 9.45426 4.9634 9.45426 5.79093C9.45426 6.61787 8.80488 7.26782 7.97735 7.26782C7.15041 7.26782 6.49988 6.61787 6.49988 5.79093C6.49988 4.9634 7.15041 4.31344 7.97735 4.31344Z" fill="#F2E8D1"/>
<path d="M2.06805 23.5171C2.89558 23.5171 3.54494 24.167 3.54494 24.9945C3.54494 25.8221 2.89558 26.4714 2.06805 26.4714C1.24052 26.4714 0.590576 25.8221 0.590576 24.9945C0.590576 24.167 1.24052 23.5171 2.06805 23.5171Z" fill="#F2E8D1"/>
<path d="M30.9038 27.9488C31.7313 27.9488 32.3813 28.5988 32.3813 29.4257C32.3813 30.2533 31.7313 30.9038 30.9038 30.9038C30.0763 30.9038 29.4269 30.2533 29.4269 29.4257C29.4269 28.5988 30.0763 27.9488 30.9038 27.9488Z" fill="#F2E8D1"/>
<path d="M30.9038 0.591029C31.7313 0.591029 32.3813 1.24099 32.3813 2.06852C32.3813 2.89605 31.7313 3.54541 30.9038 3.54541C30.0763 3.54541 29.4269 2.89605 29.4269 2.06852C29.4269 1.24099 30.0763 0.591029 30.9038 0.591029Z" fill="#F2E8D1"/>
<path d="M15.3633 31.8487C15.3633 32.1447 15.3633 32.3808 15.3633 32.6762C14.3587 33.0308 13.3542 33.1492 12.4089 33.1492C11.109 33.0894 9.8683 32.7354 8.86377 31.9671C7.85867 31.1993 7.15011 30.1948 6.67715 29.0127C6.32258 28.0674 6.145 27.0628 6.20477 25.9399C7.2679 25.5854 8.27243 25.4084 9.27696 25.467C10.5177 25.5262 11.6998 25.8808 12.7043 26.6491C13.7088 27.4168 14.4771 28.4214 14.8903 29.6035C15.1271 30.3126 15.3041 31.0217 15.3633 31.8487Z" fill="#8EC155"/>
<path d="M24.9952 21.0355C24.9952 22.0986 24.8176 23.1629 24.5222 24.1083C24.1084 25.2898 23.3407 26.2943 22.3362 27.0626C21.2725 27.8304 20.0909 28.1849 18.791 28.2441C17.8451 28.2441 16.8412 28.1258 15.8367 27.7718C15.8367 26.7075 15.9545 25.7035 16.309 24.7576C16.7228 23.5767 17.4906 22.5124 18.4951 21.8038C19.5002 21.0947 20.6817 20.6809 21.9224 20.6217C22.8677 20.5033 23.9315 20.6809 24.9952 21.0355Z" fill="#8EC155"/>
<path d="M24.8764 9.33613C23.8719 9.09994 23.2811 8.09542 23.5173 7.09089C23.7535 6.08637 24.7586 5.49562 25.7631 5.7318C26.7671 5.96799 27.3584 6.9725 27.1216 7.97702C27.0038 8.44998 26.7085 8.86375 26.2947 9.09994C25.8217 9.39532 25.3494 9.45451 24.8764 9.33613Z" fill="#FDE8F9"/>
<path d="M31.0808 12.2905C32.0267 13.8266 31.7899 15.6586 30.6084 16.3678C29.4269 17.0769 27.7132 16.427 26.7673 14.8903C25.8812 13.472 26.4133 11.109 26.2357 9.15913C27.831 10.1631 30.2538 10.8722 31.0808 12.2905Z" fill="#F37D79"/>
<path d="M32.6765 6.79554C34.3896 7.20872 35.5716 8.627 35.2171 9.98609C34.8625 11.3452 33.208 12.0543 31.4944 11.6406C29.8991 11.2268 28.54 9.21834 27.0631 7.97705C28.9538 7.56329 31.1398 6.38178 32.6765 6.79554Z" fill="#FF99A7"/>
<path d="M24.8768 9.33624C25.2906 11.1683 26.4727 13.3543 26.0589 14.9496C25.6452 16.6633 24.2269 17.8448 22.8678 17.4902C21.5087 17.1948 20.7996 15.4817 21.2133 13.7681C21.5679 12.1728 23.6361 10.8723 24.8768 9.33624Z" fill="#FF99A7"/>
<path d="M30.9036 28.54C30.4306 28.54 30.0174 28.9538 30.0174 29.4261C30.0174 29.8991 30.4306 30.3129 30.9036 30.3129C31.3765 30.3129 31.7897 29.8991 31.7897 29.4261C31.7897 28.9538 31.3765 28.54 30.9036 28.54ZM30.9036 31.4944C29.7812 31.4944 28.8353 30.5491 28.8353 29.4261C28.8353 28.3038 29.7812 27.3585 30.9036 27.3585C32.0265 27.3585 32.9718 28.3038 32.9718 29.4261C32.9718 30.5491 32.0265 31.4944 30.9036 31.4944Z" fill="#101110"/>
<path d="M7.97753 4.90442C7.50515 4.90442 7.0914 5.31819 7.0914 5.79115C7.0914 6.26411 7.50515 6.67728 7.97753 6.67728C8.45048 6.67728 8.86426 6.26411 8.86426 5.79115C8.86426 5.259 8.50968 4.90442 7.97753 4.90442ZM7.97753 7.85938C6.85462 7.85938 5.9093 6.91406 5.9093 5.79115C5.9093 4.66824 6.85462 3.72291 7.97753 3.72291C9.10043 3.72291 10.0458 4.66824 10.0458 5.79115C10.0458 6.91406 9.15963 7.85938 7.97753 7.85938Z" fill="#101110"/>
<path d="M30.9036 1.18211C30.4306 1.18211 30.0174 1.59529 30.0174 2.06825C30.0174 2.54121 30.4306 2.95438 30.9036 2.95438C31.3765 2.95438 31.7897 2.54121 31.7897 2.06825C31.7897 1.59529 31.3765 1.18211 30.9036 1.18211ZM30.9036 4.13647C29.7812 4.13647 28.8353 3.19057 28.8353 2.06825C28.8353 0.945343 29.7812 1.14441e-05 30.9036 1.14441e-05C32.0265 1.14441e-05 32.9718 0.945343 32.9718 2.06825C32.9718 3.19057 32.0265 4.13647 30.9036 4.13647Z" fill="#101110"/>
<path d="M2.06824 24.1086C1.59528 24.1086 1.1821 24.5218 1.1821 24.9947C1.1821 25.4671 1.59528 25.8809 2.06824 25.8809C2.5412 25.8809 2.95437 25.4671 2.95437 24.9947C2.95437 24.5218 2.5998 24.1086 2.06824 24.1086ZM2.06824 27.063C0.945331 27.063 0 26.1177 0 24.9947C0 23.8724 0.945331 22.9265 2.06824 22.9265C3.19056 22.9265 4.13648 23.8724 4.13648 24.9947C4.13648 26.1177 3.25034 27.063 2.06824 27.063Z" fill="#101110"/>
<path d="M24.9946 8.74563C25.29 8.80482 25.6446 8.74562 25.9399 8.56804C26.2353 8.39105 26.4129 8.09567 26.4721 7.80029C26.6491 7.15034 26.2353 6.4412 25.5262 6.26421C25.4084 6.26421 25.3492 6.20501 25.2308 6.20501C24.64 6.20501 24.1671 6.6182 24.0493 7.15035C23.9309 7.9181 24.3447 8.62724 24.9946 8.74563ZM25.29 9.98633C25.1124 9.98633 24.9354 9.98633 24.7584 9.92713C23.4579 9.63176 22.631 8.27267 22.9856 6.97277C23.2218 5.85045 24.2263 5.1413 25.3492 5.1413C25.5262 5.1413 25.7629 5.1413 25.9399 5.2005C27.2398 5.49587 28.0674 6.85438 27.7128 8.15486C27.5352 8.80481 27.1807 9.33638 26.6491 9.63175C26.1761 9.86853 25.763 9.98633 25.29 9.98633Z" fill="#101110"/>
<path d="M28.2442 8.27233C28.4803 8.5091 28.7171 8.74529 28.9533 8.98147C29.8394 9.8682 30.7256 10.8135 31.6123 11.0497C31.9077 11.1089 32.1439 11.1681 32.4398 11.1681C33.5622 11.1681 34.4483 10.6359 34.6259 9.86819C34.8621 8.86367 33.9167 7.74077 32.4984 7.3862C32.3214 7.327 32.1439 7.327 31.9669 7.327C31.1393 7.327 30.1354 7.68157 29.1303 7.97694C28.8941 8.09533 28.5987 8.15453 28.2442 8.27233ZM32.4984 12.3496C32.1439 12.3496 31.7307 12.2904 31.3761 12.2312C30.1354 11.9358 29.1303 10.8721 28.1258 9.809C27.6534 9.33604 27.1804 8.80448 26.7081 8.44991C26.5305 8.33152 26.4719 8.09533 26.5305 7.85914C26.5897 7.62237 26.7667 7.44539 27.0035 7.44539C27.5942 7.327 28.185 7.09082 28.8941 6.91382C29.9578 6.55925 31.0801 6.20467 32.0853 6.20467C32.3806 6.20467 32.676 6.26387 32.9122 6.32247C34.9804 6.79543 36.3389 8.56771 35.9258 10.2228C35.512 11.4635 34.1535 12.3496 32.4984 12.3496Z" fill="#101110"/>
<path d="M26.8858 10.1629C26.8858 10.5175 26.8858 10.8135 26.8858 11.168C26.8858 12.4088 26.8272 13.7678 27.2996 14.5356C27.8312 15.4223 28.7179 16.0131 29.5448 16.0131C29.8402 16.0131 30.0764 15.9539 30.3132 15.8361C30.7264 15.5993 30.9631 15.1269 31.0223 14.5356C31.0809 13.8856 30.9039 13.1771 30.5494 12.5857C30.0764 11.7588 28.8949 11.168 27.772 10.6359C27.4766 10.4589 27.1812 10.3405 26.8858 10.1629ZM29.5448 17.1946C28.3041 17.1946 27.0634 16.4268 26.2951 15.1269C25.6451 14.0632 25.6451 12.5857 25.7043 11.1089C25.7043 10.4589 25.7043 9.74976 25.6451 9.09981C25.6451 8.86362 25.7043 8.62685 25.9405 8.50905C26.1181 8.39066 26.3543 8.39066 26.5905 8.50905C27.0634 8.86362 27.6542 9.09981 28.3041 9.45438C29.604 10.1043 30.9631 10.7543 31.6131 11.8766C32.1446 12.7041 32.3814 13.7087 32.263 14.5948C32.1446 15.5401 31.6723 16.3084 30.9631 16.7814C30.5494 17.0768 30.0764 17.1946 29.5448 17.1946Z" fill="#101110"/>
<path d="M24.8769 9.92676C24.5223 9.92676 24.2861 9.69058 24.2861 9.33601C24.2861 8.98144 24.5223 8.74525 24.8769 8.74525C25.2315 8.74525 25.4682 8.98144 25.4682 9.33601C25.4682 9.69058 25.1723 9.92676 24.8769 9.92676Z" fill="#101110"/>
<path d="M24.5807 10.5174C24.3445 10.7541 24.1078 10.9903 23.8716 11.2265C22.9855 12.1132 22.0401 12.9994 21.8034 13.8855C21.6264 14.713 21.6856 15.54 22.0993 16.1905C22.2763 16.4859 22.5717 16.8405 23.0446 16.9583C23.163 16.9583 23.2808 17.0175 23.34 17.0175C24.2854 17.0175 25.1715 16.0721 25.4675 14.8308C25.7036 13.9447 25.2899 12.704 24.8761 11.4633C24.7583 11.1679 24.6399 10.8719 24.5807 10.5174ZM23.34 18.199C23.163 18.199 22.9263 18.199 22.7493 18.1404C22.0401 17.9628 21.4494 17.549 21.0356 16.8405C20.5034 15.9537 20.3264 14.7722 20.6218 13.6493C20.9172 12.4086 21.9809 11.4041 23.0446 10.3996C23.517 9.92661 24.0492 9.45424 24.4037 8.98129C24.5215 8.80429 24.7583 8.7451 24.9945 8.80429C25.2307 8.86348 25.4083 9.04048 25.4083 9.27667C25.5261 9.86801 25.7628 10.4588 25.9398 11.1679C26.4128 12.527 26.8851 13.9447 26.5898 15.186C26.176 16.8991 24.8169 18.199 23.34 18.199Z" fill="#101110"/>
<path d="M15.3637 35.9263C15.0683 35.9263 14.7729 35.6901 14.7729 35.3355C14.7729 35.3355 14.7729 34.2718 14.7729 32.6167C14.7729 32.3811 14.7729 32.0852 14.7729 31.7898C14.7729 24.2266 15.1275 10.8138 17.3135 6.14577C18.0227 4.54991 19.2042 3.48678 20.4449 3.19082C21.3908 3.01382 22.277 3.2506 23.1045 3.95916L24.6406 5.25906C24.8768 5.49583 24.936 5.85039 24.6998 6.08658C24.463 6.32276 24.1084 6.38196 23.8723 6.14577L22.3362 4.84588C21.804 4.37292 21.2724 4.19592 20.6817 4.31372C19.7955 4.4913 18.9088 5.37744 18.3773 6.61815C16.1912 11.2862 15.9545 25.7632 15.9545 31.7898C15.9545 32.0852 15.9545 32.3219 15.9545 32.6167C15.9545 34.2718 15.9545 35.2763 15.9545 35.2763C15.9545 35.6309 15.7183 35.9263 15.3637 35.9263Z" fill="#101110"/>
<path d="M24.2268 35.9263H7.97747C7.62289 35.9263 7.38672 35.6901 7.38672 35.3355C7.38672 34.9809 7.62289 34.7442 7.97747 34.7442H24.2268C24.5814 34.7442 24.8176 34.9809 24.8176 35.3355C24.8176 35.6309 24.5814 35.9263 24.2268 35.9263Z" fill="#101110"/>
<path d="M16.3683 27.2994C17.1952 27.5362 17.9635 27.6539 18.7319 27.5947C19.9726 27.5361 21.0363 27.181 21.9816 26.5316C22.8678 25.8811 23.5177 24.9949 23.9315 23.8726C24.2269 23.1635 24.3452 22.3354 24.4044 21.4498C23.5769 21.2131 22.75 21.0952 21.9224 21.1539C20.7409 21.213 19.6772 21.5676 18.8497 22.2176C17.9635 22.8681 17.2544 23.8134 16.8412 24.9358C16.5458 25.6449 16.4269 26.4132 16.3683 27.2994ZM18.5543 28.7769C17.609 28.7769 16.6044 28.5993 15.5999 28.2447C15.3637 28.1855 15.1862 27.9493 15.1862 27.7125C15.1862 26.5316 15.3637 25.4673 15.7183 24.522C16.1913 23.1635 17.0182 22.0406 18.1405 21.2722C19.2043 20.5039 20.5042 20.0315 21.8632 19.9723C21.9816 19.9723 22.1 19.9723 22.2178 19.9723C23.1637 19.9723 24.1677 20.1493 25.1722 20.5039C25.409 20.5631 25.586 20.7993 25.586 21.0361C25.586 22.2176 25.409 23.2813 25.0544 24.2858C24.5814 25.5857 23.7539 26.708 22.6908 27.4764C21.5679 28.3039 20.268 28.7177 18.7911 28.7769C18.7319 28.7769 18.6135 28.7769 18.5543 28.7769Z" fill="#101110"/>
<path d="M6.79611 26.3539C6.79611 27.24 6.97311 28.0084 7.26848 28.7767C7.68225 29.899 8.3322 30.7851 9.21834 31.4357C10.1051 32.085 11.2274 32.4402 12.4095 32.4988C13.1778 32.4988 13.9456 32.4402 14.7731 32.2034C14.7731 32.085 14.7731 31.9672 14.7731 31.8489C14.7139 31.1397 14.5955 30.4312 14.3593 29.7812C13.9456 28.6583 13.2956 27.7124 12.3503 27.063C11.4641 26.4131 10.4004 26.0585 9.27753 25.9987C9.15973 25.9987 9.04134 25.9987 8.98215 25.9987C8.27301 26.0585 7.50525 26.1763 6.79611 26.3539ZM12.6457 33.6809C12.5865 33.6809 12.4687 33.6809 12.4095 33.6809C10.9912 33.6217 9.63209 33.208 8.50977 32.381C7.44606 31.6127 6.61853 30.4904 6.14557 29.1905C5.79158 28.1853 5.61401 27.1216 5.61401 25.9401C5.61401 25.7039 5.7916 25.4672 6.02778 25.4086C7.15069 25.054 8.27301 24.8764 9.33672 24.9356C10.755 24.9948 11.9957 25.4085 13.0594 26.2355C14.1231 27.0038 14.9501 28.1261 15.4822 29.4858C15.7184 30.195 15.8954 31.0219 15.9546 31.8489C15.9546 32.1448 15.9546 32.4402 15.9546 32.7356C15.9546 32.9718 15.7776 33.2079 15.5408 33.2671C14.5363 33.5033 13.591 33.6809 12.6457 33.6809Z" fill="#101110"/>
<path d="M16.1319 27.949C15.9543 27.949 15.7773 27.8898 15.6589 27.7122C15.4819 27.476 15.5405 27.0628 15.7773 26.8853L20.9769 23.1631C21.2131 22.9856 21.6268 23.0442 21.8038 23.2809C21.9814 23.5171 21.9222 23.9309 21.686 24.1085L16.4864 27.8306C16.3681 27.8898 16.2497 27.949 16.1319 27.949Z" fill="#101110"/>
<path d="M15.0682 32.4402C14.9498 32.4402 14.8907 32.4402 14.7729 32.381L9.57267 29.426C9.27729 29.249 9.21809 28.8945 9.33648 28.5991C9.51406 28.3037 9.86862 28.2445 10.1634 28.3629L15.3636 31.3173C15.659 31.4943 15.7182 31.8488 15.5998 32.1448C15.482 32.3218 15.2452 32.4402 15.0682 32.4402Z" fill="#101110"/>
<path d="M8.45 14.1814C8.39081 14.1814 8.33161 14.1814 8.33161 14.2406C8.27242 14.2998 8.27242 14.4182 8.33161 14.4774C8.39081 14.536 8.50919 14.536 8.5678 14.4774C8.62699 14.4182 8.62699 14.2998 8.5678 14.2406C8.50919 14.1814 8.50919 14.1814 8.45 14.1814ZM8.45 15.3635C8.15462 15.3635 7.91786 15.2451 7.74087 15.0681C7.3271 14.6544 7.3271 14.0636 7.74087 13.6499C7.91786 13.4723 8.15462 13.3545 8.45 13.3545C8.74538 13.3545 8.98157 13.4723 9.15915 13.6499C9.57233 14.0636 9.57233 14.6544 9.15915 15.0681C8.98157 15.2451 8.68619 15.3635 8.45 15.3635Z" fill="#101110"/>
<path d="M28.3634 22.8678C28.3042 22.8678 28.245 22.8678 28.245 22.9264C28.1858 22.9856 28.1858 23.104 28.245 23.1632C28.3042 23.2218 28.4226 23.2218 28.4812 23.1632C28.5404 23.104 28.5404 23.104 28.5404 23.0442C28.5404 22.9856 28.5404 22.9264 28.4812 22.9264C28.4812 22.8678 28.4226 22.8678 28.3634 22.8678ZM28.3634 24.0493C28.068 24.0493 27.8312 23.9309 27.6543 23.7534C27.4767 23.577 27.3589 23.3402 27.3589 23.0442C27.3589 22.7494 27.4767 22.5126 27.6543 22.3351C27.8312 22.1587 28.068 22.0403 28.3634 22.0403C28.6588 22.0403 28.895 22.1587 29.0726 22.3351C29.4857 22.7494 29.4857 23.3402 29.0726 23.7534C28.895 23.9309 28.6588 24.0493 28.3634 24.0493Z" fill="#101110"/>
</svg>
