<svg width="36" height="33" viewBox="0 0 36 33" fill="none" xmlns="http://www.w3.org/2000/svg">
<path d="M32.2159 22.3818C34.0444 23.1378 35.3057 24.9663 35.3057 27.0468C35.3057 29.8845 33.0357 32.1538 30.1986 32.1538C28.8116 32.1538 24.4619 32.1538 23.0742 32.1538C21.6873 32.1538 17.3371 32.1538 15.9504 32.1538C15.0044 32.1538 11.7893 32.1538 10.8435 32.1538C9.58259 32.1538 5.86257 32.1538 4.72797 32.1538C2.45822 32.1538 0.629883 30.3254 0.629883 28.056C0.629883 26.0381 2.07983 24.3991 3.9712 24.0208C3.78217 23.5161 3.6561 23.0121 3.6561 22.445C3.6561 19.9224 5.73657 17.8419 8.25864 17.8419C8.44743 17.8419 8.57375 17.8419 8.76303 17.8419C8.76303 13.3658 12.4198 9.70887 16.896 9.70887C17.7788 9.70887 18.5981 9.8352 19.418 10.0872C21.3721 10.7182 22.9486 12.042 23.9572 13.7441H24.0204C26.9206 13.7441 29.5051 15.2574 30.9553 17.5899C31.7119 18.8512 32.2159 20.3007 32.2159 21.9403C32.2159 22.0666 32.2159 22.2555 32.2159 22.3818Z" fill="#DFF9FB"/>
<path d="M8.25947 18.5363C6.05274 18.5363 4.28713 20.301 4.28713 22.5078C4.28713 22.9493 4.35041 23.4533 4.53945 23.8947C4.60273 24.0842 4.60273 24.2731 4.47673 24.3994C4.41344 24.5882 4.22435 24.6514 4.03506 24.7145C2.45904 24.9665 1.26116 26.4167 1.26116 28.0563C1.26116 29.9473 2.83718 31.5238 4.7288 31.5238H30.1994C32.6582 31.5238 34.6762 29.5064 34.6762 27.047C34.6762 25.2817 33.6044 23.6427 31.9648 22.9492C31.7127 22.8235 31.587 22.5709 31.587 22.3189C31.587 22.1926 31.587 22.0669 31.587 21.9406C31.587 20.5536 31.2087 19.1666 30.4521 17.9685C29.0645 15.7617 26.6688 14.4379 24.0844 14.4379H24.0212C23.7692 14.4379 23.5797 14.3116 23.4534 14.1227C22.5079 12.4831 21.0578 11.2856 19.2293 10.7184C18.4727 10.4658 17.7163 10.3401 16.8968 10.3401C12.7357 10.3401 9.39432 13.7444 9.39432 17.8422C9.39432 17.8422 9.39432 17.8422 9.39432 17.9054C9.39432 18.0948 9.33103 18.2837 9.20503 18.3468C9.07896 18.41 8.88993 18.5363 8.70058 18.5363C8.57457 18.5363 8.44825 18.5363 8.25947 18.5363ZM30.1994 32.7844H4.7288C2.14394 32.7844 0 30.6408 0 28.0563C0 26.0384 1.32413 24.2099 3.21557 23.5796C3.15278 23.2019 3.0895 22.8236 3.0895 22.4452C3.0895 19.6075 5.35926 17.275 8.19619 17.2118C8.51154 12.6726 12.3573 9.07884 16.9596 9.07884C17.9057 9.07884 18.7878 9.20513 19.6708 9.52029C21.6249 10.1506 23.2646 11.4751 24.3995 13.1772C27.3623 13.2397 30.0106 14.8162 31.587 17.275C32.4694 18.662 32.9109 20.301 32.9109 21.9406C34.8019 22.9492 36 24.8409 36 26.9845C35.9368 30.1993 33.3517 32.7844 30.1994 32.7844Z" fill="#101110"/>
<path d="M27.4254 11.79C27.0471 11.79 26.7951 11.5374 26.7951 11.1591C26.7951 10.0241 25.9121 9.14177 24.7772 9.14177C24.3995 9.14177 24.1475 8.88975 24.1475 8.51143C24.1475 8.1331 24.3995 7.88109 24.7772 7.88109C26.6063 7.88109 28.0564 9.3306 28.0564 11.1591C28.0564 11.5374 27.7406 11.79 27.4254 11.79Z" fill="#101110"/>
<path d="M31.3344 11.79C30.956 11.79 30.704 11.5374 30.704 11.1591C30.704 7.88109 28.0564 5.23285 24.7772 5.23285C24.3995 5.23285 24.1475 4.98084 24.1475 4.60251C24.1475 4.22419 24.3995 3.97218 24.7772 3.97218C28.7493 3.97218 31.9647 7.1876 31.9647 11.1591C31.9647 11.5374 31.7127 11.79 31.3344 11.79Z" fill="#101110"/>
<path d="M35.3065 11.79C34.9281 11.79 34.6761 11.5374 34.6761 11.1591C34.6761 5.6743 30.2625 1.26076 24.7772 1.26076C24.3995 1.26076 24.1475 1.00874 24.1475 0.63042C24.1475 0.252096 24.3995 8.29697e-05 24.7772 8.29697e-05C30.956 8.29697e-05 35.9368 4.98081 35.9368 11.1591C35.9368 11.5374 35.6848 11.79 35.3065 11.79Z" fill="#101110"/>
</svg>
