<svg width="36" height="36" viewBox="0 0 36 36" fill="none" xmlns="http://www.w3.org/2000/svg">
<path d="M24.1973 26.4512C24.6126 26.5108 25.0279 26.5108 25.4432 26.5108C25.8585 26.5108 26.2732 26.5108 26.6885 26.4512L27.2814 29.4761H25.7991H23.5449L24.1973 26.4512Z" fill="#F8B6C2"/>
<path d="M35.4665 16.4877C35.4665 21.5883 31.6112 25.7988 26.6888 26.3919C26.2735 26.4512 25.8588 26.4512 25.4435 26.4512C25.0282 26.4512 24.6129 26.4512 24.1976 26.3919C20.1652 25.9172 16.8434 22.9519 15.7764 19.0971C18.6823 17.3177 20.6393 14.1748 20.6393 10.5571C20.6393 9.66708 20.5205 8.77766 20.2835 7.88825C21.7664 6.99824 23.5452 6.4647 25.4435 6.4647C30.9588 6.4647 35.4665 10.9718 35.4665 16.4877Z" fill="#F9CCD1"/>
<path d="M9.37111 20.5199C9.78641 20.5799 10.2011 20.5799 10.6164 20.5799C11.0317 20.5799 11.447 20.5799 11.8623 20.5199L12.4552 23.5452H10.9723H8.71875L9.37111 20.5199Z" fill="#FF99A7"/>
<path d="M20.6388 10.5573C20.6388 14.1749 18.6817 17.3773 15.7758 19.0973C14.5893 19.8091 13.2846 20.2832 11.8617 20.4614C11.4464 20.5203 11.0311 20.5203 10.6158 20.5203C10.2005 20.5203 9.78577 20.5203 9.37047 20.4614C4.44809 19.8685 0.592773 15.6579 0.592773 10.5573C0.592773 5.04135 5.10044 0.534267 10.6158 0.534267C15.2417 0.534267 19.097 3.67723 20.2829 7.88843C20.5199 8.77785 20.6388 9.66726 20.6388 10.5573Z" fill="#F25A7B"/>
<path d="M12.4553 24.1384H8.71881C8.54116 24.1384 8.36292 24.0789 8.24409 23.9006C8.12586 23.7825 8.06645 23.6042 8.12586 23.4265L8.71881 20.4018C8.77822 20.1053 9.0747 19.8683 9.43058 19.9271C9.72705 19.9865 9.9641 20.283 9.90528 20.6389L9.43058 22.9518H11.6841L11.21 20.6389C11.1506 20.343 11.3282 19.9865 11.6841 19.9271C11.9806 19.8683 12.3365 20.0459 12.3959 20.4018L12.9888 23.4265C13.0482 23.6042 12.9888 23.7825 12.8706 23.9006C12.8112 24.0789 12.6329 24.1384 12.4553 24.1384Z" fill="#101110"/>
<path d="M27.2822 30.0691H23.5457C23.368 30.0691 23.1904 30.0098 23.0716 29.8315C22.9527 29.7134 22.8939 29.5351 22.9527 29.3575L23.5457 26.3327C23.6051 26.0362 23.9016 25.7991 24.2575 25.8579C24.5539 25.9174 24.7916 26.2145 24.7322 26.5698L24.2575 28.8827H26.5116L26.0369 26.5698C25.9775 26.2738 26.1557 25.9174 26.5116 25.8579C26.8081 25.7991 27.1639 25.9774 27.2228 26.3327L27.8163 29.3575C27.8751 29.5351 27.8163 29.7134 27.6975 29.8315C27.6381 30.0098 27.4604 30.0691 27.2822 30.0691Z" fill="#101110"/>
<path d="M25.4439 27.104C25.0286 27.104 24.5539 27.104 24.1392 27.0445C22.0633 26.8074 20.1062 25.9174 18.505 24.4944C16.9039 23.1304 15.7768 21.2921 15.2427 19.275C15.1838 18.9785 15.3615 18.6233 15.658 18.5633C15.9544 18.5044 16.3103 18.6821 16.3697 18.9785C17.378 22.6556 20.4621 25.3839 24.3168 25.8579C25.088 25.9774 25.8592 25.9774 26.6298 25.8579C31.3151 25.2658 34.8734 21.2921 34.8734 16.4879C34.8734 11.2691 30.6628 7.05789 25.4439 7.05789C23.7239 7.05789 22.0633 7.53201 20.5803 8.42201C20.2839 8.60025 19.9286 8.48084 19.7503 8.24378C19.5727 7.9473 19.6909 7.59201 19.9286 7.41377C21.5886 6.40553 23.4868 5.872 25.3845 5.872C31.2557 5.872 36.0004 10.6161 36.0004 16.4879C36.0004 21.8256 32.0269 26.3326 26.6892 26.985C26.3333 27.104 25.8592 27.104 25.4439 27.104Z" fill="#101110"/>
<path d="M10.6159 1.1271C5.39709 1.1271 1.18647 5.3383 1.18647 10.5572C1.18647 15.3013 4.74474 19.3348 9.43006 19.9272C10.2007 20.046 10.9718 20.046 11.743 19.9272C13.0477 19.7496 14.293 19.3349 15.4201 18.6231C18.2666 16.9031 19.9866 13.8778 19.9866 10.5572C19.9866 9.72656 19.8683 8.89655 19.6307 8.06596C18.563 4.03299 14.8271 1.1271 10.6159 1.1271ZM10.6159 21.1731C10.2006 21.1731 9.72653 21.1731 9.31123 21.1137C4.03297 20.4613 0 15.9542 0 10.616C0 4.74477 4.74473 3.05176e-05 10.6159 3.05176e-05C15.3607 3.05176e-05 19.5719 3.203 20.8172 7.8289C21.0542 8.71832 21.1731 9.66715 21.1731 10.616C21.1731 12.4542 20.6984 14.2931 19.7495 15.8948C18.8601 17.4366 17.5548 18.7413 16.013 19.6901C14.7083 20.4613 13.3442 20.9354 11.8618 21.1137C11.5059 21.1731 11.0312 21.1731 10.6159 21.1731Z" fill="#101110"/>
<path d="M8.77764 35.2881C8.5994 35.2881 8.36234 35.1693 8.24352 34.9912C8.06587 34.6946 8.18469 34.3386 8.48117 34.161C8.48117 34.161 9.78588 33.3898 10.0824 32.2628C10.2006 31.7292 10.1418 31.1364 9.72646 30.5429C7.94704 27.5776 10.3788 23.4263 10.4382 23.248C10.6159 22.9516 10.9718 22.8922 11.2682 23.0116C11.5647 23.1887 11.6241 23.5451 11.5059 23.8416C11.4465 23.9004 9.31117 27.5776 10.7347 29.891C11.2682 30.7805 11.4465 31.6111 11.2094 32.4999C10.7941 34.161 9.13353 35.11 9.07412 35.1693C8.95529 35.2281 8.83705 35.2881 8.77764 35.2881Z" fill="#101110"/>
<path d="M23.6043 35.2883C23.3673 35.2883 23.1302 35.1102 23.0114 34.8731C22.952 34.5767 23.1302 34.2201 23.4267 34.1613C24.1973 33.9832 24.8502 33.5677 24.9685 33.3901C24.9685 33.3901 24.909 33.2713 24.7314 33.1532C24.079 32.6197 23.9008 32.0854 23.9008 31.6702C23.9008 30.366 25.2649 29.2389 25.4432 29.1194C25.6802 28.9425 26.0955 28.9425 26.2732 29.2389C26.4514 29.476 26.4514 29.8913 26.1549 30.0688C25.8585 30.306 25.0873 31.0771 25.0873 31.6702C25.0873 31.789 25.1467 32.0261 25.4432 32.2042C26.1549 32.7377 26.2143 33.2713 26.1549 33.6272C25.9173 34.6948 24.2567 35.2283 23.7826 35.3472C23.6637 35.2283 23.6637 35.2883 23.6043 35.2883Z" fill="#101110"/>
<path d="M5.81212 14.5308C5.57506 14.5308 5.33741 14.3525 5.278 14.1155C4.15152 10.9719 4.86329 8.54073 5.63389 7.05778C6.5233 5.4566 7.65037 4.56659 7.70978 4.56659C7.94684 4.38894 8.36213 4.44835 8.54037 4.68541C8.71802 4.92306 8.6586 5.33836 8.42154 5.51542C8.42154 5.51542 7.4133 6.2866 6.70153 7.65072C5.7527 9.48897 5.63388 11.506 6.40506 13.7008C6.52329 13.9966 6.34566 14.3525 6.04919 14.4713C5.93036 14.4713 5.87154 14.5308 5.81212 14.5308Z" fill="#101110"/>
<path d="M32.501 19.6902C32.4416 19.6902 32.3822 19.6902 32.3228 19.6902C32.0263 19.6314 31.8486 19.2749 31.9075 18.9784C32.9157 15.4796 31.2551 12.8107 31.2551 12.8107C31.0775 12.5143 31.1369 12.1578 31.4333 11.9807C31.7298 11.8025 32.0857 11.8619 32.2634 12.1578C32.3228 12.2772 34.2204 15.3013 33.094 19.3349C32.9751 19.5119 32.7381 19.6902 32.501 19.6902Z" fill="#101110"/>
</svg>
