<svg width="44" height="44" viewBox="0 0 44 44" fill="none" xmlns="http://www.w3.org/2000/svg">
<path d="M22.0716 18.7435C22.1441 18.7435 22.1441 18.7435 22.2166 18.7435C22.2891 18.7435 22.3616 18.7435 22.3616 18.7435H22.4333C22.5058 18.7435 22.5058 18.7435 22.5783 18.7435H22.6508C23.9535 19.0328 24.8937 20.0455 25.183 21.2764V21.3482C25.183 21.4207 25.183 21.4207 25.183 21.4932V21.5657C25.183 21.6382 25.183 21.71 25.183 21.71C25.183 21.7825 25.183 21.7824 25.183 21.8556C25.183 21.8556 25.183 21.8556 25.183 21.9274C25.183 21.9999 25.183 22.0717 25.183 22.0717C25.183 22.1449 25.183 22.2167 25.183 22.2167V22.2892C25.183 22.3617 25.183 22.3617 25.183 22.4341V22.5066C24.8937 23.8086 23.881 24.7496 22.6508 25.0388H22.5783C22.5058 25.0388 22.5058 25.0388 22.4333 25.0388H22.3616C22.2891 25.0388 22.2166 25.0388 22.2166 25.0388C22.1441 25.0388 22.0716 25.0388 22.0716 25.0388C21.9991 25.0388 21.9273 25.0388 21.9273 25.0388C21.8548 25.0388 21.7823 25.0388 21.7823 25.0388H21.7098C21.6374 25.0388 21.6374 25.0388 21.5649 25.0388H21.4931C20.1904 24.7496 19.2495 23.7368 18.9602 22.5066V22.4341C18.9602 22.3617 18.9602 22.3617 18.9602 22.2892V22.2167C18.9602 22.1449 18.9602 22.0717 18.9602 22.0717C18.9602 21.9999 18.9602 21.9274 18.9602 21.9274V21.8556V21.7824C18.9602 21.7099 18.9602 21.6382 18.9602 21.6382V21.5657C18.9602 21.4932 18.9602 21.4932 18.9602 21.4207V21.3482C19.2495 20.0455 20.2622 19.1046 21.4931 18.8153H21.5649C21.6374 18.8153 21.6374 18.8153 21.7098 18.8153H21.7823C21.8548 18.8153 21.9273 18.8153 21.9273 18.8153C21.8548 18.7435 21.9273 18.7435 22.0716 18.7435C21.9991 18.7435 21.9991 18.7435 22.0716 18.7435Z" fill="#57606F"/>
<path d="M25.2559 21.9994L33.2163 32.8538H21.9995V25.2558C22.072 25.2558 22.1445 25.2558 22.1445 25.2558C22.217 25.2558 22.2895 25.2558 22.2895 25.2558H22.362C22.4337 25.2558 22.4337 25.2558 22.5062 25.2558H22.5787C23.8814 24.9658 24.8224 24.0256 25.1116 22.7222V22.6504C25.1116 22.5779 25.1116 22.5779 25.1116 22.5061V22.4336C25.1116 22.3612 25.1116 22.3612 25.1116 22.2887C25.2559 22.1444 25.2559 22.0712 25.2559 21.9994Z" fill="#FD8493"/>
<path d="M32.8538 10.7113L22.072 18.7437C22.072 18.7437 22.072 18.7437 21.9995 18.7437V11.1462V0.72607L32.8538 10.7113Z" fill="#F25A7B"/>
<path d="M22.0001 25.2556V25.3274L11.1458 33.2153V21.9992H18.7437C18.7437 22.071 18.7437 22.1442 18.7437 22.1442C18.7437 22.216 18.7437 22.2885 18.7437 22.2885V22.361C18.7437 22.4335 18.7437 22.4335 18.7437 22.506V22.5777C19.0337 23.8804 19.9747 24.8207 21.2766 25.1114H21.3491C21.4216 25.1114 21.4216 25.1114 21.4941 25.1114H21.5659C21.6384 25.1114 21.7108 25.1114 21.7108 25.1114C21.8558 25.2556 21.9283 25.2556 22.0001 25.2556Z" fill="#FF99A7"/>
<path d="M43.2732 22.0002L33.288 32.8538L25.2556 22.0002H43.2732Z" fill="#F25A7B"/>
<path d="M22.0003 11.1456V18.7436C21.9285 18.7436 21.856 18.7436 21.856 18.7436C21.7835 18.7436 21.711 18.7436 21.711 18.7436H21.6385C21.566 18.7436 21.566 18.7436 21.4943 18.7436H21.4218C20.1191 19.0328 19.1781 19.9731 18.8889 21.2765V21.3483C18.8889 21.4207 18.8889 21.4207 18.8889 21.4932V21.5657C18.8889 21.6382 18.8889 21.71 18.8889 21.71V21.7825H18.8164L10.7117 11.1456H22.0003Z" fill="#FD8493"/>
<path d="M21.9994 32.8538V43.2732L11.1458 33.288L21.9994 25.3281V32.8538Z" fill="#F25A7B"/>
<path d="M32.8546 10.7107V22H25.2559V21.9275C25.2559 21.8557 25.2559 21.8557 25.2559 21.7825C25.2559 21.71 25.2559 21.6383 25.2559 21.6383V21.5658C25.2559 21.4933 25.2559 21.4933 25.2559 21.4208V21.3483C24.9667 20.0456 24.0264 19.1047 22.7238 18.8154H22.6513C22.5788 18.8154 22.5788 18.8154 22.5063 18.8154H22.4338C22.362 18.8154 22.362 18.8154 22.2895 18.8154C22.217 18.8154 22.217 18.8154 22.1445 18.8154L32.8546 10.7107Z" fill="#FF99A7"/>
<path d="M18.7434 22H0.726562L10.7118 11.1464L18.5992 21.9275H18.6717C18.7434 21.9275 18.7434 22 18.7434 22Z" fill="#F25A7B"/>
<path d="M22.3623 19.467H22.2898C22.2173 19.467 22.2173 19.467 22.1449 19.467C21.7106 19.467 21.4214 19.1046 21.4214 18.7436C21.4214 18.3093 21.7831 18.0201 22.1449 18.0201C22.2173 18.0201 22.2898 18.0201 22.3623 18.0201C22.7241 18.0918 23.0133 18.4536 23.0133 18.8153C23.0133 19.1778 22.7241 19.467 22.3623 19.467Z" fill="black"/>
<path d="M22.5787 19.5396C22.5062 19.5396 22.5062 19.5396 22.4337 19.5396C22.3619 19.5396 22.3619 19.5396 22.2894 19.5396C21.9277 19.4671 21.6377 19.1046 21.6377 18.7436C21.7102 18.3819 22.0719 18.0919 22.4337 18.0919C22.5062 18.0919 22.5787 18.0919 22.6511 18.0919C23.0129 18.1644 23.3021 18.5261 23.2297 18.9603C23.2297 19.2503 22.9404 19.5396 22.5787 19.5396Z" fill="black"/>
<path d="M25.1834 22.0715C24.8224 22.0715 24.5324 21.8555 24.4606 21.493C24.2431 20.4796 23.4472 19.7568 22.5062 19.5394C22.1445 19.4669 21.8552 19.1044 21.9277 18.6709C21.9995 18.3092 22.3619 18.0199 22.7955 18.0917C24.3881 18.3816 25.5458 19.6119 25.9076 21.2031C25.9801 21.5655 25.7626 21.9998 25.3284 22.0715C25.2559 22.0715 25.2559 22.0715 25.1834 22.0715Z" fill="black"/>
<path d="M25.2553 22.2891C24.8935 22.2891 24.6043 21.9998 24.5318 21.6381C24.5318 21.5656 24.5318 21.5656 24.5318 21.4931C24.46 21.1314 24.7485 20.6971 25.111 20.6246C25.4727 20.5521 25.907 20.8414 25.9794 21.2031C25.9794 21.2763 25.9794 21.3481 25.9794 21.4206C26.0512 21.7824 25.762 22.1448 25.3278 22.2166C25.2553 22.2891 25.2553 22.2891 25.2553 22.2891Z" fill="black"/>
<path d="M25.2552 22.5784C24.8934 22.5784 24.5317 22.2891 24.5317 21.8556C24.5317 21.7824 24.5317 21.7824 24.5317 21.7099C24.4599 21.3482 24.7485 20.9871 25.1827 20.9139C25.5451 20.8414 25.9069 21.1314 25.9794 21.5657C25.9794 21.6381 25.9794 21.7099 25.9794 21.7824C25.9794 22.2166 25.6894 22.5066 25.2552 22.5784Z" fill="black"/>
<path d="M32.8541 22.7229C32.4199 22.7229 32.1307 22.4344 32.1307 22.0002V11.0741L22.7239 2.39077V11.1466C22.7239 11.5801 22.434 11.8693 21.9998 11.8693C21.5656 11.8693 21.2764 11.5801 21.2764 11.1466V0.726456C21.2764 0.437225 21.4213 0.147276 21.7106 0.0755062C21.9998 -0.0694675 22.2897 0.00301933 22.5065 0.219763L33.3601 10.2057C33.5051 10.35 33.5775 10.5674 33.5775 10.7117V22.0002C33.5775 22.4344 33.2883 22.7229 32.8541 22.7229Z" fill="black"/>
<path d="M33.2883 33.5776H21.9998C21.5656 33.5776 21.2764 33.2877 21.2764 32.8535C21.2764 32.4193 21.5656 32.1301 21.9998 32.1301H32.9266L41.6092 22.7226H25.2559C24.8225 22.7226 24.5325 22.4341 24.5325 21.9999C24.5325 21.5657 24.8225 21.2765 25.2559 21.2765H43.2735C43.5628 21.2765 43.8527 21.4207 43.9252 21.7099C44.0694 21.9999 43.9969 22.2891 43.7802 22.5066L33.7943 33.3602C33.65 33.5044 33.4326 33.5776 33.2883 33.5776Z" fill="black"/>
<path d="M25.2555 23.085H25.183C24.822 23.0125 24.532 22.6507 24.532 22.289C24.532 22.2165 24.532 22.2165 24.532 22.1447C24.532 21.7098 24.8937 21.4205 25.2555 21.4205C25.6897 21.4205 25.9797 21.7823 25.9797 22.1447C25.9797 22.2165 25.9797 22.289 25.9797 22.3615C25.9072 22.7957 25.6172 23.085 25.2555 23.085Z" fill="black"/>
<path d="M25.1829 23.3018C25.1112 23.3018 25.1112 23.3018 25.0387 23.3018C24.6769 23.23 24.3877 22.8682 24.4602 22.434C24.4602 22.3615 24.4602 22.3615 24.4602 22.289C24.532 21.9273 24.8937 21.638 25.2554 21.638C25.6172 21.7098 25.9072 22.0715 25.9072 22.4333C25.9072 22.5065 25.9072 22.5783 25.9072 22.6508C25.8347 23.085 25.5454 23.3018 25.1829 23.3018Z" fill="black"/>
<path d="M22.6508 25.9072C22.2891 25.9072 21.9991 25.6897 21.9273 25.328C21.8549 24.9663 22.0716 24.5327 22.5058 24.4595C23.5193 24.2435 24.2428 23.4468 24.4602 22.5066C24.532 22.1448 24.8938 21.8556 25.328 21.9274C25.6897 21.9998 25.9797 22.3616 25.9072 22.7958C25.6172 24.3878 24.3878 25.5455 22.7951 25.9072C22.7233 25.9072 22.7233 25.9072 22.6508 25.9072Z" fill="black"/>
<path d="M22.4333 25.9792C22.0716 25.9792 21.7823 25.6893 21.7098 25.3275C21.6373 24.894 21.9273 24.5323 22.3615 24.5323C22.4333 24.5323 22.4333 24.5323 22.5058 24.5323C22.8676 24.4591 23.3018 24.749 23.3743 25.1115C23.4468 25.4732 23.1575 25.9068 22.7951 25.9792C22.7233 25.9792 22.6508 25.9792 22.5783 25.9792C22.5058 25.9792 22.4333 25.9792 22.4333 25.9792Z" fill="black"/>
<path d="M22.1449 25.9792C21.7831 25.9792 21.4214 25.6893 21.4214 25.2558C21.4214 24.8208 21.7106 24.5323 22.1449 24.5323C22.2173 24.5323 22.2173 24.5323 22.2898 24.5323C22.6516 24.4591 23.0133 24.749 23.0858 25.1833C23.1583 25.545 22.8683 25.9068 22.4341 25.9792C22.3623 25.9792 22.2898 25.9792 22.1449 25.9792Z" fill="black"/>
<path d="M21.9996 43.9971C21.8554 43.9971 21.6379 43.9246 21.4937 43.7796L10.6393 33.7937C10.4951 33.6494 10.4226 33.432 10.4226 33.2877V21.9999C10.4226 21.5657 10.7118 21.2765 11.146 21.2765C11.5802 21.2765 11.8695 21.5657 11.8695 21.9999V32.926L21.2762 41.6093V25.2561C21.2762 24.8211 21.5654 24.5326 21.9996 24.5326C22.4338 24.5326 22.7238 24.8211 22.7238 25.2561V43.2729C22.7238 43.5629 22.5788 43.8521 22.2896 43.9246C22.2171 43.9246 22.0721 43.9971 21.9996 43.9971Z" fill="black"/>
<path d="M21.8543 25.9792C21.7093 25.9792 21.6368 25.9792 21.6368 25.9792C21.2751 25.9068 20.9858 25.545 20.9858 25.1833C21.0583 24.8208 21.4201 24.5323 21.7818 24.5323C21.8543 24.5323 21.8543 24.5323 21.9268 24.5323C22.361 24.5323 22.6503 24.894 22.5778 25.2558C22.5053 25.6893 22.216 25.9792 21.8543 25.9792Z" fill="black"/>
<path d="M21.565 25.9792H21.4932C21.4208 25.9792 21.3483 25.9792 21.2758 25.9792C20.914 25.9068 20.6248 25.545 20.6966 25.1115C20.7698 24.749 21.1308 24.4591 21.565 24.5323C21.6375 24.5323 21.6375 24.5323 21.71 24.5323C22.0717 24.6048 22.3617 24.9658 22.3617 25.3275C22.2892 25.6893 21.9275 25.9792 21.565 25.9792Z" fill="black"/>
<path d="M21.3485 25.9072C21.276 25.9072 21.276 25.9072 21.2035 25.9072C19.6116 25.618 18.4538 24.3878 18.0921 22.7958C18.0196 22.4341 18.2371 21.9998 18.6713 21.9274C19.0331 21.8556 19.4673 22.0716 19.5398 22.5066C19.7565 23.5193 20.5525 24.2435 21.4935 24.4595C21.8552 24.5327 22.1445 24.8945 22.072 25.328C21.9995 25.6897 21.7102 25.9072 21.3485 25.9072Z" fill="black"/>
<path d="M18.8159 23.302C18.4542 23.302 18.1649 23.0853 18.0924 22.7228C18.0924 22.651 18.0924 22.5785 18.0924 22.5068C18.0199 22.145 18.3092 21.7826 18.7434 21.7101C19.1059 21.6383 19.4676 21.9276 19.5401 22.3618C19.5401 22.4343 19.5401 22.4343 19.5401 22.5068C19.6119 22.8685 19.3226 23.302 18.9609 23.3752C18.8884 23.302 18.8159 23.302 18.8159 23.302Z" fill="black"/>
<path d="M18.7428 23.0852C18.381 23.0852 18.0918 22.796 18.0193 22.4342C18.0193 22.3617 18.0193 22.2892 18.0193 22.2168C18.0193 21.7825 18.3085 21.4933 18.7428 21.4933C19.177 21.4933 19.467 21.7825 19.467 22.2168C19.467 22.2892 19.467 22.2892 19.467 22.3617C19.5395 22.7228 19.2495 23.0852 18.8153 23.1577C18.8153 23.0852 18.8153 23.0852 18.7428 23.0852Z" fill="black"/>
<path d="M18.7434 22.7229H0.726579C0.436633 22.7229 0.147399 22.5786 0.0756302 22.2894C-0.0693429 22.0002 0.00242665 21.7102 0.219886 21.4935L10.2051 10.6399C10.3501 10.4949 10.5675 10.4224 10.7118 10.4224H21.9996C22.4338 10.4224 22.7237 10.7117 22.7237 11.1466V18.744C22.7237 19.1782 22.4338 19.4675 21.9996 19.4675C21.5654 19.4675 21.2762 19.1782 21.2762 18.744V11.8693H11.0735L2.3909 21.2768H18.7434C19.1776 21.2768 19.4676 21.566 19.4676 22.0002C19.4676 22.4344 19.1059 22.7229 18.7434 22.7229Z" fill="black"/>
<path d="M18.7428 22.5784C18.3085 22.5784 18.0193 22.2166 18.0193 21.8556C18.0193 21.7824 18.0193 21.7099 18.0193 21.6381C18.0918 21.2764 18.4535 20.9871 18.8153 20.9871C19.177 21.0589 19.467 21.4207 19.467 21.7824C19.467 21.8556 19.467 21.8556 19.467 21.9274C19.467 22.2891 19.1052 22.5784 18.7428 22.5784Z" fill="black"/>
<path d="M18.7428 22.2891H18.671C18.3085 22.2166 18.0193 21.8556 18.0193 21.4931C18.0193 21.4206 18.0193 21.3481 18.0193 21.2763C18.0918 20.9139 18.4535 20.6246 18.8878 20.6971C19.2495 20.7696 19.5395 21.1314 19.467 21.5656C19.467 21.6381 19.467 21.6381 19.467 21.7099C19.467 22.0716 19.1052 22.2891 18.7428 22.2891Z" fill="black"/>
<path d="M18.816 22.0715C18.7435 22.0715 18.7435 22.0715 18.6717 22.0715C18.3093 21.9998 18.02 21.638 18.0925 21.2031C18.3818 19.6119 19.612 18.4534 21.2039 18.0917C21.5656 18.0199 21.9999 18.2367 22.0724 18.6709C22.1448 19.0326 21.9281 19.4669 21.4939 19.5394C20.4804 19.7568 19.7569 20.5521 19.5402 21.493C19.4677 21.8555 19.1777 22.0715 18.816 22.0715Z" fill="black"/>
<path d="M21.4208 19.5396C21.059 19.5396 20.7698 19.3221 20.6966 18.9603C20.6248 18.5986 20.914 18.1644 21.2758 18.0919C21.3483 18.0919 21.4208 18.0919 21.4932 18.0919C21.855 18.0201 22.2167 18.3094 22.2892 18.7436C22.3617 19.1046 22.0717 19.4671 21.6375 19.5396C21.565 19.5396 21.565 19.5396 21.4932 19.5396C21.4932 19.5396 21.4932 19.5396 21.4208 19.5396Z" fill="black"/>
<path d="M21.6374 19.467C21.2757 19.467 20.9864 19.1778 20.914 18.8153C20.8415 18.4536 21.1307 18.0918 21.5649 18.0201C21.6374 18.0201 21.7099 18.0201 21.7824 18.0201C22.2166 18.0201 22.5059 18.3093 22.5059 18.7436C22.5059 19.1778 22.2166 19.467 21.7824 19.467C21.7099 19.467 21.7099 19.467 21.6374 19.467C21.7099 19.467 21.7099 19.467 21.6374 19.467Z" fill="black"/>
<path d="M21.5652 24.5323C21.6377 24.5323 21.6377 24.5323 21.7102 24.5323H21.7826C21.8551 24.5323 21.8551 24.5323 21.9276 24.5323C21.9994 24.5323 22.0719 24.5323 22.2169 24.5323C22.2894 24.5323 22.2894 24.5323 22.3619 24.5323H22.4336C22.5061 24.5323 22.5061 24.5323 22.5786 24.5323H22.6511C23.6638 24.3148 24.388 23.5906 24.6048 22.5779V22.5061C24.6048 22.4336 24.6048 22.4336 24.6048 22.3611C24.6048 22.3611 24.6048 22.3611 24.6048 22.2886C24.6048 22.2161 24.6048 22.2161 24.6048 22.1444C24.6048 22.0712 24.6048 22.0712 24.6048 21.9994V21.9269C24.6048 21.8551 24.6048 21.8551 24.6048 21.7819V21.7094C24.6048 21.6377 24.6048 21.6377 24.6048 21.5652V21.4927C24.388 20.4792 23.5921 19.7564 22.6511 19.539H22.5786C22.5061 19.539 22.5061 19.539 22.4336 19.539C22.4336 19.539 22.4336 19.539 22.3619 19.539C22.2894 19.539 22.2894 19.539 22.2169 19.539H22.1444C22.1444 19.539 22.1444 19.539 22.0719 19.539C21.9994 19.539 21.9994 19.539 21.9276 19.539C21.8551 19.539 21.8551 19.539 21.7826 19.539H21.7102C21.6377 19.539 21.6377 19.539 21.5652 19.539H21.4934C20.48 19.7564 19.7565 20.4792 19.5397 21.4927V21.5652C19.5397 21.6377 19.5397 21.6377 19.5397 21.7094V21.7819C19.5397 21.8551 19.5397 21.8551 19.5397 21.9269V21.9994V22.0712C19.5397 22.1444 19.5397 22.1444 19.5397 22.2161C19.5397 22.2886 19.5397 22.2886 19.5397 22.3611V22.4336C19.5397 22.5061 19.5397 22.5061 19.5397 22.5779V22.6504C19.7565 23.6638 20.48 24.3873 21.4934 24.6048C21.4934 24.4591 21.5652 24.4591 21.5652 24.5323ZM21.9994 25.9792C21.9276 25.9792 21.8551 25.9792 21.7826 25.9792C21.7102 25.9792 21.6377 25.9792 21.5652 25.9792H21.4934C21.4209 25.9792 21.3484 25.9792 21.2759 25.9792H21.2034C19.6115 25.6893 18.4538 24.4591 18.092 22.8678V22.7954C18.092 22.7221 18.092 22.6504 18.092 22.5779C18.092 22.5061 18.092 22.5061 18.092 22.4336C18.092 22.3611 18.092 22.2886 18.092 22.2161C18.092 22.1444 18.092 22.0712 18.092 21.9994C18.092 21.9994 18.092 21.9269 18.092 21.8551V21.7819C18.092 21.7094 18.092 21.6377 18.092 21.5652V21.4927C18.092 21.4202 18.092 21.3477 18.092 21.2759V21.2027C18.3813 19.6115 19.6115 18.453 21.2034 18.0913H21.2759C21.3484 18.0913 21.4209 18.0913 21.4934 18.0913C21.5652 18.0913 21.5652 18.0913 21.6377 18.0913C21.7102 18.0913 21.7826 18.0913 21.8551 18.0913C21.9276 18.0913 21.9994 18.0913 22.1444 18.0913C22.2169 18.0913 22.2169 18.0913 22.2894 18.0913C22.3619 18.0913 22.4336 18.0913 22.5061 18.0913H22.5786C22.6511 18.0913 22.7236 18.0913 22.7954 18.0913H22.8679C24.4605 18.3813 25.6175 19.6115 25.98 21.2027V21.2759C25.98 21.3477 25.98 21.4202 25.98 21.4927C25.98 21.5652 25.98 21.5652 25.98 21.6377C25.98 21.7094 25.98 21.7819 25.98 21.8551C25.98 21.9269 25.98 21.9269 25.98 21.9994V22.0712C25.98 22.1444 25.98 22.2161 25.98 22.2886C25.98 22.3611 25.98 22.4336 25.98 22.5061V22.5779C25.98 22.6504 25.98 22.7221 25.98 22.7954V22.8678C25.69 24.4591 24.4605 25.6175 22.8679 25.9792H22.7954C22.7236 25.9792 22.6511 25.9792 22.5786 25.9792C22.5061 25.9792 22.5061 25.9792 22.4336 25.9792C22.3619 25.9792 22.2894 25.9792 22.2169 25.9792C22.1444 25.9792 22.0719 25.9792 21.9994 25.9792Z" fill="black"/>
<path d="M22.072 19.467C21.8552 19.467 21.6377 19.3945 21.4935 19.1778C21.276 18.8885 21.276 18.3818 21.5652 18.1643C21.5652 18.1643 21.5652 18.1643 21.6377 18.1643L32.4203 10.2046C32.7096 9.98716 33.2163 10.0596 33.433 10.3489C33.6505 10.6389 33.578 11.1456 33.2888 11.3623L22.4337 19.3945C22.3619 19.467 22.2894 19.467 22.2169 19.467C22.2169 19.467 22.1444 19.467 22.072 19.467Z" fill="black"/>
<path d="M33.2879 33.5776C33.0704 33.5776 32.8537 33.5044 32.7087 33.2877L24.7482 22.4333C24.5315 22.1441 24.604 21.7091 24.8932 21.4199C25.1825 21.1306 25.6892 21.2024 25.9067 21.4924C25.9067 21.4924 25.9067 21.4924 25.9792 21.5649V21.6374L33.9389 32.4917C34.1556 32.781 34.0839 33.2877 33.7939 33.5044C33.5771 33.5776 33.4322 33.5776 33.2879 33.5776Z" fill="black"/>
<path d="M11.1457 34.0112C10.9289 34.0112 10.7114 33.9387 10.5672 33.722C10.3497 33.432 10.4222 32.926 10.7114 32.7092L21.5658 24.8206C21.8558 24.6046 22.3625 24.6763 22.5792 24.9656C22.796 25.2555 22.7242 25.7623 22.4343 25.979L11.5799 33.867C11.4356 33.9387 11.2907 34.0112 11.1457 34.0112Z" fill="black"/>
<path d="M18.6715 22.6509C18.454 22.6509 18.2373 22.5784 18.0923 22.3616L10.1326 11.5791C9.91512 11.2898 9.98761 10.7838 10.2769 10.5663C10.5668 10.3489 11.0728 10.4214 11.2903 10.7106L19.1775 21.4932C19.395 21.7824 19.3225 22.2891 19.0333 22.5066C18.9608 22.5784 18.8158 22.6509 18.6715 22.6509Z" fill="black"/>
</svg>
