<svg width="20" height="21" viewBox="0 0 20 21" fill="none" xmlns="http://www.w3.org/2000/svg">
<path d="M18.4985 11.0639L10.8485 3.4139C10.5298 3.09777 10.0989 2.92054 9.65 2.9209H3.7C3.24913 2.9209 2.81673 3.10001 2.49792 3.41882C2.17911 3.73763 2 4.17003 2 4.6209V10.5709C1.99982 10.7952 2.04404 11.0174 2.13012 11.2245C2.21619 11.4317 2.34241 11.6197 2.5015 11.7779L10.1515 19.4279C10.4702 19.744 10.9011 19.9213 11.35 19.9209C11.8001 19.919 12.2312 19.7386 12.5485 19.4194L18.4985 13.4694C18.8177 13.1521 18.9981 12.721 19 12.2709C19.0002 12.0466 18.956 11.8244 18.8699 11.6173C18.7838 11.4101 18.6576 11.222 18.4985 11.0639ZM11.35 18.2209L3.7 10.5709V4.6209H9.65L17.3 12.2709M5.825 5.4709C6.07717 5.4709 6.32368 5.54568 6.53335 5.68578C6.74302 5.82587 6.90644 6.025 7.00295 6.25798C7.09945 6.49095 7.1247 6.74731 7.0755 6.99464C7.02631 7.24196 6.90487 7.46915 6.72656 7.64746C6.54825 7.82577 6.32107 7.9472 6.07374 7.9964C5.82641 8.0456 5.57005 8.02035 5.33708 7.92384C5.1041 7.82734 4.90498 7.66392 4.76488 7.45425C4.62478 7.24458 4.55 6.99807 4.55 6.7459C4.55 6.40775 4.68433 6.08345 4.92344 5.84434C5.16255 5.60523 5.48685 5.4709 5.825 5.4709Z" fill="#545754"/>
</svg>
