<svg width="44" height="56" viewBox="0 0 44 56" fill="none" xmlns="http://www.w3.org/2000/svg">
<path d="M40.805 7.78235C42.0834 7.78235 43.0876 8.78559 43.0876 10.0641C43.0876 11.3416 42.0834 12.3467 40.805 12.3467C39.5265 12.3467 38.5232 11.3416 38.5232 10.0641C38.5232 8.78559 39.5265 7.78235 40.805 7.78235Z" fill="#A88D68"/>
<path d="M7.75814 42.0143C9.03753 42.0143 10.0408 43.0195 10.0408 44.297C10.0408 45.5756 9.03753 46.5786 7.75814 46.5786C6.48056 46.5786 5.47641 45.5756 5.47641 44.297C5.47641 43.0195 6.48056 42.0143 7.75814 42.0143Z" fill="#A88D68"/>
<path d="M3.19421 11.2516C4.47269 11.2516 5.47682 12.2548 5.47682 13.5333C5.47682 14.8109 4.47269 15.8159 3.19421 15.8159C1.91663 15.8159 0.912521 14.8109 0.912521 13.5333C0.912521 12.2548 1.91663 11.2516 3.19421 11.2516Z" fill="#A88D68"/>
<path d="M23.7335 48.8613C14.9697 42.5633 9.12779 34.1633 9.12779 24.9441C9.12779 15.724 14.9697 7.23369 23.7335 0.935444C32.4981 7.23369 38.34 15.724 38.34 24.9441C38.34 34.1633 32.4981 42.5633 23.7335 48.8613Z" fill="#8EC155"/>
<path d="M23.7332 2.12246C14.8789 8.69505 10.0402 16.7281 10.0402 24.9441C10.0402 33.1601 14.8789 41.193 23.7332 47.7656C32.5884 41.2846 37.4271 33.1601 37.4271 24.9441C37.4271 16.7281 32.5884 8.6036 23.7332 2.12246ZM23.7332 49.7749C23.5512 49.7749 23.3692 49.6825 23.1863 49.592C13.5099 42.6534 8.21396 33.8908 8.21396 24.9441C8.21396 15.906 13.5099 7.14314 23.1863 0.205647C23.4598 -0.0687027 23.9161 -0.0687027 24.281 0.205647C33.9583 7.14314 39.2534 15.906 39.2534 24.9441C39.2534 33.8908 33.9583 42.6534 24.281 49.592C24.0981 49.7749 23.9161 49.7749 23.7332 49.7749Z" fill="#101110"/>
<path d="M23.7335 55.5254C23.1866 55.5254 22.8208 55.1607 22.8208 54.6129V15.8157C22.8208 15.267 23.1866 14.9021 23.7335 14.9021C24.2813 14.9021 24.6471 15.267 24.6471 15.8157V54.6129C24.6471 55.0691 24.1908 55.5254 23.7335 55.5254Z" fill="#101110"/>
<path d="M23.7341 26.9521C23.5521 26.9521 23.2777 26.8607 23.1872 26.7693C22.8214 26.4044 22.7309 25.8566 23.0958 25.4917L28.8462 18.6447C29.212 18.2789 29.7589 18.1884 30.1247 18.5533C30.4896 18.9191 30.5819 19.4669 30.2161 19.8309L24.4647 26.6787C24.1913 26.8607 24.0084 26.9521 23.7341 26.9521Z" fill="#101110"/>
<path d="M23.7341 37.2686C23.4607 37.2686 23.2778 37.1769 23.0958 36.9941C22.7309 36.6291 22.7309 36.0823 23.0958 35.7156L29.9418 28.8696C30.3076 28.5038 30.8545 28.5038 31.2203 28.8696C31.5852 29.2345 31.5852 29.7832 31.2203 30.1481L24.3734 36.9941C24.1914 37.1769 23.917 37.2686 23.7341 37.2686Z" fill="#101110"/>
<path d="M23.7342 32.7036C23.4607 32.7036 23.1873 32.6122 23.0044 32.3387L17.3445 25.4918C16.9796 25.1269 17.071 24.4876 17.4359 24.2133C17.8008 23.8484 18.4401 23.9389 18.7135 24.3047L24.4649 31.1508C24.8298 31.5166 24.7383 32.1558 24.3734 32.4293C24.0991 32.6122 23.9171 32.7036 23.7342 32.7036Z" fill="#101110"/>
<path d="M23.7332 42.9277C23.4598 42.9277 23.2769 42.8365 23.0949 42.6533L16.248 35.8074C15.8831 35.4425 15.8831 34.8938 16.248 34.529C16.6138 34.1632 17.1607 34.1632 17.5265 34.529L24.3725 41.3757C24.7374 41.7408 24.7374 42.2886 24.3725 42.6533C24.1905 42.8365 23.9161 42.9277 23.7332 42.9277Z" fill="#101110"/>
<path d="M7.75832 42.9279C7.02854 42.9279 6.39022 43.5663 6.39022 44.297C6.39022 45.0267 7.02854 45.6668 7.75832 45.6668C8.48901 45.6668 9.12825 45.0267 9.12825 44.297C9.12825 43.5663 8.48901 42.9279 7.75832 42.9279ZM7.75832 47.4922C6.0244 47.4922 4.5639 46.0318 4.5639 44.297C4.5639 42.5632 6.0244 41.1025 7.75832 41.1025C9.49315 41.1025 10.9545 42.5632 10.9545 44.297C10.9545 46.0318 9.49315 47.4922 7.75832 47.4922Z" fill="#101110"/>
<path d="M40.8047 8.69496C40.0749 8.69496 39.4357 9.3342 39.4357 10.064C39.4357 10.7947 40.0749 11.433 40.8047 11.433C41.5354 11.433 42.1737 10.7947 42.1737 10.064C42.1737 9.3342 41.6269 8.69496 40.8047 8.69496ZM40.8047 13.2593C39.0699 13.2593 37.6094 11.7979 37.6094 10.064C37.6094 8.32916 39.0699 6.86868 40.8047 6.86868C42.5395 6.86868 44 8.32916 44 10.064C44 11.7979 42.631 13.2593 40.8047 13.2593Z" fill="#101110"/>
<path d="M3.19438 12.1637C2.46459 12.1637 1.82627 12.8029 1.82627 13.5327C1.82627 14.2634 2.46459 14.9017 3.19438 14.9017C3.92507 14.9017 4.5643 14.2634 4.5643 13.5327C4.5643 12.8029 3.92507 12.1637 3.19438 12.1637ZM3.19438 16.728C1.46046 16.728 0 15.2666 0 13.5327C0 11.7979 1.46046 10.3374 3.19438 10.3374C4.9292 10.3374 6.39061 11.7979 6.39061 13.5327C6.39061 15.2666 4.9292 16.728 3.19438 16.728Z" fill="#101110"/>
</svg>
