<svg width="44" height="51" viewBox="0 0 44 51" fill="none" xmlns="http://www.w3.org/2000/svg">
<path d="M3.63 23.1075C5.1351 23.1075 6.37414 24.3466 6.37414 25.8517C6.37414 27.3568 5.1351 28.5967 3.63 28.5967C2.1249 28.5967 0.88501 27.3568 0.88501 25.8517C0.88501 24.3466 2.1249 23.1075 3.63 23.1075Z" fill="#98DEDE"/>
<path d="M40.7247 29.7472C41.9646 29.7472 42.9376 30.7219 42.9376 31.961C42.9376 33.2 41.9646 34.1738 40.7247 34.1738C39.4856 34.1738 38.5109 33.2 38.5109 31.961C38.5109 30.7219 39.4856 29.7472 40.7247 29.7472Z" fill="#98DEDE"/>
<path d="M22.9297 43.9133C23.4609 45.3297 23.6374 46.8348 23.6374 48.4286C22.1323 48.959 20.6272 49.1372 19.2108 49.1372C17.2631 49.0485 15.4042 48.5164 13.8991 47.366C12.394 46.2148 11.3314 44.7097 10.6236 42.9394C10.0924 41.523 9.82631 40.0179 9.915 38.3354C11.5088 37.8042 13.0139 37.5381 14.519 37.6268C16.378 37.7164 18.1492 38.2467 19.6543 39.398C21.1594 40.5483 22.2219 42.143 22.9297 43.9133Z" fill="#8EC155"/>
<path d="M23.8152 47.1882C23.9039 46.037 24.0813 44.9754 24.5238 43.9128C25.1438 42.1425 26.2942 40.5479 27.7993 39.4854C29.3044 38.4237 31.0755 37.8038 32.9345 37.7159C34.4396 37.6264 36.0325 37.8924 37.5385 38.4237C37.5385 40.0175 37.2724 41.6104 36.8299 43.0268C36.2099 44.798 35.0596 46.3031 33.5545 47.4534C31.9607 48.6047 30.1895 49.1368 28.2418 49.2246C26.8254 49.2246 25.3203 49.0481 23.8152 48.516C23.7274 47.9856 23.8152 47.5421 23.8152 47.1882Z" fill="#8EC155"/>
<path d="M27.5341 24.4353C28.154 25.9395 27.0915 27.5342 25.4977 27.5342H23.8152H21.3363C19.7425 27.5342 18.6799 25.9395 19.3008 24.4353C19.5651 23.904 19.9199 23.3728 20.3633 22.9302C22.1327 21.2486 24.9664 21.2486 26.7367 23.0189C27.0915 23.4615 27.3567 23.9927 27.5341 24.4353Z" fill="#FDE8F9"/>
<path d="M23.9043 0.973837C27.2684 1.06253 29.9247 4.69269 29.836 9.11931C29.7474 13.192 25.5868 17.53 23.3731 21.6914C21.4254 17.4413 17.4413 12.8382 17.53 8.85323C17.7065 4.42661 20.5402 0.885147 23.9043 0.973837Z" fill="#F37D79"/>
<path d="M15.8467 9.47431C18.6795 12.3958 18.7682 18.4154 20.1847 22.9307C15.8467 21.2491 9.73849 20.8056 6.99348 17.9728C3.98327 14.7852 3.452 10.2708 5.93094 7.96834C8.40988 5.66678 12.8365 6.28672 15.8467 9.47431Z" fill="#FF99A7"/>
<path d="M41.6109 8.76486C44.0003 11.2429 43.2925 15.6696 40.1049 18.6806C37.1834 21.5126 31.163 21.6021 26.6486 23.0186C28.3302 18.6806 28.7728 12.5715 31.6056 9.8274C34.7932 6.81631 39.3085 6.28592 41.6109 8.76486Z" fill="#FF99A7"/>
<path d="M9.64943 7.43678C8.4104 7.43678 7.34784 7.79153 6.55139 8.58798C4.42633 10.6244 4.95758 14.5197 7.70259 17.3525C9.38508 19.1237 12.6605 19.9202 15.7585 20.7166C16.821 20.9827 17.8836 21.2488 18.9461 21.6027C18.68 20.5401 18.4148 19.3898 18.2383 18.2377C17.6184 15.1397 16.9975 11.8634 15.3159 10.0931C13.6335 8.49931 11.598 7.43678 9.64943 7.43678ZM20.2738 23.8164C20.1851 23.8164 20.0973 23.8164 19.92 23.7268C18.5035 23.1956 16.9097 22.7539 15.3159 22.3991C11.9518 21.5131 8.41037 20.6288 6.374 18.5916C3.00992 15.051 2.47866 10.0044 5.31237 7.34896C6.46271 6.28644 7.96782 5.66649 9.64943 5.66649C12.1292 5.66649 14.6082 6.81681 16.5559 8.85318C18.5922 10.9782 19.3009 14.431 20.0086 17.8838C20.3634 19.5663 20.7173 21.2488 21.1598 22.6643C21.2476 23.0191 21.1598 23.373 20.8938 23.5503C20.7173 23.7268 20.4512 23.8164 20.2738 23.8164Z" fill="#101110"/>
<path d="M23.8145 1.85989C20.9817 1.85989 18.5914 4.9579 18.5027 8.85326C18.414 11.2435 20.1843 14.165 21.8668 16.91C22.3981 17.8839 23.0181 18.8577 23.5484 19.8315C24.1684 18.8577 24.7892 17.8839 25.4083 16.91C27.1786 14.2546 29.0376 11.5096 29.0376 9.03064C29.1271 6.81689 28.3298 4.69271 27.0021 3.2763C26.116 2.39027 25.0535 1.85989 23.8145 1.85989ZM23.4606 22.5757C23.1067 22.5757 22.752 22.3992 22.6641 22.0453C22.0442 20.7167 21.159 19.2116 20.3626 17.7952C18.5914 14.785 16.7324 11.687 16.8203 8.76544C16.9089 6.46301 17.6176 4.33884 18.8575 2.65636C20.1843 0.973873 22.0442 3.62396e-05 23.991 3.62396e-05C25.5856 3.62396e-05 27.0908 0.708675 28.3298 2.0364C30.0123 3.71888 30.8974 6.2865 30.8087 9.03064C30.72 11.9522 28.7724 14.9624 26.8247 17.7952C25.9395 19.2116 24.9657 20.6289 24.2571 22.0453C24.0806 22.3992 23.8145 22.5757 23.4606 22.5757Z" fill="#101110"/>
<path d="M37.7144 8.05699C35.8554 8.05699 33.819 8.94214 32.2252 10.4472C30.4549 12.1297 29.6576 15.4051 28.8612 18.504C28.5951 19.5665 28.3299 20.6291 27.9751 21.6916C29.0376 21.4255 30.1889 21.1595 31.3401 20.983C34.439 20.363 37.7144 19.7439 39.4856 17.9727C41.0785 16.4676 42.0532 14.3426 42.141 12.4836C42.141 11.1559 41.7871 10.0933 40.9907 9.29601C40.1933 8.49955 39.043 8.05699 37.7144 8.05699ZM26.6483 23.9932C26.1161 23.9932 25.7623 23.6384 25.7623 23.108C25.7623 23.0193 25.7622 22.9306 25.8509 22.7541C26.3822 21.3368 26.8248 19.6544 27.1787 18.0614C28.0647 14.6974 28.9498 11.1559 30.9862 9.11951C32.9339 7.25964 35.3241 6.19799 37.7144 6.19799C39.4856 6.19799 41.1672 6.81708 42.3184 8.05699C43.38 9.20821 44 10.8011 44 12.4836C43.9122 14.8739 42.761 17.3528 40.8133 19.2118C38.6891 21.249 35.1467 21.9568 31.7826 22.6646C30.1888 23.0193 28.4186 23.3732 27.0021 23.8167C26.8248 23.9045 26.7361 23.9932 26.6483 23.9932Z" fill="#101110"/>
<path d="M23.815 49.1372C23.2846 49.1372 22.9298 48.7825 22.9298 48.2512V27.5345C22.9298 27.0024 23.2846 26.6485 23.815 26.6485C24.3462 26.6485 24.7001 27.0024 24.7001 27.5345V48.2512C24.7001 48.6946 24.2575 49.1372 23.815 49.1372Z" fill="#101110"/>
<path d="M24.7 47.8081C25.94 48.162 27.0912 48.3394 28.2415 48.2507C30.1005 48.162 31.6952 47.6316 33.1107 46.6569C34.4393 45.6831 35.4131 44.3554 36.0322 42.6729C36.4757 41.5225 36.6522 40.3713 36.7409 39.0427C35.5018 38.6888 34.2628 38.5123 33.0229 38.6001C31.2517 38.6888 29.6579 39.221 28.4189 40.1939C27.0912 41.1678 26.0286 42.585 25.4087 44.2675C25.0539 45.2405 24.8774 46.2143 24.7896 47.2769C24.7 47.4534 24.7 47.6316 24.7 47.8081ZM27.8876 50.021C26.4712 50.021 24.9661 49.7558 23.461 49.2245C23.1071 49.1367 22.8411 48.782 22.8411 48.4281C22.8411 47.9855 22.8411 47.5421 22.8411 47.0995C22.9298 45.8604 23.195 44.7092 23.5488 43.6476C24.2575 41.6103 25.4974 39.9287 27.179 38.7775C28.7728 37.6263 30.6326 36.9176 32.7568 36.8298C32.9342 36.8298 33.1107 36.8298 33.2881 36.8298C34.7054 36.8298 36.2096 37.0959 37.7147 37.6263C38.0695 37.7159 38.3347 38.0697 38.3347 38.4236C38.3347 40.1939 38.0694 41.7877 37.5382 43.2928C36.8295 45.2405 35.5897 46.923 33.9967 48.0742C32.3143 49.3132 30.3666 49.9332 28.1537 50.021C28.1537 50.021 27.9754 50.021 27.8876 50.021Z" fill="#101110"/>
<path d="M10.7114 39.0427C10.7114 40.3713 10.9775 41.5225 11.4201 42.6729C12.0401 44.3554 13.0139 45.6831 14.3416 46.6569C15.6702 47.6316 17.3518 48.162 19.1221 48.2507C20.2733 48.2507 21.4245 48.162 22.6644 47.8081C22.6644 46.5691 22.3984 45.3292 22.0445 44.2675C21.4245 42.585 20.4507 41.1678 19.0343 40.1939C17.7057 39.221 16.1128 38.6888 14.4303 38.6001C13.2791 38.5123 12.04 38.6888 10.7114 39.0427ZM19.4769 50.021C19.3882 50.021 19.2108 50.021 19.1221 50.021C16.9971 49.9332 14.9616 49.3132 13.2791 48.0742C11.6862 46.923 10.4471 45.2405 9.7385 43.2928C9.20636 41.7877 8.94116 40.1939 8.94116 38.4236C8.94116 38.0697 9.20636 37.7159 9.56112 37.6263C11.0662 37.0959 12.5704 36.8298 13.9877 36.8298C14.1651 36.8298 14.3416 36.8298 14.519 36.8298C16.6432 36.9176 18.503 37.5376 20.0968 38.7775C21.6898 39.9287 22.9296 41.6103 23.727 43.6476C24.2574 45.1518 24.5234 46.7456 24.5234 48.4281C24.5234 48.782 24.2574 49.1367 23.9035 49.2245C22.3984 49.7558 20.8933 50.021 19.4769 50.021Z" fill="#101110"/>
<path d="M24.2577 48.7822C23.9917 48.7822 23.7274 48.6944 23.5491 48.4283C23.2848 48.0745 23.3726 47.4536 23.7273 47.1884L31.4293 41.6106C31.7832 41.3445 32.4023 41.4341 32.6684 41.788C32.9344 42.1427 32.8458 42.7618 32.4919 43.027L24.7003 48.6048C24.6116 48.6944 24.4351 48.7822 24.2577 48.7822Z" fill="#101110"/>
<path d="M23.1074 48.1621C22.93 48.1621 22.8413 48.1621 22.6648 48.0743L14.8741 43.6477C14.4307 43.3816 14.342 42.8503 14.5194 42.4069C14.7846 41.9652 15.3158 41.8765 15.7584 42.053L23.5491 46.4796C23.9917 46.7457 24.0812 47.277 23.9038 47.7195C23.7273 47.9856 23.4613 48.1621 23.1074 48.1621Z" fill="#101110"/>
<path d="M40.7252 30.6325C40.0166 30.6325 39.3975 31.2524 39.3975 31.9611C39.3975 32.6697 40.0166 33.2897 40.7252 33.2897C41.4338 33.2897 42.0538 32.6697 42.0538 31.9611C42.0538 31.2524 41.4338 30.6325 40.7252 30.6325ZM40.7252 35.0591C39.0436 35.0591 37.6272 33.6427 37.6272 31.9611C37.6272 30.2786 39.0436 28.863 40.7252 28.863C42.4077 28.863 43.8241 30.2786 43.8241 31.9611C43.8241 33.6427 42.4077 35.0591 40.7252 35.0591Z" fill="#101110"/>
<path d="M3.63015 23.9928C2.56762 23.9928 1.77117 24.8788 1.77117 25.8518C1.77117 26.8256 2.65543 27.7107 3.63015 27.7107C4.69268 27.7107 5.48913 26.8256 5.48913 25.8518C5.48913 24.8788 4.69268 23.9928 3.63015 23.9928ZM3.63015 29.4819C1.59378 29.4819 0 27.8003 0 25.8518C0 23.9041 1.68247 22.2216 3.63015 22.2216C5.66564 22.2216 7.26034 23.9041 7.26034 25.8518C7.26034 27.8003 5.66564 29.4819 3.63015 29.4819Z" fill="#101110"/>
<path d="M2.47806 46.6575C2.39025 46.6575 2.30068 46.6575 2.30068 46.7462C2.21287 46.8349 2.21287 47.0123 2.30068 47.1001C2.39025 47.1888 2.56673 47.1888 2.65455 47.1001C2.74412 47.0123 2.74412 46.8349 2.65455 46.7462C2.65455 46.7462 2.56676 46.6575 2.47806 46.6575ZM2.47806 48.4287C2.03549 48.4287 1.6816 48.2513 1.41553 47.9861C0.795573 47.3662 0.795573 46.4802 1.41553 45.8611C1.6816 45.595 2.03549 45.4185 2.47806 45.4185C2.92064 45.4185 3.27541 45.595 3.5406 45.8611C4.15968 46.4802 4.15968 47.3662 3.5406 47.9861C3.27541 48.34 2.92064 48.4287 2.47806 48.4287Z" fill="#101110"/>
<path d="M31.4299 30.1902C31.3412 30.1902 31.2525 30.1902 31.2525 30.2789C31.1638 30.3676 31.1638 30.545 31.2525 30.6328C31.3412 30.7224 31.5186 30.7224 31.6064 30.6328C31.696 30.545 31.696 30.545 31.696 30.4563C31.696 30.3676 31.696 30.2789 31.6064 30.2789C31.6064 30.1902 31.5186 30.1902 31.4299 30.1902ZM31.4299 31.9614C30.9873 31.9614 30.6335 31.784 30.3674 31.5188C30.1013 31.2528 29.9248 30.8989 29.9248 30.4563C29.9248 30.0137 30.1013 29.6599 30.3674 29.3938C30.6335 29.1277 30.9873 28.9512 31.4299 28.9512C31.8725 28.9512 32.2264 29.1277 32.4925 29.3938C33.1115 30.0138 33.1115 30.8989 32.4925 31.5188C32.2264 31.784 31.8725 31.9614 31.4299 31.9614Z" fill="#101110"/>
<path d="M23.3732 22.5755C22.3993 22.5755 21.5142 22.9303 20.8942 23.5502C20.5403 23.9041 20.2743 24.3467 20.0978 24.7893C19.9204 25.2327 20.0091 25.6753 20.1856 26.0292C20.4517 26.3831 20.8942 26.6483 21.3368 26.6483H25.4982C25.9408 26.6483 26.3834 26.3831 26.6494 26.0292C26.9146 25.6753 26.9146 25.2327 26.7373 24.7893C26.5608 24.3467 26.2947 23.9928 26.0295 23.7268C25.3208 22.9303 24.347 22.5755 23.3732 22.5755ZM25.4982 28.4194H21.3368C20.2743 28.4194 19.3013 27.8882 18.7691 27.0022C18.2388 26.1179 18.0605 25.0554 18.504 24.0806C18.7691 23.3729 19.2117 22.7538 19.743 22.3112C20.7177 21.3365 22.0455 20.8052 23.4619 20.8052C24.967 20.8052 26.2947 21.4252 27.3572 22.399C27.7998 22.8416 28.1546 23.4616 28.4198 23.9928C28.8623 24.9667 28.6849 26.0292 28.1546 26.9143C27.5346 27.8882 26.5608 28.4194 25.4982 28.4194Z" fill="#101110"/>
</svg>
