<svg width="44" height="44" viewBox="0 0 44 44" fill="none" xmlns="http://www.w3.org/2000/svg">
<path d="M42.9147 13.0265C42.9865 14.4018 42.8415 15.9214 42.3354 17.3685C41.8287 18.8888 41.1051 20.1916 40.2366 21.2769C39.5855 22.0729 38.7895 22.7965 37.9927 23.3032C37.631 22.3622 37.4142 21.3494 37.3417 20.2641C37.3417 20.0466 37.3417 19.7573 37.3417 19.5398C37.3417 18.382 37.5592 17.0792 37.921 15.8489C38.3552 14.4018 39.0788 13.099 39.9473 12.0137C40.6708 11.1452 41.4669 10.4216 42.2629 9.84235C42.6247 10.9277 42.8415 11.9412 42.9147 13.0265Z" fill="#6E9137"/>
<path d="M40.0914 23.3758C41.8285 23.3758 43.2763 24.8229 43.2763 26.56C43.2763 27.4285 42.9145 28.2239 42.3353 28.8031C41.756 29.3824 40.96 29.7441 40.0914 29.7441H39.6579H4.34075H3.9072C2.17012 29.7441 0.722351 28.2971 0.722351 26.56C0.722351 25.6915 1.08411 24.8954 1.66338 24.3169C2.24264 23.7376 3.03866 23.3758 3.9072 23.3758H6.00606H7.52563H21.0583H22.5786H36.4005H37.9208H40.0914Z" fill="#D1BB93"/>
<path d="M39.6586 29.6722L37.3423 38.2843C36.5462 41.1792 33.9414 43.2056 30.9015 43.2056H13.0986C10.0588 43.2056 7.45315 41.1792 6.65783 38.2843L4.34149 29.6722H39.6586Z" fill="#A88D68"/>
<path d="M37.1246 19.6126C37.1246 19.8301 37.1246 20.1193 37.1246 20.3361C37.0528 21.4214 36.8353 22.4349 36.4735 23.376C35.6782 22.8692 34.8815 22.1457 34.2304 21.3496C33.3619 20.2643 32.5658 18.889 32.1316 17.4412C31.6248 15.9941 31.4805 14.4746 31.553 13.0993C31.6248 12.0139 31.8423 11.0004 32.204 10.0594C33.0726 10.6386 33.8686 11.3622 34.5197 12.2307C35.3882 13.316 36.1118 14.6188 36.546 16.0666C36.9078 17.2244 37.1246 18.4548 37.1246 19.6126Z" fill="#8EC155"/>
<path d="M35.6049 5.28357C36.3292 5.28357 36.9802 5.86285 36.9802 6.65888C36.9802 7.45492 36.401 8.03418 35.6049 8.03418C34.8096 8.03418 34.2303 7.45492 34.2303 6.65888C34.2303 5.86285 34.8096 5.28357 35.6049 5.28357Z" fill="#AFF2D8"/>
<path d="M27.572 13.0265C27.6445 14.4018 27.4995 15.9214 26.9935 17.3685C26.4867 18.8888 25.7632 20.1916 24.8946 21.2769C24.2429 22.0729 23.4475 22.7965 22.6508 23.3032C22.289 22.3622 22.0723 21.3494 21.9998 20.2641C21.9998 20.0466 21.9998 19.7573 21.9998 19.5398C21.9998 18.382 22.2172 17.0792 22.579 15.8489C23.0126 14.4018 23.7368 13.099 24.6054 12.0137C25.3289 11.1452 26.1249 10.4216 26.9203 9.84235C27.2827 10.9277 27.4995 11.9412 27.572 13.0265Z" fill="#6E9137"/>
<path d="M22.4333 0.723851C23.4476 0.723851 24.2429 1.5199 24.2429 2.53344C24.2429 3.54697 23.4476 4.34229 22.4333 4.34229C21.4205 4.34229 20.6245 3.54697 20.6245 2.53344C20.6245 1.5199 21.4205 0.723851 22.4333 0.723851Z" fill="#AFF2D8"/>
<path d="M21.7104 19.6126C21.7104 19.8301 21.7104 20.1193 21.7104 20.3361C21.6379 21.4214 21.4205 22.4349 21.0587 23.376C20.2626 22.8692 19.4673 22.1457 18.8148 21.3496C17.9463 20.2643 17.151 18.889 16.7167 17.4412C16.2107 15.9941 16.065 14.4746 16.1375 13.0993C16.2107 12.0139 16.4267 11.0004 16.7892 10.0594C17.657 10.6386 18.4538 11.3622 19.1048 12.2307C19.9734 13.316 20.6976 14.6188 21.1312 16.0666C21.5654 17.2244 21.7104 18.4548 21.7104 19.6126Z" fill="#8EC155"/>
<path d="M12.4467 13.0265C12.5192 14.4018 12.375 15.9214 11.8682 17.3685C11.3614 18.8888 10.6379 20.1916 9.76934 21.2769C9.11829 22.0729 8.32154 22.7965 7.52622 23.3032C7.16373 22.3622 6.94695 21.3494 6.87445 20.2641C6.87445 20.0466 6.87445 19.7573 6.87445 19.5398C6.87445 18.382 7.09123 17.0792 7.453 15.8489C7.88799 14.4018 8.61154 13.099 9.48008 12.0137C10.2036 11.1452 10.9996 10.4216 11.7957 9.84235C12.1575 10.9277 12.4467 11.9412 12.4467 13.0265Z" fill="#6E9137"/>
<path d="M7.52638 4.34216C8.24992 4.34216 8.90095 4.92142 8.90095 5.71746C8.90095 6.5135 8.3217 7.09277 7.52638 7.09277C6.73034 7.09277 6.15106 6.441 6.15106 5.71746C6.15106 4.99392 6.80212 4.34216 7.52638 4.34216Z" fill="#AFF2D8"/>
<path d="M6.65749 19.6126C6.65749 19.8301 6.65749 20.1193 6.65749 20.3361C6.58427 21.4214 6.36823 22.4349 6.00646 23.376C5.2097 22.8692 4.41365 22.1457 3.7626 21.3496C2.89407 20.2643 2.09805 18.889 1.66378 17.4412C1.15701 15.9941 1.01275 14.4746 1.08453 13.0993C1.15702 12.0139 1.3745 11.0004 1.73556 10.0594C2.60409 10.6386 3.40085 11.3622 4.05189 12.2307C4.92043 13.316 5.64397 14.6188 6.07824 16.0666C6.51251 17.2244 6.65749 18.4548 6.65749 19.6126Z" fill="#8EC155"/>
<path d="M32.566 11.145C32.4217 11.7243 32.276 12.3753 32.276 13.0989C32.2042 14.4742 32.3485 15.8487 32.7827 17.1515C33.217 18.5268 33.8688 19.7571 34.7373 20.8425C35.1716 21.3492 35.6052 21.7835 36.0401 22.1453C36.1844 21.566 36.3294 20.915 36.3294 20.2639C36.3294 20.0464 36.3294 19.8297 36.3294 19.6122C36.3294 18.4544 36.1119 17.2965 35.7502 16.1387C35.3159 14.7634 34.6648 13.6056 33.8688 12.5203C33.5063 12.086 33.0727 11.5793 32.566 11.145ZM36.4737 24.0991C36.3294 24.0991 36.1844 24.0266 36.1119 23.9541C35.2434 23.3756 34.4473 22.652 33.7238 21.7835C32.711 20.5532 31.9867 19.1779 31.4807 17.5858C30.9739 16.0662 30.7564 14.5459 30.9014 12.9539C30.9739 11.7961 31.1914 10.7107 31.6249 9.6972C31.6974 9.48042 31.8424 9.33544 32.0599 9.26295C32.276 9.19117 32.4935 9.26295 32.6385 9.33544C33.5795 9.91471 34.3748 10.7107 35.1716 11.6518C36.1119 12.8096 36.8354 14.1842 37.3422 15.7045C37.7765 17.0066 37.9933 18.3094 37.9933 19.6122C37.9933 19.9014 37.9933 20.1189 37.9933 20.3357C37.9215 21.4935 37.704 22.5795 37.2697 23.5924C37.1979 23.8098 37.0529 23.9541 36.8354 24.0266C36.6187 24.0991 36.5462 24.0991 36.4737 24.0991Z" fill="#101110"/>
<path d="M41.9012 11.145C41.3945 11.5793 40.9602 12.0135 40.5267 12.5921C39.6581 13.6056 39.0789 14.8359 38.6446 16.2112C38.2828 17.3683 38.0661 18.5269 38.0661 19.6847C38.0661 19.9014 38.0661 20.1189 38.0661 20.3357C38.1378 20.9868 38.2103 21.6385 38.3553 22.2178C38.7896 21.8553 39.2963 21.421 39.6581 20.915C40.5266 19.8296 41.1777 18.5993 41.6112 17.224C42.0462 15.8487 42.1905 14.4742 42.118 13.1714C42.1905 12.4471 42.0462 11.7961 41.9012 11.145ZM37.9928 24.0991C37.9211 24.0991 37.8486 24.0991 37.7761 24.0991C37.5593 24.0266 37.4143 23.8823 37.3418 23.6648C36.98 22.652 36.6907 21.566 36.6182 20.4082C36.6182 20.1914 36.6182 19.9014 36.6182 19.6847C36.6182 18.3819 36.835 17.0791 37.2693 15.777C37.7761 14.2567 38.4996 12.8814 39.4406 11.7243C40.1649 10.7832 41.0334 10.059 41.9737 9.40794C42.1905 9.26295 42.408 9.26295 42.553 9.33545C42.7698 9.40794 42.9148 9.55292 42.9865 9.7697C43.4208 10.7832 43.6376 11.8686 43.7101 13.0264C43.7833 14.5459 43.5658 16.1387 43.1308 17.6583C42.6248 19.2504 41.9013 20.6257 40.8877 21.8553C40.1649 22.7238 39.3681 23.4481 38.4996 24.0266C38.2828 24.0266 38.1378 24.0991 37.9928 24.0991Z" fill="#101110"/>
<path d="M2.09771 11.145C1.95271 11.7243 1.80772 12.3753 1.80772 13.0989C1.73522 14.4742 1.88094 15.8487 2.31449 17.1515C2.74947 18.5268 3.40051 19.7571 4.26905 20.8425C4.7026 21.3492 5.1376 21.7835 5.57115 22.1453C5.71614 21.566 5.86114 20.915 5.86114 20.2639C5.86114 20.0464 5.86114 19.8297 5.86114 19.6122C5.86114 18.4544 5.64366 17.2965 5.28189 16.1387C4.84762 14.7634 4.19586 13.6056 3.40054 12.5203C3.03877 12.086 2.60376 11.5793 2.09771 11.145ZM6.00614 24.0991C5.86114 24.0991 5.71616 24.0266 5.64366 23.9541C4.77513 23.3756 3.97909 22.652 3.25554 21.7835C2.24273 20.5532 1.51919 19.1779 1.01242 17.5858C0.505659 16.0662 0.288143 14.5459 0.433138 12.9539C0.505636 11.7961 0.722417 10.7107 1.15668 9.6972C1.22918 9.48042 1.37416 9.33544 1.59094 9.26295C1.80771 9.19117 2.02523 9.26295 2.17022 9.33544C3.11126 9.91471 3.90728 10.7107 4.7026 11.6518C5.64364 12.8096 6.36791 14.1842 6.87468 15.7045C7.30823 17.0066 7.52571 18.3094 7.52571 19.6122C7.52571 19.9014 7.52571 20.1189 7.52571 20.3357C7.4525 21.4935 7.23645 22.5795 6.80146 23.5924C6.72968 23.8098 6.58397 23.9541 6.36791 24.0266C6.15042 24.0991 6.07792 24.0991 6.00614 24.0991Z" fill="#101110"/>
<path d="M11.4341 11.145C10.9273 11.5793 10.4938 12.0135 10.0588 12.5921C9.19025 13.6056 8.61167 14.8359 8.17741 16.2112C7.81564 17.3683 7.59816 18.5269 7.59816 19.6847C7.59816 19.9014 7.59816 20.1189 7.59816 20.3357C7.67065 20.9868 7.74315 21.6385 7.88815 22.2178C8.3217 21.8553 8.82847 21.421 9.19025 20.915C10.0588 19.8296 10.7098 18.5993 11.1448 17.224C11.5784 15.8487 11.7241 14.4742 11.6508 13.1714C11.7241 12.4471 11.5783 11.7961 11.4341 11.145ZM7.52638 24.0991C7.45316 24.0991 7.3814 24.0991 7.3089 24.0991C7.0914 24.0266 6.94712 23.8823 6.87534 23.6648C6.51286 22.652 6.22284 21.566 6.15106 20.4082C6.15106 20.1914 6.15106 19.9014 6.15106 19.6847C6.15106 18.3819 6.36858 17.0791 6.80213 15.777C7.30889 14.2567 8.03242 12.8814 8.97417 11.7243C9.69699 10.7832 10.5655 10.059 11.5066 9.40794C11.7241 9.26295 11.9401 9.26295 12.0851 9.33545C12.3026 9.40794 12.4469 9.55292 12.5194 9.7697C12.9537 10.7832 13.1711 11.8686 13.2436 13.0264C13.3154 14.5459 13.0987 16.1387 12.6644 17.6583C12.1576 19.2504 11.4341 20.6257 10.4205 21.8553C9.69699 22.7238 8.90095 23.4481 8.03241 24.0266C7.81563 24.0266 7.67065 24.0991 7.52638 24.0991Z" fill="#101110"/>
<path d="M17.1513 11.145C17.0063 11.7243 16.862 12.3753 16.862 13.0989C16.7895 14.4742 16.9338 15.8487 17.3681 17.1515C17.8023 18.5268 18.4541 19.7571 19.3219 20.8425C19.7562 21.3492 20.1905 21.7835 20.6247 22.1453C20.7697 21.566 20.914 20.915 20.914 20.2639C20.914 20.0464 20.914 19.8297 20.914 19.6122C20.914 18.4544 20.698 17.2965 20.3355 16.1387C19.9012 14.7634 19.2502 13.6056 18.4541 12.5203C18.1641 12.086 17.6573 11.5793 17.1513 11.145ZM21.059 24.0991C20.914 24.0991 20.7697 24.0266 20.6979 23.9541C19.8294 23.3756 19.0327 22.652 18.3091 21.7835C17.2956 20.5532 16.572 19.1779 16.0653 17.5858C15.5585 16.0662 15.3424 14.5459 15.4867 12.9539C15.5585 11.7961 15.776 10.7107 16.211 9.6972C16.2828 9.48042 16.4271 9.33544 16.6445 9.26295C16.862 9.19117 17.0788 9.26295 17.2238 9.33544C18.1641 9.91471 18.9609 10.7107 19.7562 11.6518C20.6979 12.8096 21.4208 14.1842 21.9275 15.7045C22.3618 17.0066 22.5793 18.3094 22.5793 19.6122C22.5793 19.9014 22.5793 20.1189 22.5793 20.3357C22.5068 21.4935 22.2893 22.5795 21.855 23.5924C21.7825 23.8098 21.6382 23.9541 21.4207 24.0266C21.204 24.0991 21.1315 24.0991 21.059 24.0991Z" fill="#101110"/>
<path d="M26.4865 11.145C25.9797 11.5793 25.5455 12.0135 25.1112 12.5921C24.2427 13.6056 23.6634 14.8359 23.2299 16.2112C22.8681 17.3683 22.6506 18.5269 22.6506 19.6847C22.6506 19.9014 22.6506 20.1189 22.6506 20.3357C22.7231 20.9868 22.7956 21.6385 22.9406 22.2178C23.3741 21.8553 23.8809 21.421 24.2427 20.915C25.1112 19.8296 25.763 18.5993 26.1972 17.224C26.6308 15.8487 26.7758 14.4742 26.704 13.1714C26.7758 12.4471 26.704 11.7961 26.4865 11.145ZM22.6506 24.0991C22.5788 24.0991 22.5063 24.0991 22.4331 24.0991C22.217 24.0266 22.072 23.8823 21.9996 23.6648C21.6378 22.652 21.3485 21.566 21.2753 20.4082C21.2753 20.1914 21.2753 19.9014 21.2753 19.6847C21.2753 18.3819 21.4928 17.0791 21.927 15.777C22.4331 14.2567 23.1573 12.8814 24.0984 11.7243C24.8219 10.7832 25.6905 10.059 26.6308 9.40794C26.8483 9.26295 27.0658 9.26295 27.21 9.33545C27.4268 9.40794 27.5718 9.55292 27.6443 9.7697C28.0786 10.7832 28.2953 11.8686 28.3678 13.0264C28.4403 14.5459 28.2236 16.1387 27.7886 17.6583C27.2825 19.2504 26.559 20.6257 25.5455 21.8553C24.8219 22.7238 24.0259 23.4481 23.1574 24.0266C22.8681 24.0266 22.7231 24.0991 22.6506 24.0991Z" fill="#101110"/>
<path d="M40.0919 30.396H39.6584C39.2234 30.396 38.9348 30.1067 38.9348 29.6717C38.9348 29.2382 39.2234 28.9482 39.6584 28.9482H40.0919C40.743 28.9482 41.3222 28.6589 41.829 28.2239C42.2633 27.7904 42.5533 27.1393 42.5533 26.4876C42.5533 25.1123 41.4672 24.027 40.0919 24.027H3.90769C3.25593 24.027 2.67669 24.317 2.17064 24.7505C1.66387 25.1848 1.44636 25.8365 1.44636 26.4876C1.44636 27.8629 2.53239 28.9482 3.90769 28.9482H4.34124C4.77551 28.9482 5.06479 29.2382 5.06479 29.6717C5.06479 30.1067 4.77551 30.396 4.34124 30.396H3.90769C1.73563 30.396 0 28.6589 0 26.4876C0 25.4741 0.433559 24.4612 1.1571 23.7377C1.88136 23.0142 2.89416 22.5799 3.90769 22.5799H40.0919C42.2633 22.5799 43.9996 24.317 43.9996 26.4876C43.9996 27.5011 43.5661 28.5139 42.8418 29.2382C42.1183 30.0335 41.1055 30.396 40.0919 30.396Z" fill="#101110"/>
<path d="M7.5265 5.06652C7.16401 5.06652 6.87547 5.35579 6.87547 5.71756C6.87547 6.07933 7.16401 6.36933 7.5265 6.36933C7.88827 6.36933 8.17753 6.07933 8.17753 5.71756C8.17753 5.35579 7.88827 5.06652 7.5265 5.06652ZM7.5265 7.81641C6.36869 7.81641 5.42767 6.87537 5.42767 5.71756C5.42767 4.55975 6.36869 3.61872 7.5265 3.61872C8.68359 3.61872 9.62536 4.55975 9.62536 5.71756C9.62536 6.87537 8.68359 7.81641 7.5265 7.81641Z" fill="#101110"/>
<path d="M35.6048 6.00695C35.243 6.00695 34.9537 6.29694 34.9537 6.65871C34.9537 7.02049 35.243 7.30975 35.6048 7.30975C35.9673 7.30975 36.2565 7.02049 36.2565 6.65871C36.2565 6.29694 35.8941 6.00695 35.6048 6.00695ZM35.6048 8.68506C34.447 8.68506 33.5059 7.74403 33.5059 6.58622C33.5059 5.42841 34.447 4.48737 35.6048 4.48737C36.7626 4.48737 37.7036 5.42841 37.7036 6.58622C37.6311 7.74403 36.6908 8.68506 35.6048 8.68506Z" fill="#101110"/>
<path d="M22.4335 1.44799C21.8549 1.44799 21.3489 1.95405 21.3489 2.53331C21.3489 3.11257 21.8549 3.61861 22.4335 3.61861C23.0127 3.61861 23.5195 3.11257 23.5195 2.53331C23.5195 1.95405 23.086 1.44799 22.4335 1.44799ZM22.4335 5.06641C21.0589 5.06641 19.9011 3.90789 19.9011 2.53331C19.9011 1.15801 21.0589 0.000195503 22.4335 0.000195503C23.8088 0.000195503 24.9673 1.15801 24.9673 2.53331C24.9673 3.90789 23.8813 5.06641 22.4335 5.06641Z" fill="#101110"/>
<path d="M30.9016 44.0015C30.4673 44.0015 30.1781 43.7122 30.1781 43.2779C30.1781 42.8437 30.4673 42.5537 30.9016 42.5537C33.5797 42.5537 35.9678 40.7448 36.6189 38.1392L38.6452 30.4681H5.28268L7.30902 38.1392C8.03256 40.7448 10.3489 42.5537 13.0263 42.5537C13.4605 42.5537 13.7498 42.8437 13.7498 43.2779C13.7498 43.7122 13.4605 44.0015 13.0263 44.0015C9.69713 44.0015 6.73047 41.7583 5.86193 38.5017L3.54559 29.8895C3.47309 29.672 3.54559 29.4553 3.69059 29.2385C3.83487 29.0928 4.05235 28.9485 4.26984 28.9485H39.5863C39.803 28.9485 40.0198 29.021 40.1655 29.2385C40.3098 29.3828 40.3816 29.672 40.3098 29.8895L37.9935 38.5017C37.1982 41.7583 34.2308 44.0015 30.9016 44.0015Z" fill="#101110"/>
<path d="M31.4809 34.0146H6.15118C5.71692 34.0146 5.42767 33.7254 5.42767 33.2904C5.42767 32.8569 5.71692 32.5669 6.15118 32.5669H31.4809C31.9144 32.5669 32.2044 32.8569 32.2044 33.2904C32.2044 33.7254 31.9144 34.0146 31.4809 34.0146Z" fill="#101110"/>
<path d="M43.2772 44.0015H5.28269C4.84842 44.0015 4.55914 43.7122 4.55914 43.2779C4.55914 42.8437 4.84842 42.5537 5.28269 42.5537H43.2772C43.7107 42.5537 44 42.8437 44 43.2779C44 43.6397 43.6382 44.0015 43.2772 44.0015Z" fill="#101110"/>
</svg>
